<svg xmlns="http://www.w3.org/2000/svg" viewBox="0 0 69.2 69.2"><defs><style>.cls-1{fill:#275280;}.cls-2{fill:#fff;}</style></defs><title>Rastreo_En_transito</title><g id="Salidas"><circle class="cls-1" cx="34.6" cy="34.6" r="34.6"/><path class="cls-2" d="M28.32,34.58h2.59l-.21.22a1.49,1.49,0,0,0,1.05,2.54,1.51,1.51,0,0,0,1.06-.44l2.75-2.75a1.48,1.48,0,0,0,0-2.11l-2.75-2.75a1.5,1.5,0,0,0-1.06-.44,1.49,1.49,0,0,0-1.05,2.54l.21.22H28.32a1.49,1.49,0,1,0,0,3Zm0-1.83h4a.56.56,0,0,0,.53-.35.59.59,0,0,0-.12-.63l-1.19-1.19a.34.34,0,0,1,0-.48.31.31,0,0,1,.24-.1.33.33,0,0,1,.25.1l2.75,2.75a.33.33,0,0,1,.1.25.33.33,0,0,1-.1.24L32,36.09a.34.34,0,0,1-.49,0,.34.34,0,0,1,0-.48l1.19-1.19a.59.59,0,0,0,.12-.63.56.56,0,0,0-.53-.35h-4a.35.35,0,0,1,0-.69Z"/><path class="cls-2" d="M59.15,32.64l-3.07-5.2c-1-1.76-2-2.79-4-3l-.21,0H45.7V22.83a1.61,1.61,0,0,0-1.6-1.61H16a1.61,1.61,0,0,0-1.61,1.61V42.88A1.61,1.61,0,0,0,16,44.48h1.67a4.81,4.81,0,0,0,9.48,0H46.56a4.81,4.81,0,0,0,9.48,0h2.42a.8.8,0,0,0,.8-.8V33.05A.72.72,0,0,0,59.15,32.64Zm-3,3.07a.8.8,0,0,1,.8-.8h.76v1.57H56.1Zm1.08-3.26H49.83l-.17,0a.81.81,0,0,1-.81-.81V28.41H54.8ZM16,22.83H44.1V42.88H27.17a4.81,4.81,0,0,0-9.48,0H16Zm6.41,24.06a3.21,3.21,0,1,1,3.2-3.21A3.21,3.21,0,0,1,22.43,46.89Zm28.87,0a3.21,3.21,0,1,1,3.2-3.21A3.21,3.21,0,0,1,51.3,46.89Zm4.74-4a4.81,4.81,0,0,0-9.48,0H45.7V26.05h5.71a2.91,2.91,0,0,1,2.23.76H48a.8.8,0,0,0-.8.8v4A2.43,2.43,0,0,0,49.46,34l.2,0h5.51a2.37,2.37,0,0,0-.67,1.66v1.57a.8.8,0,0,0,.8.8h2.36v4.8Z"/><path class="cls-2" d="M18.45,26.05H41.66a.8.8,0,1,0,0-1.6H18.45a.8.8,0,1,0,0,1.6Z"/></g></svg>