<svg xmlns="http://www.w3.org/2000/svg" viewBox="0 0 69.2 69.2"><defs><style>.cls-1{fill:#275280;}.cls-2{fill:#fff;}</style></defs><title>Rastreo_Bodega</title><g id="Salidas"><circle class="cls-1" cx="34.6" cy="34.6" r="34.6"/><path class="cls-2" d="M52.91,27.27l-17.09-10a.62.62,0,0,0-.59,0L18.15,26.68a.58.58,0,0,0-.31.51V51.94a.58.58,0,0,0,.59.59h2.95a.59.59,0,0,0,.59-.59V31.32h27.1V51.94a.59.59,0,0,0,.59.59h3a.59.59,0,0,0,.59-.59V27.78A.6.6,0,0,0,52.91,27.27ZM52,51.35H50.25V30.73a.58.58,0,0,0-.59-.59H21.38a.58.58,0,0,0-.59.59V51.35H19V27.54l16.49-9.1L52,28.12V51.35Z"/><path class="cls-2" d="M47.31,44.28H40.23a.59.59,0,0,0-.59.59v7.07a.59.59,0,0,0,.59.59h7.08a.58.58,0,0,0,.58-.59V44.87A.58.58,0,0,0,47.31,44.28Zm-.59,7.07h-5.9V45.46h5.9Z"/><path class="cls-2" d="M44.36,44.87v1.77H43.18V44.87H42v2.36a.59.59,0,0,0,.59.59H45a.6.6,0,0,0,.59-.59V44.87Z"/><path class="cls-2" d="M40.23,44.28H33.16a.59.59,0,0,0-.59.59v7.07a.59.59,0,0,0,.59.59h7.07a.58.58,0,0,0,.59-.59V44.87A.58.58,0,0,0,40.23,44.28Zm-.59,7.07H33.75V45.46h5.89Z"/><path class="cls-2" d="M37.29,44.87v1.77H36.11V44.87H34.93v2.36a.59.59,0,0,0,.59.59h2.36a.6.6,0,0,0,.59-.59V44.87Z"/><path class="cls-2" d="M47.31,37.21H40.23a.59.59,0,0,0-.59.59v7.07a.59.59,0,0,0,.59.59h7.08a.58.58,0,0,0,.58-.59V37.8A.58.58,0,0,0,47.31,37.21Zm-.59,7.07h-5.9V38.39h5.9Z"/><path class="cls-2" d="M44.36,37.8v1.77H43.18V37.8H42v2.36a.58.58,0,0,0,.59.58H45a.59.59,0,0,0,.59-.58V37.8Z"/><rect class="cls-2" x="21.38" y="34.85" width="28.29" height="1.18"/><rect class="cls-2" x="21.38" y="32.49" width="28.29" height="1.18"/><path class="cls-2" d="M38.47,25.42h-5.9A.6.6,0,0,0,32,26v2.36a.6.6,0,0,0,.59.59h5.9a.59.59,0,0,0,.58-.59V26A.59.59,0,0,0,38.47,25.42Zm-.59,2.36H33.16V26.6h4.72Z"/></g></svg>