<svg xmlns="http://www.w3.org/2000/svg" viewBox="0 0 69.2 69.2"><defs><style>.cls-1{fill:#275280;}.cls-2{fill:#fff;}</style></defs><title>Rastreo_Paquete_recolectado</title><g id="Salidas"><circle class="cls-1" cx="34.6" cy="34.6" r="34.6"/><g id="Line_stroke_cut_Ex" data-name="Line stroke cut Ex"><path class="cls-2" d="M32,25.71h1.22v1.22H32Z"/><path class="cls-2" d="M36.92,25.71h1.22v1.22H36.92Z"/><path class="cls-2" d="M35.09,31.2a1.68,1.68,0,0,0,1.83-1.52H35.7c0,.11-.23.3-.61.3s-.61-.19-.61-.3H33.26A1.68,1.68,0,0,0,35.09,31.2Z"/><path class="cls-2" d="M50.65,43.46l-2.32-2.32-.86.86,2.32,2.32A4,4,0,0,1,51,47.13v3.74a1.68,1.68,0,0,1-1.68,1.68H47.9v-3h1.22V48.28H46.68v-11a.61.61,0,0,0-.61-.61H42.76l-3.48-2.21-.5-2,.21-.11a2.88,2.88,0,0,0,1.59-2.58v-.4h.31A2.13,2.13,0,0,0,43,27.24v-.61a2.15,2.15,0,0,0-2.09-2.14,2.12,2.12,0,0,0,.26-1V21.6a4.43,4.43,0,0,0-4.42-4.43H33.41A4.43,4.43,0,0,0,29,21.6v1.87a2.12,2.12,0,0,0,.26,1,2.15,2.15,0,0,0-2.09,2.14v.61a2.13,2.13,0,0,0,2.14,2.13h.3v.42a2.89,2.89,0,0,0,1.6,2.59l.2.1-.5,2-3.48,2.21H24.11a.62.62,0,0,0-.61.61v2.19l-2.26,2.26.86.86,1.4-1.39v7.06H21.06V49.5h1.22v3H20.91a1.68,1.68,0,0,1-1.68-1.68V47.13a4,4,0,0,1,1.16-2.81l.49-.49L20,43l-.49.49A5.19,5.19,0,0,0,18,47.13v3.74a2.9,2.9,0,0,0,2.9,2.9H49.27a2.9,2.9,0,0,0,2.9-2.9V47.13a5.15,5.15,0,0,0-1.52-3.67ZM33.26,37.91h3.66v4.27H33.26Zm4.52-1.22,1.06-1,1.65,1ZM30.7,24.28a.92.92,0,0,1-.49-.81V23l2.22-1.23a5.44,5.44,0,0,1,5.33,0L40,23v.45a.92.92,0,0,1-.91.92.86.86,0,0,1-.51-.16l-1.43-.95a3.66,3.66,0,0,0-4.06,0l-1.43.95a.87.87,0,0,1-.93.05Zm11.1,2.35v.61a.91.91,0,0,1-.91.91h-.31V25.71h.31A.92.92,0,0,1,41.8,26.63Zm-8.39-8.24h3.36A3.21,3.21,0,0,1,40,21.6v0l-1.62-.9a6.64,6.64,0,0,0-6.52,0l-1.62.9v0A3.22,3.22,0,0,1,33.41,18.39ZM29.3,28.15a.92.92,0,0,1-.92-.91v-.61a.92.92,0,0,1,.92-.92h.3v2.44Zm1.52,1.64v-4.2a2.18,2.18,0,0,0,1.49-.34l1.43-.95a2.43,2.43,0,0,1,2.71,0l1.42.95a2.18,2.18,0,0,0,1.49.34v4.18a1.65,1.65,0,0,1-.92,1.49L35.5,32.75a.91.91,0,0,1-.82,0l-2.93-1.46a1.67,1.67,0,0,1-.93-1.5Zm3.31,4.06a2.16,2.16,0,0,0,1.92,0L37.66,33l.42,1.66-2,2H34.12l-2-2L32.52,33Zm-2.78,1.79,1,1H29.69Zm-6.63,2.27H32v4.88a.61.61,0,0,0,.61.61h4.88a.61.61,0,0,0,.61-.61V37.91h7.32V48.28h-.61A4.89,4.89,0,0,0,40,52.55H38.14v-3a.61.61,0,0,0-.61-.61H32.65a.62.62,0,0,0-.61.61v3H30.17a4.89,4.89,0,0,0-4.84-4.27h-.61ZM23.5,52.55v-3h1.83a3.66,3.66,0,0,1,3.61,3Zm9.76,0V50.11h3.66v2.44Zm13.42,0H41.24a3.67,3.67,0,0,1,3.61-3h1.83Z"/><path class="cls-2" d="M25.94,39.13h1.22v1.22H25.94Z"/><path class="cls-2" d="M28.38,39.13h2.44v1.22H28.38Z"/></g></g></svg>