<svg xmlns="http://www.w3.org/2000/svg" viewBox="0 0 69.2 69.2"><defs><style>.cls-1{fill:#275280;}.cls-2{fill:#fff;}</style></defs><title>Rastreo_Orden creada</title><g id="Salidas"><circle class="cls-1" cx="34.6" cy="34.6" r="34.6"/><path class="cls-2" d="M44.57,18.18a1.18,1.18,0,0,1,.68,1.22V34.73a.8.8,0,0,0,.29.66,8,8,0,0,1,2.7,6.76,8.4,8.4,0,0,1-15.49,3.92,5.61,5.61,0,0,1-.7-1.38c-.09-.3-.26-.36-.55-.36H25c-.83,0-1.17-.33-1.17-1.16q0-12,0-24a1.09,1.09,0,0,1,.65-1ZM25.76,31.25V42c0,.41,0,.41.41.41h4.69c.7,0,.62.07.59-.59a8,8,0,0,1,2.26-6,8.33,8.33,0,0,1,9.2-2.15c.4.16.4.16.4-.27v-13c0-.4,0-.4-.42-.4H26.2c-.44,0-.44,0-.44.45ZM33.4,41.64a6.47,6.47,0,0,0,12.93,0,6.47,6.47,0,1,0-12.93,0Z"/><path class="cls-2" d="M34.55,29.34c2,0,4,0,6,0a1,1,0,1,1,0,1.9c-1.6,0-3.2,0-4.81,0H28.56a1,1,0,0,1-1-1.18.93.93,0,0,1,1-.72C30.56,29.33,32.55,29.34,34.55,29.34Z"/><path class="cls-2" d="M34.55,21.89c2,0,4,0,6,0a1,1,0,1,1,0,1.9c-1.22,0-2.44,0-3.66,0H28.58a.93.93,0,0,1-1-.94.92.92,0,0,1,1-1h6Z"/><path class="cls-2" d="M34.52,25.61h6a1,1,0,0,1,.3,1.86,1.42,1.42,0,0,1-.36.05H28.56a.92.92,0,0,1-1-.94.93.93,0,0,1,1-1Z"/><path class="cls-2" d="M30,35H28.51a1,1,0,1,1,0-1.9h2.94a1,1,0,1,1,0,1.91Z"/><path class="cls-2" d="M43.75,39.34a1,1,0,0,1-.23.64c-1.16,1.48-2.31,3-3.48,4.44a1,1,0,0,1-1.58,0c-.6-.7-1.2-1.39-1.79-2.1A1,1,0,1,1,38,41a14.26,14.26,0,0,1,1,1.1c.18.21.29.19.45,0,.83-1.08,1.67-2.15,2.51-3.22a1,1,0,0,1,1.63-.06A1,1,0,0,1,43.75,39.34Z"/></g></svg>