<?xml version="1.0" encoding="utf-8"?>
<!-- Generator: Adobe Illustrator 23.0.4, SVG Export Plug-In . SVG Version: 6.00 Build 0)  -->
<svg version="1.1" id="Capa_1" xmlns="http://www.w3.org/2000/svg" xmlns:xlink="http://www.w3.org/1999/xlink" x="0px" y="0px"
	 viewBox="0 0 69.2 69.2" style="enable-background:new 0 0 69.2 69.2;" xml:space="preserve">
<style type="text/css">
	.st0{fill:#275280;}
	.st1{fill:#FFFFFF;}
</style>
<title>Rastreo_Entregado</title>
<g id="Salidas">
	<circle class="st0" cx="34.6" cy="34.6" r="34.6"/>
	<path class="st0" d="M24.6,43.7c-0.3-0.3-0.9-0.2-1.1,0.1c0,0,0,0,0,0l-2,2.4l-0.7-0.6c-0.4-0.3-0.9-0.2-1.2,0.1
		c-0.3,0.3-0.2,0.8,0.1,1.1l1.4,1.1c0.1,0.1,0.3,0.2,0.5,0.2h0.1c0.2,0,0.4-0.1,0.6-0.3l2.6-3.1C24.9,44.5,24.9,44,24.6,43.7z"/>
	<path class="st1" d="M55.6,31.1h-1.2c-1,0-1.8-0.9-2.7-1.9c-0.6-0.7-1.3-1.3-2.1-1.9v-7c0-1.2-1-2.2-2.2-2.2H20.7
		c-1.2,0-2.2,1-2.2,2.2v5.7c0,0.5,0.4,0.8,0.8,0.8c0.5,0,0.8-0.4,0.8-0.8v-5.7c0-0.3,0.3-0.6,0.6-0.6h9V27c0,0.3,0.2,0.6,0.4,0.7
		c0.1,0.1,0.3,0.1,0.4,0.1c0.2,0,0.3,0,0.4-0.1l3-1.9l3,1.9c0.4,0.2,0.9,0.1,1.1-0.3c0.1-0.1,0.1-0.3,0.1-0.4v-7.2h9
		c0.3,0,0.6,0.3,0.6,0.6v6.3c-0.3-0.1-0.6-0.1-0.8-0.1h-4.6c-0.7,0-1.3,0.3-1.7,0.8c-0.4,0.7-0.4,1.5-0.1,2.2
		c0.1,0.2,0.2,0.4,0.3,0.5h-6.2c-1.3,0-2.4,1.1-2.4,2.4c0,0.3,0,0.5,0.1,0.8h-0.2c-1.3,0.1-2.3,1.2-2.3,2.6c0.1,1.2,1,2.2,2.3,2.3
		h0.2c-0.1,0.3-0.1,0.5-0.1,0.8c0,1.3,1,2.3,2.3,2.4c-0.1,0.3-0.1,0.5-0.1,0.8c0,1.3,1.1,2.4,2.4,2.4h10.1c0.3,0,0.7,0,1-0.1v2.6
		c0,0.3-0.3,0.6-0.6,0.6h-19c1-3.5-1.1-7.2-4.6-8.2c-0.6-0.2-1.2-0.2-1.8-0.2c-0.7,0-1.3,0.1-1.9,0.3v-6.1c0-0.5-0.4-0.8-0.8-0.8
		c-0.5,0-0.8,0.4-0.8,0.8v6.9c-3.1,2-4,6.1-2.1,9.2s6.1,4,9.2,2.1c0.9-0.6,1.7-1.3,2.2-2.3h19.7c1.2,0,2.2-1,2.2-2.2v0v-3.3
		c0.2-0.1,0.3-0.3,0.5-0.4c0.6-0.6,1.5-1,2.3-1h3.1c1,0,1.7-0.8,1.7-1.7v-7.8C57.3,31.9,56.5,31.1,55.6,31.1z M36.7,25.5l-2.2-1.4
		c-0.3-0.2-0.6-0.2-0.9,0l-2.2,1.4v-5.8h5.3V25.5z M22.1,50.9c-2.8,0-5-2.2-5-5s2.2-5,5-5s5,2.2,5,5S24.8,50.9,22.1,50.9z
		 M55.7,40.5C55.7,40.6,55.6,40.6,55.7,40.5L55.7,40.5l-3.2,0.1c-1.2,0-2.4,0.5-3.3,1.4c-0.6,0.6-1.3,0.9-2.1,1H36.9
		c-0.4,0-0.8-0.3-0.8-0.8c0-0.4,0.3-0.8,0.8-0.8h2.7c0.5,0,0.8-0.4,0.8-0.8c0-0.5-0.4-0.8-0.8-0.8h-4.9c-0.4,0-0.7-0.4-0.7-0.9
		c0-0.4,0.3-0.7,0.7-0.7h4.9c0.5,0,0.8-0.5,0.7-0.9c0-0.4-0.3-0.7-0.7-0.7h-7.4c-0.4,0-0.7-0.4-0.7-0.9c0-0.4,0.3-0.7,0.7-0.7h7.4
		c0.5,0,0.8-0.5,0.7-0.9c0-0.4-0.3-0.7-0.7-0.7h-4.9c-0.4,0-0.7-0.4-0.7-0.9c0-0.4,0.3-0.7,0.7-0.7h12.1c0.5,0,0.8-0.5,0.7-0.9
		c0-0.4-0.3-0.7-0.7-0.7h-3c-0.7,0-1.4-0.5-1.6-1.2c-0.1-0.2-0.1-0.5-0.1-0.7c0.1-0.1,0.3-0.1,0.4-0.1h4.6c1.4,0,2.3,1,3.4,2.1
		s2.2,2.3,3.8,2.4h1.2c0,0,0.1,0,0.1,0.1l0,0V40.5L55.7,40.5z"/>
	<path class="st0" d="M19.3,30.6c0.5,0,0.8-0.4,0.8-0.8s-0.4-0.8-0.8-0.8s-0.8,0.4-0.8,0.8l0,0l0,0C18.5,30.2,18.9,30.6,19.3,30.6z"
		/>
</g>
</svg>
