<svg id="Color_Palette" data-name="Color Palette" xmlns="http://www.w3.org/2000/svg" viewBox="0 0 24 24.03"><defs><style>.cls-1{fill:#fc0f42;}</style></defs><path class="cls-1" d="M10.91,18.32a.47.47,0,0,0,.66.66.47.47,0,1,0-.66-.66Z"/><path class="cls-1" d="M22.94,17.5l-3.56-3-.05,0a2.34,2.34,0,0,0-2.92.32L14.47,16.7a.48.48,0,0,1-.51.1A12.77,12.77,0,0,1,8.6,12.74a9.37,9.37,0,0,1-1.46-2.6l0-.1a.48.48,0,0,1,.1-.51l2-1.94a2.34,2.34,0,0,0,.32-2.92l0,0L6.89,1.07A2.35,2.35,0,0,0,3.26.69l-.39.39h0L1.48,2.47C-.18,4.12-.45,6.61.7,9.66a23.7,23.7,0,0,0,5.52,8.06,23.94,23.94,0,0,0,8.27,5.62c2.67,1,5.51,1.1,7.51-.91l1.31-1.31A2.34,2.34,0,0,0,22.94,17.5ZM18.8,15.21l3.56,3,.05,0a1.41,1.41,0,0,1,.24,2.19l-.1.09L16.48,16l.59-.59A1.4,1.4,0,0,1,18.8,15.21ZM6.1,1.59l0,0L8.69,5.19a1.39,1.39,0,0,1-.2,1.74l-.57.57-4.11-6,.11-.11A1.4,1.4,0,0,1,6.1,1.59Zm8.71,20.87a23.24,23.24,0,0,1-7.93-5.4A23,23,0,0,1,1.57,9.33C.87,7.46.4,4.87,2.14,3.13l1-1,4.1,6-.69.69a1.4,1.4,0,0,0-.32,1.49,10.4,10.4,0,0,0,1.52,2.8,13.67,13.67,0,0,0,5.85,4.5,1.4,1.4,0,0,0,1.53-.3l.68-.68,6.07,4.54-.54.55C19.48,23.63,16.76,23.17,14.81,22.46Z"/><path class="cls-1" d="M10,17.2c-.5-.44-1.35-1.19-1.81-1.65a33.52,33.52,0,0,1-3-3.51.46.46,0,0,0-.65-.12.47.47,0,0,0-.12.65A30.89,30.89,0,0,0,7.55,16.2c.48.49,1.34,1.25,1.86,1.7a.47.47,0,1,0,.62-.7Z"/></svg>