<svg id="Color_Palette" data-name="Color Palette" xmlns="http://www.w3.org/2000/svg" viewBox="0 0 23.98 27.29"><defs><style>.cls-1{fill:#fc0f42;}</style></defs><path class="cls-1" d="M16.55,18c2.9-4.56,2.54-4,2.62-4.11a8.68,8.68,0,0,0,1.61-5.07A8.79,8.79,0,1,0,4.86,14l2.58,4C4.68,18.45,0,19.71,0,22.49c0,1,.66,2.46,3.81,3.58A25.35,25.35,0,0,0,12,27.29c5.76,0,12-1.63,12-4.8C24,19.71,19.31,18.45,16.55,18ZM6.2,13.11l0,0A7.23,7.23,0,0,1,12,1.6a7.23,7.23,0,0,1,7.2,7.25A7.15,7.15,0,0,1,17.87,13c-.07.1.33-.53-5.88,9.21ZM12,25.69c-6.29,0-10.39-1.85-10.39-3.2,0-.91,2.11-2.4,6.78-3l2.94,4.61a.79.79,0,0,0,.67.37.82.82,0,0,0,.68-.37l2.93-4.61c4.67.58,6.78,2.07,6.78,3C22.38,23.83,18.32,25.69,12,25.69Z"/><path class="cls-1" d="M12,4.85a4,4,0,1,0,4,4A4,4,0,0,0,12,4.85Zm0,6.4a2.4,2.4,0,1,1,2.4-2.4A2.41,2.41,0,0,1,12,11.25Z"/></svg>