<svg id="Color_Palette" data-name="Color Palette" xmlns="http://www.w3.org/2000/svg" viewBox="0 0 129.28 40.65"><defs><style>.cls-1{fill:#c5c8c9;fill-rule:evenodd;}</style></defs><path class="cls-1" d="M80.2,31.3c-7.48,5.54-18.37,8.49-27.76,8.49A50.34,50.34,0,0,1,18.51,26.86c-.68-.64-.09-1.5.77-1a68.22,68.22,0,0,0,33.93,9,67.4,67.4,0,0,0,25.9-5.31c1.27-.5,2.31.87,1.09,1.77Z"/><path class="cls-1" d="M83.33,27.72c-1-1.23-6.35-.59-8.75-.27-.73.09-.87-.55-.19-1,4.31-3,11.34-2.13,12.16-1.14s-.23,8.08-4.26,11.44c-.64.5-1.23.22-1-.46C82.24,34,84.28,29,83.33,27.72Z"/><path class="cls-1" d="M74.71,5.13V2.18a.7.7,0,0,1,.73-.73H88.59a.76.76,0,0,1,.77.73v2.5c0,.4-.36,1-1,1.85l-6.81,9.71a14.86,14.86,0,0,1,7.49,1.59A1.38,1.38,0,0,1,89.73,19v3.13c0,.46-.46,1-1,.68a15,15,0,0,0-13.88.05c-.45.23-1-.23-1-.68v-3a3.39,3.39,0,0,1,.5-2l7.89-11.3H75.48a.75.75,0,0,1-.77-.72ZM26.76,23.41h-4a.82.82,0,0,1-.72-.68V2.23a.76.76,0,0,1,.77-.73h3.72a.73.73,0,0,1,.72.68V4.86h.09a5.3,5.3,0,0,1,5.27-3.81c2.49,0,4.08,1.22,5.17,3.81A5.9,5.9,0,0,1,48,3.31C49.22,5,49,7.53,49,9.76v13a.77.77,0,0,1-.78.73H44.23a.79.79,0,0,1-.73-.73V11.84A27.33,27.33,0,0,0,43.41,8a2.11,2.11,0,0,0-2.36-1.77,2.66,2.66,0,0,0-2.4,1.68,12.47,12.47,0,0,0-.36,3.94V22.73a.77.77,0,0,1-.78.73h-4a.78.78,0,0,1-.72-.73V11.84c0-2.27.36-5.67-2.45-5.67s-2.77,3.27-2.77,5.67V22.73a.8.8,0,0,1-.82.68ZM100.7,1.05c6,0,9.17,5.08,9.17,11.56,0,6.26-3.54,11.25-9.17,11.25-5.8,0-9-5.08-9-11.43s3.18-11.38,9-11.38Zm0,4.21c-2.94,0-3.13,4-3.13,6.54s0,7.84,3.09,7.84,3.26-4.3,3.26-6.94a19.79,19.79,0,0,0-.59-5.44,2.51,2.51,0,0,0-2.63-2Zm16.83,18.15h-4a.77.77,0,0,1-.72-.73V2.13a.78.78,0,0,1,.77-.68h3.72A.78.78,0,0,1,118,2V5.17h.09c1.14-2.81,2.68-4.12,5.45-4.12a5.28,5.28,0,0,1,4.67,2.4c1,1.63,1,4.4,1,6.4V22.77a.74.74,0,0,1-.77.64h-4a.85.85,0,0,1-.73-.64V11.62c0-2.27.28-5.54-2.49-5.54A2.66,2.66,0,0,0,119,7.71a9.52,9.52,0,0,0-.63,3.91V22.68a.84.84,0,0,1-.82.73Zm-53.3-9.8a8.15,8.15,0,0,1-.72,4.27,3.23,3.23,0,0,1-2.77,1.81c-1.54,0-2.45-1.18-2.45-2.9,0-3.41,3-4,5.94-4Zm4,9.75a.82.82,0,0,1-1,.1A10.13,10.13,0,0,1,65,20.78c-2.17,2.22-3.76,2.9-6.57,2.9-3.36,0-6-2.08-6-6.21a6.78,6.78,0,0,1,4.26-6.53c2.18-1,5.22-1.14,7.53-1.41V9a4.88,4.88,0,0,0-.5-2.9,2.67,2.67,0,0,0-2.22-1,3,3,0,0,0-3.22,2.41c-.09.36-.32.72-.68.72l-3.86-.4A.71.71,0,0,1,53.16,7C54.07,2.27,58.29.86,62.1.86c1.95,0,4.49.5,6,2,2,1.82,1.77,4.26,1.77,6.9V16a5.59,5.59,0,0,0,1.5,3.72c.27.36.32.82,0,1-.86.68-2.31,1.95-3.13,2.63ZM11.84,13.61a8.16,8.16,0,0,1-.73,4.27,3.2,3.2,0,0,1-2.76,1.81c-1.55,0-2.45-1.18-2.45-2.9,0-3.41,3-4,5.94-4Zm4,9.75a.81.81,0,0,1-.95.1,9.89,9.89,0,0,1-2.31-2.68C10.39,23,8.8,23.68,6,23.68c-3.36,0-6-2.08-6-6.21a6.78,6.78,0,0,1,4.26-6.53c2.18-1,5.22-1.14,7.53-1.41V9a5,5,0,0,0-.49-2.9,2.69,2.69,0,0,0-2.23-1A3,3,0,0,0,5.85,7.49c-.09.36-.32.72-.68.72l-3.85-.4A.71.71,0,0,1,.73,7C1.63,2.27,5.85.86,9.66.86c1.95,0,4.49.5,6,2,1.95,1.82,1.76,4.26,1.76,6.9V16A5.64,5.64,0,0,0,19,19.69c.27.36.32.82,0,1-.86.68-2.31,1.95-3.13,2.63Z"/></svg>