<svg id="Color_Palette" data-name="Color Palette" xmlns="http://www.w3.org/2000/svg" viewBox="0 0 45.66 45.13"><defs><style>.cls-1{fill:#fff;}</style></defs><path class="cls-1" d="M25.88,10.2,16.65,5.74a.28.28,0,0,0-.25,0L7.17,10.2a.29.29,0,0,0-.17.26V21.28a.3.3,0,0,0,.17.27L16.4,26a.27.27,0,0,0,.12,0,.28.28,0,0,0,.13,0l9.23-4.45a.3.3,0,0,0,.17-.27V10.46A.29.29,0,0,0,25.88,10.2ZM16.52,6.34l8.55,4.12-2.48,1.2-.05,0-8.48-4.1ZM13.38,7.87,21.91,12l-1.74.84L11.64,8.71Zm8.73,4.68v3.12l-1.63.79V13.34Zm3.34,8.54-8.63,4.17V15.1l2.06-1a.3.3,0,1,0-.26-.54l-2.1,1-.82-.4a.3.3,0,0,0-.4.14.29.29,0,0,0,.14.39l.79.38V25.26L7.6,21.09V10.94l6.57,3.17a.28.28,0,0,0,.13,0,.3.3,0,0,0,.13-.57L8,10.46l3-1.42,8.94,4.31h0v3.57a.29.29,0,0,0,.14.25.27.27,0,0,0,.15.05.28.28,0,0,0,.13,0l2.23-1.08a.3.3,0,0,0,.17-.27V12.26l2.74-1.32V21.09Z"/><path class="cls-1" d="M10.05,19.94,8.7,19.29a.3.3,0,0,0-.4.13.3.3,0,0,0,.14.4l1.35.66a.31.31,0,0,0,.13,0,.31.31,0,0,0,.27-.17A.3.3,0,0,0,10.05,19.94Z"/><path class="cls-1" d="M11.3,19.13,8.7,17.87a.3.3,0,0,0-.26.54L11,19.66a.31.31,0,0,0,.13,0,.3.3,0,0,0,.27-.16A.3.3,0,0,0,11.3,19.13Z"/><path class="cls-1" d="M45.44,40.85,29.65,25.06a16.17,16.17,0,1,0-4,4.15l15.7,15.7a.74.74,0,0,0,1,0l3-3a.74.74,0,0,0,0-1ZM5.93,26.57a14.55,14.55,0,1,1,20.58,0h0A14.56,14.56,0,0,1,5.93,26.57Zm36,16.76-15-15,1.95-1.95,15,15Z"/></svg>