<svg id="Color_Palette" data-name="Color Palette" xmlns="http://www.w3.org/2000/svg" viewBox="0 0 24.15 24.15"><defs><style>.cls-1{fill:#fff;}</style></defs><path class="cls-1" d="M12.07,24.15A12.08,12.08,0,1,1,24.15,12.07,12.09,12.09,0,0,1,12.07,24.15Zm0-23.23A11.16,11.16,0,1,0,23.23,12.07,11.16,11.16,0,0,0,12.07.92Z"/><path class="cls-1" d="M12.07,6.85c1.7,0,1.91,0,2.58,0a3.45,3.45,0,0,1,1.18.22,1.79,1.79,0,0,1,.73.48,1.9,1.9,0,0,1,.48.73,3.45,3.45,0,0,1,.22,1.18c0,.67,0,.87,0,2.57s0,1.91,0,2.58A3.45,3.45,0,0,1,17,15.83,2.16,2.16,0,0,1,15.83,17a3.45,3.45,0,0,1-1.18.22c-.67,0-.88,0-2.58,0s-1.9,0-2.57,0A3.45,3.45,0,0,1,8.32,17a1.9,1.9,0,0,1-.73-.48,1.79,1.79,0,0,1-.48-.73,3.45,3.45,0,0,1-.22-1.18c0-.67,0-.88,0-2.58s0-1.9,0-2.57a3.45,3.45,0,0,1,.22-1.18,1.79,1.79,0,0,1,.48-.73,1.79,1.79,0,0,1,.73-.48A3.45,3.45,0,0,1,9.5,6.89c.67,0,.87,0,2.57,0m0-1.15c-1.73,0-1.94,0-2.62,0A4.62,4.62,0,0,0,7.9,6,3.2,3.2,0,0,0,6,7.9a4.62,4.62,0,0,0-.3,1.55c0,.68,0,.89,0,2.62s0,1.95,0,2.63A4.62,4.62,0,0,0,6,16.25a3.14,3.14,0,0,0,.73,1.12,3.07,3.07,0,0,0,1.13.74,4.64,4.64,0,0,0,1.55.29c.68,0,.89,0,2.62,0s1.95,0,2.63,0a4.64,4.64,0,0,0,1.55-.29,3.35,3.35,0,0,0,1.86-1.86,4.64,4.64,0,0,0,.29-1.55c0-.68,0-.9,0-2.63s0-1.94,0-2.62a4.64,4.64,0,0,0-.29-1.55,3.07,3.07,0,0,0-.74-1.13A3.14,3.14,0,0,0,16.25,6a4.62,4.62,0,0,0-1.55-.3c-.68,0-.9,0-2.63,0"/><path class="cls-1" d="M12.07,8.8a3.27,3.27,0,1,0,3.27,3.27A3.28,3.28,0,0,0,12.07,8.8m0,5.4a2.13,2.13,0,1,1,2.13-2.13,2.12,2.12,0,0,1-2.13,2.13"/><path class="cls-1" d="M16.24,8.67a.77.77,0,1,1-.77-.76.76.76,0,0,1,.77.76"/></svg>