<svg id="Color_Palette" data-name="Color Palette" xmlns="http://www.w3.org/2000/svg" viewBox="0 0 159.59 40.65"><defs><style>.cls-1{fill:#c5c8c9;}.cls-2{fill:#fff;}</style></defs><path class="cls-1" d="M27.81,1.45C12.45,1.45,0,9.62,0,19.64V20.7C0,31.33,10.88,39.94,27.8,39.94S55.61,31.33,55.61,20.7V19.64C55.61,9.62,43.16,1.45,27.81,1.45Zm0,35.28c-14.76,0-26.73-7.66-26.73-17.1s12-17.11,26.73-17.11,26.74,7.66,26.74,17.11S42.58,36.73,27.81,36.73Z"/><path class="cls-2" d="M18.94,14.23s-.29.31-.11.53a3.32,3.32,0,0,0,3,.55,9,9,0,0,0,2.76-1.75,11,11,0,0,1,3.16-2,3.51,3.51,0,0,1,2.3-.06,6.88,6.88,0,0,1,2.1,1.22c1.83,1.38,9.19,7.8,10.46,8.91A63.9,63.9,0,0,1,54.4,17.83a14.6,14.6,0,0,0-5.58-8.78c-4.24,1.78-9.42,2.71-14.48.24a14,14,0,0,0-5.47-1.24c-4,.09-5.76,1.83-7.6,3.67Z"/><path class="cls-2" d="M42.35,22.32c-.09-.08-8.65-7.57-10.59-9a4.74,4.74,0,0,0-2.4-1.14,3.18,3.18,0,0,0-1.15.11,10.26,10.26,0,0,0-3.13,1.86A8.73,8.73,0,0,1,22,16a5,5,0,0,1-3.37-.5,1.46,1.46,0,0,1-.56-.62,1,1,0,0,1,.29-1.11l2.36-2.56.83-.82a14.35,14.35,0,0,0-2.15.49,9.47,9.47,0,0,1-2.51.47A23.25,23.25,0,0,1,14.35,11,37.92,37.92,0,0,1,7.53,8.49c-3.36,2.5-5.6,5.63-6.25,9.07.48.13,1.26.36,1.59.43,7.6,1.69,10,3.43,10.4,3.8a2.5,2.5,0,0,1,1.88-.85A2.54,2.54,0,0,1,17.21,22,2.92,2.92,0,0,1,19,21.38a3.57,3.57,0,0,1,1.09.19A2.53,2.53,0,0,1,21.64,23a2.73,2.73,0,0,1,1.06-.22A3.1,3.1,0,0,1,24,23a2.7,2.7,0,0,1,1.49,3,1.56,1.56,0,0,1,.31,0,3,3,0,0,1,2.65,4.44,4.79,4.79,0,0,0,2.62.7,1.65,1.65,0,0,0,1.22-.54c.08-.1.16-.23.08-.32l-2.14-2.38s-.36-.33-.24-.46.34.05.49.18c1.1.92,2.43,2.29,2.43,2.29s.11.19.6.28a2.25,2.25,0,0,0,1.7-.4,2.23,2.23,0,0,0,.37-.38l0,0A1.15,1.15,0,0,0,35.45,28L33,25.22s-.36-.33-.24-.47.34.06.5.19c.79.67,1.91,1.79,3,2.84a2,2,0,0,0,2.4-.08,1.73,1.73,0,0,0,.89-1.57A1.8,1.8,0,0,0,39,25.08l-3.42-3.44s-.36-.3-.23-.46.34.06.49.19c1.09.91,4,3.61,4,3.61a2.07,2.07,0,0,0,2.32,0,1.55,1.55,0,0,0,.76-1.23A1.79,1.79,0,0,0,42.35,22.32Z"/><path class="cls-2" d="M25.76,26.68a6.63,6.63,0,0,0-1.19.26s0-.24.08-.36.75-2.23-.95-3a2,2,0,0,0-2.37.36c-.08.07-.11.06-.12,0a1.87,1.87,0,0,0-1.32-1.75,2.57,2.57,0,0,0-2.9,1,1.85,1.85,0,1,0-.55,1.58s0,0,0,.06A2.44,2.44,0,0,0,18,27.7a1.84,1.84,0,0,0,1.8-.27c.15-.11.17-.07.15.07a1.75,1.75,0,0,0,1.31,1.88,1.67,1.67,0,0,0,2-.36c.17-.15.21-.13.22.11a2.35,2.35,0,1,0,2.35-2.45Z"/><path class="cls-1" d="M42.68,21.42C40,19.12,34,13.82,32.29,12.58a7,7,0,0,0-2.15-1.25,3.36,3.36,0,0,0-1.05-.17,4.5,4.5,0,0,0-1.35.23,10.73,10.73,0,0,0-3.15,2l-.06,0a8.67,8.67,0,0,1-2.69,1.71,4.27,4.27,0,0,1-1,.12A2.61,2.61,0,0,1,19,14.65c0-.06,0-.15.09-.29l0,0,2.32-2.5c1.82-1.82,3.53-3.53,7.48-3.63h.2a14,14,0,0,1,5.2,1.23,16,16,0,0,0,7.08,1.7,18.6,18.6,0,0,0,7.77-1.86c-.3-.26-.62-.5-.94-.75a17.14,17.14,0,0,1-6.83,1.55,15,15,0,0,1-6.62-1.59,15.21,15.21,0,0,0-5.66-1.34h-.22A9.75,9.75,0,0,0,22.4,9.45a12.42,12.42,0,0,0-3.21.58,8.87,8.87,0,0,1-2.27.44c-.29,0-.81,0-.86,0A44.73,44.73,0,0,1,7.91,8.18L7,8.9a40.39,40.39,0,0,0,8.83,2.56c.37,0,.75.06,1.14.06a9.87,9.87,0,0,0,2.56-.47c.49-.14,1-.29,1.6-.4l-.45.46-2.36,2.55A1.16,1.16,0,0,0,18,15a1.66,1.66,0,0,0,.62.69,4.86,4.86,0,0,0,2.5.63,4.58,4.58,0,0,0,1-.1,9,9,0,0,0,3.12-1.92,10.39,10.39,0,0,1,3.07-1.84,3.64,3.64,0,0,1,.86-.12h.22a4.67,4.67,0,0,1,2.32,1.11c1.93,1.46,10.5,9,10.58,9a1.68,1.68,0,0,1,.52,1.26,1.39,1.39,0,0,1-.69,1.1,2.08,2.08,0,0,1-1.12.35,1.89,1.89,0,0,1-1-.29s-3-2.72-4.05-3.62A.91.91,0,0,0,35.4,21a.26.26,0,0,0-.22.1c-.17.21,0,.5.24.69l3.43,3.45a1.61,1.61,0,0,1,.47.93,1.56,1.56,0,0,1-.81,1.42,2.24,2.24,0,0,1-1.22.4,1.71,1.71,0,0,1-1-.3l-.49-.48c-.9-.89-1.83-1.8-2.51-2.37a.89.89,0,0,0-.51-.26.31.31,0,0,0-.22.09c-.07.09-.13.24.06.5a1.85,1.85,0,0,0,.18.19l2.5,2.81a1,1,0,0,1,.06,1.2l-.09.11a2.4,2.4,0,0,1-.24.22,2,2,0,0,1-1.22.39,1.87,1.87,0,0,1-.34,0,.8.8,0,0,1-.49-.21l0,0c-.14-.14-1.4-1.43-2.44-2.3a.91.91,0,0,0-.49-.26.32.32,0,0,0-.22.1c-.21.23.1.57.23.69l2.14,2.35a.76.76,0,0,1-.08.15A1.6,1.6,0,0,1,31,31l-.29,0a4.92,4.92,0,0,1-2.08-.62,3.19,3.19,0,0,0-2.88-4.54h-.12a2.82,2.82,0,0,0-1.61-3,3.44,3.44,0,0,0-1.33-.29,2.7,2.7,0,0,0-1,.18,2.61,2.61,0,0,0-1.55-1.32A3.38,3.38,0,0,0,19,21.21a3,3,0,0,0-1.77.57,2.68,2.68,0,0,0-4-.22c-.66-.51-3.3-2.18-10.34-3.78-.35-.08-1.13-.3-1.61-.44a11,11,0,0,0-.18,1.15l1.56.37c7.2,1.6,9.58,3.26,10,3.58a2.64,2.64,0,0,0-.21,1,2.72,2.72,0,0,0,2.7,2.71,2.63,2.63,0,0,0,.49-.05,3.13,3.13,0,0,0,2,2.35,2.73,2.73,0,0,0,1,.19,2.64,2.64,0,0,0,.62-.08,2.83,2.83,0,0,0,1.67,1.57,2.92,2.92,0,0,0,1.06.22,2.29,2.29,0,0,0,.82-.15,3.19,3.19,0,0,0,5.23,1,6,6,0,0,0,2.69.8,2.83,2.83,0,0,0,.41,0A2.44,2.44,0,0,0,33,31.12a1.88,1.88,0,0,0,.12-.18,3.17,3.17,0,0,0,.86.13,2.92,2.92,0,0,0,1.74-.62,2.39,2.39,0,0,0,1-1.49v0a3.8,3.8,0,0,0,.58.06,3.29,3.29,0,0,0,1.79-.57,2.61,2.61,0,0,0,1.29-2.3,2.86,2.86,0,0,0,.58.06,3,3,0,0,0,1.68-.52,2.43,2.43,0,0,0,1.16-1.89,2.5,2.5,0,0,0-.36-1.53,69.14,69.14,0,0,1,11.1-3.48,11,11,0,0,0-.15-1.15A63.79,63.79,0,0,0,42.68,21.42ZM25.76,31.2a2.16,2.16,0,0,1-2.18-2.08c0-.1,0-.36-.24-.36a.38.38,0,0,0-.26.14,1.54,1.54,0,0,1-1.07.48,1.88,1.88,0,0,1-.7-.15c-1.24-.51-1.26-1.36-1.21-1.7a.3.3,0,0,0-.05-.26L20,27.2H19.9a.42.42,0,0,0-.22.09,1.66,1.66,0,0,1-1.64.26,2.29,2.29,0,0,1-1.42-2.65.22.22,0,0,0-.07-.21l-.12-.1-.11.11a1.69,1.69,0,1,1,.51-1.44l.05.46.25-.39a2.53,2.53,0,0,1,2-1.08,2.43,2.43,0,0,1,.74.12A1.71,1.71,0,0,1,21.05,24c0,.22.17.23.2.23a.28.28,0,0,0,.2-.1,1.7,1.7,0,0,1,1.25-.53,2.56,2.56,0,0,1,.93.22c1.6.68.88,2.71.87,2.73-.14.34-.14.49,0,.57l.07,0h0A1,1,0,0,0,24.9,27a3,3,0,0,1,.86-.19h0A2.21,2.21,0,0,1,27.94,29,2.18,2.18,0,0,1,25.76,31.2Z"/><path class="cls-1" d="M66.8,9.61v8.18H63.54V10.26c0-3.65,1.84-5.47,5.49-5.47a6,6,0,0,1,3.82,1.09,6.16,6.16,0,0,1,3.83-1c3.65,0,5.47,1.82,5.44,5.47v7.53H80.45c-1.06-.07-1.6-.58-1.6-1.6V9.66c-.07-1.33-.79-2-2.22-2s-2.16.66-2.18,2v8.13H71.21V9.61c-.08-1.33-.8-2-2.23-2S66.83,8.28,66.8,9.61Z"/><path class="cls-1" d="M97.9,11.23c.1-4.14,2.14-6.44,6.43-6.44h1V8.13l-1.5,0c-1.79,0-2.63,1.15-2.63,3v6.66H97.9Z"/><path class="cls-1" d="M123.32,8.81h-3c.11-2.48,1.36-4.12,5-4.12s5.33,1.16,5.4,3.53v4.35c0,3.54-2.13,5.11-5.59,5.35-3.07.24-5.2-1.18-5.2-4,.07-3.07,2.3-3.89,5.54-4.21,1.38-.16,2.08-.58,2.08-1.28s-.75-1.07-2.08-1.09A2,2,0,0,0,123.32,8.81Zm4.29,3.62v-1A14.19,14.19,0,0,1,125,12c-1.28.24-1.93.84-1.93,1.79a1.43,1.43,0,0,0,1.62,1.5A2.65,2.65,0,0,0,127.61,12.43Z"/><path class="cls-1" d="M144.53.71V12.25q0,5.78-6,5.73c-4-.07-5.95-2.22-5.95-6.48s1.69-6.58,5.11-6.71a4,4,0,0,1,3.65,2V2.34A4.23,4.23,0,0,1,144.53.71ZM135.9,11.35c0,2.59.84,3.9,2.68,3.9s2.76-1.31,2.76-3.9-1-3.68-2.71-3.68S136,8.88,135.9,11.35Z"/><path class="cls-1" d="M87.22,19.79h.84v17H84.85V21.86A2.79,2.79,0,0,1,87.22,19.79Z"/><path class="cls-1" d="M104.76,23.55a4,4,0,0,0-3.63,2V19.79h-.37a3.15,3.15,0,0,0-2.85,1.57V31c0,3.84,2,5.76,6,5.73s6-2.22,6-6.48S108.17,23.67,104.76,23.55Zm-1,10.46c-1.84,0-2.71-1.31-2.68-3.9s1-3.68,2.73-3.68,2.64,1.21,2.71,3.68S105.65,34,103.81,34Z"/><path class="cls-1" d="M87.86,14.57a3,3,0,0,0,2.22.75,3,3,0,0,0,1.78-.52,2.13,2.13,0,0,0,.92-1.09h3a5.78,5.78,0,0,1-2.22,3.2,6.5,6.5,0,0,1-3.62,1,7.24,7.24,0,0,1-2.66-.47,5.68,5.68,0,0,1-2-1.34A6,6,0,0,1,84,14a7.48,7.48,0,0,1-.45-2.65,7.15,7.15,0,0,1,.46-2.6,6,6,0,0,1,3.31-3.48A6.45,6.45,0,0,1,90,4.75a5.92,5.92,0,0,1,2.77.62A5.46,5.46,0,0,1,94.67,7a6.62,6.62,0,0,1,1.1,2.37A8.48,8.48,0,0,1,96,12.16H87A3.38,3.38,0,0,0,87.86,14.57ZM91.73,8a2.4,2.4,0,0,0-1.87-.67,3,3,0,0,0-1.36.27,2.77,2.77,0,0,0-.87.69,2.44,2.44,0,0,0-.46.87A3.5,3.5,0,0,0,87,10h5.57A4,4,0,0,0,91.73,8Z"/><path class="cls-1" d="M112.54,7.3a2.46,2.46,0,0,0-1.39.37,3.05,3.05,0,0,0-.91,1,4.24,4.24,0,0,0-.5,1.31,7,7,0,0,0-.15,1.43,6.71,6.71,0,0,0,.15,1.39,4.64,4.64,0,0,0,.47,1.28,2.85,2.85,0,0,0,.89.94,2.5,2.5,0,0,0,1.37.36,2.54,2.54,0,0,0,1.91-.69,3.28,3.28,0,0,0,.84-1.87h3.34a5.73,5.73,0,0,1-2,3.83,6.26,6.26,0,0,1-4.12,1.31,6.82,6.82,0,0,1-2.59-.47,5.74,5.74,0,0,1-2-1.33,5.87,5.87,0,0,1-1.29-2,7.07,7.07,0,0,1-.47-2.6,8.29,8.29,0,0,1,.43-2.72,6,6,0,0,1,1.25-2.16,5.79,5.79,0,0,1,2-1.43,6.85,6.85,0,0,1,2.73-.51,8.08,8.08,0,0,1,2.15.29,5.77,5.77,0,0,1,1.85.89,4.64,4.64,0,0,1,1.33,1.49,4.74,4.74,0,0,1,.59,2.1H115.1A2.32,2.32,0,0,0,112.54,7.3Z"/><path class="cls-1" d="M147,8.6a6,6,0,0,1,1.32-2.1,6.08,6.08,0,0,1,2-1.34,7.37,7.37,0,0,1,2.69-.47,7.44,7.44,0,0,1,2.69.47,6.07,6.07,0,0,1,2.06,1.34,5.94,5.94,0,0,1,1.31,2.1,7.68,7.68,0,0,1,.47,2.74,7.59,7.59,0,0,1-.47,2.73,5.85,5.85,0,0,1-1.31,2.08,5.77,5.77,0,0,1-2.06,1.33,7.45,7.45,0,0,1-2.69.46,7.37,7.37,0,0,1-2.69-.46,5.77,5.77,0,0,1-2-1.33A5.87,5.87,0,0,1,147,14.07a7.59,7.59,0,0,1-.46-2.73A7.68,7.68,0,0,1,147,8.6Zm3.15,4.22a3.93,3.93,0,0,0,.49,1.29,2.73,2.73,0,0,0,.94.91,2.86,2.86,0,0,0,1.47.34,2.91,2.91,0,0,0,1.47-.34,2.68,2.68,0,0,0,.95-.91,3.94,3.94,0,0,0,.5-1.29,7.29,7.29,0,0,0,.15-1.48A7.46,7.46,0,0,0,156,9.85a3.86,3.86,0,0,0-.5-1.29,2.76,2.76,0,0,0-.95-.91,2.81,2.81,0,0,0-1.47-.35,2.76,2.76,0,0,0-1.47.35,2.82,2.82,0,0,0-.94.91,3.84,3.84,0,0,0-.49,1.29,7.46,7.46,0,0,0-.15,1.49A7.29,7.29,0,0,0,150.16,12.82Z"/><path class="cls-1" d="M111.76,30.1c.09-4.14,2.14-6.44,6.42-6.44h1V27l-1.49,0c-1.79,0-2.64,1.16-2.64,3v6.66h-3.26Z"/><path class="cls-1" d="M124.24,33.44a3.07,3.07,0,0,0,2.22.75,3,3,0,0,0,1.79-.52,2.2,2.2,0,0,0,.92-1.1h3A5.68,5.68,0,0,1,130,35.78a6.56,6.56,0,0,1-3.62,1,7,7,0,0,1-2.65-.48,5.48,5.48,0,0,1-2-1.33,6,6,0,0,1-1.27-2.08,7.52,7.52,0,0,1-.45-2.65,7.42,7.42,0,0,1,.46-2.61,6.11,6.11,0,0,1,3.32-3.47,6.4,6.4,0,0,1,2.59-.51,6,6,0,0,1,2.78.62,5.55,5.55,0,0,1,1.94,1.65,6.83,6.83,0,0,1,1.1,2.36A9.13,9.13,0,0,1,132.4,31h-9A3.49,3.49,0,0,0,124.24,33.44Zm3.88-6.56a2.42,2.42,0,0,0-1.87-.68,3.09,3.09,0,0,0-1.37.28,2.5,2.5,0,0,0-.86.69,2.29,2.29,0,0,0-.46.87,4.06,4.06,0,0,0-.16.82H129A4,4,0,0,0,128.12,26.88Z"/><rect class="cls-1" x="91.52" y="19.79" width="3.22" height="2.93"/><rect class="cls-1" x="91.52" y="24.19" width="3.22" height="12.55"/></svg>