<svg id="Color_Palette" data-name="Color Palette" xmlns="http://www.w3.org/2000/svg" viewBox="0 0 76 76"><defs><style>.cls-1{fill:#ff1243;}.cls-2{fill:#005080;}</style></defs><polygon class="cls-1" points="40.09 50.46 47.47 50.46 47.47 38.77 49.94 35.08 62.86 35.69 65.24 40.31 65.32 51.08 72.81 51.26 75.79 54.77 75.79 70.77 37.63 71.39 38.24 54.77 40.09 50.46"/><g id="Outline"><path class="cls-2" d="M19.42,54.47a.93.93,0,0,0-.92.93V69.25a.92.92,0,0,0,1.84,0V55.4A.93.93,0,0,0,19.42,54.47Z"/><path class="cls-2" d="M24.69,31.12a1.69,1.69,0,0,1,2.39,0,.93.93,0,0,0,1.31-1.31,3.54,3.54,0,0,0-5,0,.92.92,0,0,0,0,1.31A.93.93,0,0,0,24.69,31.12Z"/><path class="cls-2" d="M32.08,31.12a1.69,1.69,0,0,1,2.39,0,.92.92,0,0,0,1.3-1.31,3.54,3.54,0,0,0-5,0,.93.93,0,0,0,1.31,1.31Z"/><path class="cls-2" d="M37,21.23a8,8,0,0,1-5.66-2.34A.92.92,0,1,0,30,20.17l0,0a9.82,9.82,0,0,0,7,2.89.93.93,0,0,0,0-1.85Z"/><path class="cls-2" d="M38.81,44.31a6.49,6.49,0,0,1,6.47,6.47V51l1.84,0v-.2a8.31,8.31,0,0,0-8.31-8.31H35.12v-.73a10.18,10.18,0,0,0,4.62-8.51V31.09a8.25,8.25,0,0,0,2.77-6.17,10,10,0,0,0-1-4.34.92.92,0,0,0-1.7.72l0,.08a8.06,8.06,0,0,1,.79,3.54,6.43,6.43,0,0,1-.92,3.31V25.85a.93.93,0,0,0-.93-.93H35a8.64,8.64,0,0,1-7.36-4.17.93.93,0,0,0-.92-.44l-1,.14a7.18,7.18,0,0,0-3.06,1.19.92.92,0,0,0,1,1.55l0,0A5.41,5.41,0,0,1,26,22.28l.39-.05A10.5,10.5,0,0,0,35,26.77h2.93v6.46a8.31,8.31,0,0,1-16.62,0V27.69a5.46,5.46,0,0,1,.41-2.07.92.92,0,0,0-1.7-.7,7.14,7.14,0,0,0-.56,2.77v.54a6.43,6.43,0,0,1-.92-3.31,8.32,8.32,0,0,1,8.31-8.31h5.54a8.29,8.29,0,0,1,5.51,2.09.92.92,0,1,0,1.23-1.37,10.1,10.1,0,0,0-6.74-2.57H26.81A10.17,10.17,0,0,0,16.65,24.92a8.25,8.25,0,0,0,2.77,6.17v2.14A10.16,10.16,0,0,0,24,41.74v.73h-3.7A8.32,8.32,0,0,0,12,50.78V69.25a.93.93,0,0,0,1.85,0V50.78a6.48,6.48,0,0,1,6.46-6.47h.33l3.45,7.77a.93.93,0,0,0,1.22.47,1.37,1.37,0,0,0,.2-.13l1.29-1a3.35,3.35,0,0,0,.6.53l-.74,5.16a.92.92,0,0,0,.78,1h.13a.93.93,0,0,0,.92-.79l.67-4.74a2.49,2.49,0,0,0,.77,0l1.43,10-1.81,3-1.81-3L28,61a.92.92,0,0,0-1.83-.26l-.28,1.92a.93.93,0,0,0,.13.61l2.77,4.62a.93.93,0,0,0,1.27.31,1,1,0,0,0,.31-.31l2.77-4.62a.93.93,0,0,0,.12-.61L31.73,51.92a3.35,3.35,0,0,0,.6-.53l1.29,1a.92.92,0,0,0,1.3-.14.82.82,0,0,0,.12-.2l3.45-7.77ZM25.32,50.23l-2.63-5.92H24a1,1,0,0,0,.34.73l3.72,3Zm.57-6.36V42.69a10.08,10.08,0,0,0,7.38,0v1.18l-3.69,3Zm3.69,6.91a1.84,1.84,0,0,1-1.29-.56l1.29-1,1.29,1A1.84,1.84,0,0,1,29.58,50.78Zm4.26-.55L31.06,48l3.71-3a.93.93,0,0,0,.35-.73h1.35Z"/></g><path class="cls-2" d="M16.57,39.73H13.75a1.59,1.59,0,0,1-1.59-1.59V36.57a.2.2,0,0,0-.17-.2,12,12,0,0,1-2.8-1.17.2.2,0,0,0-.23,0L7.84,36.35a1.61,1.61,0,0,1-2.25,0l-2-2a1.61,1.61,0,0,1,0-2.25L4.72,31a.19.19,0,0,0,0-.23A11.59,11.59,0,0,1,3.58,28a.22.22,0,0,0-.2-.17H1.81a1.6,1.6,0,0,1-1.6-1.59V23.38a1.6,1.6,0,0,1,1.6-1.6H3.38a.21.21,0,0,0,.2-.16,11.42,11.42,0,0,1,1.16-2.8.19.19,0,0,0,0-.23L3.59,17.46a1.61,1.61,0,0,1,0-2.25l2-2a1.58,1.58,0,0,1,2.25,0L9,14.34a.2.2,0,0,0,.23,0A12,12,0,0,1,12,13.2a.2.2,0,0,0,.17-.2V11.43a1.59,1.59,0,0,1,1.59-1.59h2.82a1.59,1.59,0,0,1,1.59,1.59V13a.19.19,0,0,0,.16.2,11.86,11.86,0,0,1,2.8,1.17.21.21,0,0,0,.24,0l1.12-1.12a1.59,1.59,0,0,1,2.25,0l.21.21a.71.71,0,0,1-1,1c-.13-.11-.29-.39-.47-.21l-1.12,1.12a1.6,1.6,0,0,1-1.93.25,10.67,10.67,0,0,0-2.47-1A1.61,1.61,0,0,1,16.75,13V11.43a.18.18,0,0,0-.18-.18H13.75a.19.19,0,0,0-.19.18V13a1.61,1.61,0,0,1-1.2,1.56,10.67,10.67,0,0,0-2.47,1A1.6,1.6,0,0,1,8,15.34L6.84,14.22a.16.16,0,0,0-.13-.06.18.18,0,0,0-.13.06l-2,2a.18.18,0,0,0,0,.13.21.21,0,0,0,0,.13l1.12,1.12A1.6,1.6,0,0,1,6,19.52a10.67,10.67,0,0,0-1,2.47,1.61,1.61,0,0,1-1.55,1.2H1.81a.18.18,0,0,0-.19.19v2.81a.19.19,0,0,0,.19.19H3.38a1.61,1.61,0,0,1,1.55,1.2,10.67,10.67,0,0,0,1,2.47A1.6,1.6,0,0,1,5.71,32L4.59,33.1a.18.18,0,0,0,0,.13.21.21,0,0,0,0,.13l2,2a.19.19,0,0,0,.26,0L8,34.23A1.6,1.6,0,0,1,9.89,34a10.67,10.67,0,0,0,2.47,1,1.61,1.61,0,0,1,1.2,1.56v1.57a.19.19,0,0,0,.19.18h2.82a.18.18,0,0,0,.18-.18V36.57A1.61,1.61,0,0,1,18,35a.7.7,0,0,1,.37,1.36.19.19,0,0,0-.16.2v1.57A1.6,1.6,0,0,1,16.57,39.73Z"/><path class="cls-2" d="M8.52,24.78a6.65,6.65,0,0,1,9-6.2A.71.71,0,0,1,17,19.9,5.22,5.22,0,1,0,15.47,30a.71.71,0,0,1,.08,1.41A6.65,6.65,0,0,1,8.52,24.78Z"/><g id="Boxes"><path class="cls-2" d="M75.38,54.6l-2.64-4a.65.65,0,0,0-.55-.3h-6V39.09a1.23,1.23,0,0,0-.12-.37l-2.64-4a.66.66,0,0,0-.55-.29H49.7a.66.66,0,0,0-.55.29l-2.65,4,0,.09a.64.64,0,0,0-.07.28V50.33h-6a.65.65,0,0,0-.55.3l-2.65,4a1.5,1.5,0,0,0-.11.36V70.84a.67.67,0,0,0,.66.66h37a.67.67,0,0,0,.67-.66V55A1.18,1.18,0,0,0,75.38,54.6Zm-1.78-.3H68.12l-.44-2.64h4.16Zm-9.35,1.33H66.9v4.71l-1-.63a.65.65,0,0,0-.73,0l-1,.63Zm2.09-4,.44,2.64h-.54V51.66ZM62.58,35.78l1.76,2.65H58.86l-.44-2.65Zm-7,0h1.53l.44,2.65H55.11Zm-.56,4h2.65v4.72l-1-.64a.65.65,0,0,0-.73,0l-1,.64Zm-4.94-4h4.16l-.44,2.65H48.29Zm-2.33,4h6v6a.67.67,0,0,0,.66.67.63.63,0,0,0,.37-.12l1.61-1.07,1.62,1.07a.66.66,0,0,0,.92-.18A.7.7,0,0,0,59,45.7v-6h5.95V54.3H47.72Zm-2,15.88h2.65v4.71l-1-.63a.65.65,0,0,0-.73,0l-1,.63Zm.66-4V54.3h-.54l.44-2.64Zm-5.6,0H45l-.44,2.64H39Zm-2.33,4h5.95v5.95a.67.67,0,0,0,.66.66.7.7,0,0,0,.37-.11l1.61-1.08,1.62,1.08a.66.66,0,0,0,.92-.19.64.64,0,0,0,.11-.36V55.63h5.95V70.18H38.46ZM74.17,70.18H57V55.63h6v5.95a.66.66,0,0,0,.66.66.7.7,0,0,0,.37-.11l1.61-1.08,1.62,1.08a.66.66,0,0,0,.92-.19.64.64,0,0,0,.11-.36V55.63h6Z"/></g></svg>