<svg id="Color_Palette" data-name="Color Palette" xmlns="http://www.w3.org/2000/svg" viewBox="0 0 76.26 76.26"><defs><style>.cls-1{fill:#ff1243;}.cls-2{fill:#005080;}</style></defs><rect class="cls-1" x="33.26" y="59.62" width="30" height="15"/><rect class="cls-1" x="49.26" y="44.62" width="14" height="16"/><path class="cls-2" d="M75.63,21.78,38.77.17a1.27,1.27,0,0,0-1.25,0L.66,20.49A1.27,1.27,0,0,0,0,21.61V75a1.27,1.27,0,0,0,1.27,1.27H7.63A1.27,1.27,0,0,0,8.9,75V30.5H67.36V75a1.27,1.27,0,0,0,1.27,1.27H75A1.27,1.27,0,0,0,76.26,75V22.88A1.28,1.28,0,0,0,75.63,21.78ZM73.72,73.72H69.91V29.23A1.27,1.27,0,0,0,68.63,28h-61a1.27,1.27,0,0,0-1.28,1.27V73.72H2.54V22.36L38.11,2.73,73.72,23.61V73.72Z"/><path class="cls-2" d="M63.55,58.47H48.3A1.27,1.27,0,0,0,47,59.74V75a1.27,1.27,0,0,0,1.27,1.27H63.55A1.27,1.27,0,0,0,64.82,75V59.74A1.27,1.27,0,0,0,63.55,58.47ZM62.28,73.72H49.57V61H62.28Z"/><path class="cls-2" d="M57.2,59.74v3.81H54.65V59.74H52.11v5.08a1.27,1.27,0,0,0,1.27,1.27h5.09a1.27,1.27,0,0,0,1.27-1.27V59.74Z"/><path class="cls-2" d="M48.3,58.47H33.05a1.26,1.26,0,0,0-1.27,1.27V75a1.27,1.27,0,0,0,1.27,1.27H48.3A1.27,1.27,0,0,0,49.57,75V59.74A1.27,1.27,0,0,0,48.3,58.47ZM47,73.72H34.32V61H47Z"/><path class="cls-2" d="M41.94,59.74v3.81H39.4V59.74H36.86v5.08a1.27,1.27,0,0,0,1.27,1.27h5.08a1.27,1.27,0,0,0,1.28-1.27V59.74Z"/><path class="cls-2" d="M63.55,43.21H48.3A1.27,1.27,0,0,0,47,44.48V59.74A1.27,1.27,0,0,0,48.3,61H63.55a1.27,1.27,0,0,0,1.27-1.27V44.48A1.27,1.27,0,0,0,63.55,43.21ZM62.28,58.47H49.57V45.76H62.28Z"/><path class="cls-2" d="M57.2,44.48V48.3H54.65V44.48H52.11v5.09a1.27,1.27,0,0,0,1.27,1.27h5.09a1.27,1.27,0,0,0,1.27-1.27V44.48Z"/><rect class="cls-2" x="7.63" y="38.13" width="61.01" height="2.54"/><rect class="cls-2" x="7.63" y="33.05" width="61.01" height="2.54"/><path class="cls-2" d="M44.49,17.79H31.78a1.27,1.27,0,0,0-1.28,1.27v5.09a1.27,1.27,0,0,0,1.28,1.27H44.49a1.27,1.27,0,0,0,1.27-1.27V19.06A1.27,1.27,0,0,0,44.49,17.79Zm-1.28,5.09H33.05V20.34H43.21Z"/></svg>