<svg id="Color_Palette" data-name="Color Palette" xmlns="http://www.w3.org/2000/svg" viewBox="0 0 76 76"><defs><style>.cls-1{fill:#005080;}.cls-2{fill:#ff1243;}</style></defs><path class="cls-1" d="M59.22,36.76v-.39a.8.8,0,1,0-1.6,0v.39a.8.8,0,1,0,1.6,0Z"/><path class="cls-1" d="M53.43,39.63a.8.8,0,0,0,0-1.13l-.28-.28A.81.81,0,0,0,52,39.36l.28.27A.8.8,0,0,0,53.43,39.63Z"/><path class="cls-1" d="M51.36,44.63a.8.8,0,0,0-.81-.8h-.39a.8.8,0,1,0,0,1.6h.39A.8.8,0,0,0,51.36,44.63Z"/><path class="cls-1" d="M65.48,44.63a.8.8,0,0,0,.81.8h.39a.8.8,0,1,0,0-1.6h-.39A.8.8,0,0,0,65.48,44.63Z"/><path class="cls-1" d="M63.42,49.62a.8.8,0,0,0,0,1.14l.27.28a.81.81,0,0,0,1.14-1.14l-.28-.28A.8.8,0,0,0,63.42,49.62Z"/><path class="cls-1" d="M63.41,38.5a.8.8,0,0,0,1.14,1.13l.28-.27a.81.81,0,0,0-1.14-1.14Z"/><path class="cls-1" d="M59.22,44.63V40.1a.8.8,0,0,0-1.6,0v3.73H56.08a.8.8,0,0,0,0,1.6h2.34A.8.8,0,0,0,59.22,44.63Z"/><path class="cls-1" d="M62.33,54.44A10.55,10.55,0,1,0,48.5,48.27H46.82a11.75,11.75,0,0,1-.56-3.65A12.16,12.16,0,1,1,62.31,56.15C62.32,55.58,62.32,55,62.33,54.44Z"/><path class="cls-1" d="M67.11,33.11a14.25,14.25,0,0,0-8.69-2.91,14.43,14.43,0,0,0-14,18.12H42.82a15.87,15.87,0,0,1-.44-3.7,16.06,16.06,0,0,1,16-16,15.88,15.88,0,0,1,9.66,3.24.8.8,0,1,1-1,1.28Z"/><path class="cls-1" d="M62.42,58.79a2.7,2.7,0,0,1,0-.28,14.44,14.44,0,0,0,6.95-23.33.8.8,0,1,1,1.21-1,16,16,0,0,1-7.94,26C62.55,59.67,62.48,59.23,62.42,58.79Z"/><path class="cls-2" d="M11.14,41.7V62.4s9-.9,10.8,9H42.65s.9-9,9.9-9V41.7Z"/><g id="Line_stroke_cut_Ex" data-name="Line stroke cut Ex"><path class="cls-1" d="M26.28,19.81h2.27v2.27H26.28Z"/><path class="cls-1" d="M35.38,19.81h2.27v2.27H35.38Z"/><path class="cls-1" d="M32,30c1.91,0,3.41-1.25,3.41-2.84H33.1c0,.2-.43.57-1.13.57s-1.14-.37-1.14-.57H28.55C28.55,28.79,30.05,30,32,30Z"/><path class="cls-1" d="M61,52.89l-4.33-4.33L55,50.17l4.32,4.33a7.3,7.3,0,0,1,2.16,5.22v7a3.12,3.12,0,0,1-3.12,3.12H55.84V64.15h2.27V61.87H53.57V41.41a1.14,1.14,0,0,0-1.14-1.14H46.26l-6.48-4.12-.94-3.77.4-.2a5.38,5.38,0,0,0,3-4.82v-.73h.57a4,4,0,0,0,4-4V21.52a4,4,0,0,0-3.9-4,4,4,0,0,0,.48-1.9v-3.5a8.26,8.26,0,0,0-8.24-8.25H28.84a8.26,8.26,0,0,0-8.24,8.25v3.5a4,4,0,0,0,.48,1.9,4,4,0,0,0-3.89,4v1.13a4,4,0,0,0,4,4h.56v.78a5.39,5.39,0,0,0,3,4.83l.36.18-.93,3.73-6.48,4.12H11.5a1.14,1.14,0,0,0-1.14,1.14v4.08L6.15,49.7l1.61,1.61,2.6-2.61V61.87H5.82v2.28H8.09v5.68H5.53a3.12,3.12,0,0,1-3.12-3.12v-7A7.3,7.3,0,0,1,4.57,54.5l.91-.92L3.88,52,3,52.89A9.62,9.62,0,0,0,.13,59.72v7a5.42,5.42,0,0,0,5.4,5.4H58.4a5.42,5.42,0,0,0,5.4-5.4v-7A9.58,9.58,0,0,0,61,52.89ZM28.55,42.55h6.83v8H28.55ZM37,40.27l2-2,3.08,2ZM23.77,17.14a1.66,1.66,0,0,1-.9-1.5v-.85L27,12.5a10.15,10.15,0,0,1,9.93,0l4.13,2.29v.85a1.7,1.7,0,0,1-2.65,1.41l-2.66-1.77a6.82,6.82,0,0,0-7.57,0l-2.66,1.77a1.67,1.67,0,0,1-1.75.09Zm20.7,4.38v1.13a1.71,1.71,0,0,1-1.7,1.71H42.2V19.81h.57A1.7,1.7,0,0,1,44.47,21.52ZM28.84,6.17h6.25a6,6,0,0,1,6,6v0l-3-1.68a12.45,12.45,0,0,0-12.15,0l-3,1.68v0A6,6,0,0,1,28.84,6.17ZM21.17,24.36a1.71,1.71,0,0,1-1.71-1.71V21.52a1.7,1.7,0,0,1,1.71-1.71h.56v4.55ZM24,27.41V19.58A4,4,0,0,0,26.78,19l2.66-1.78a4.55,4.55,0,0,1,5.05,0L37.15,19a3.92,3.92,0,0,0,2.77.62v7.79a3.1,3.1,0,0,1-1.71,2.79l-5.48,2.78a1.74,1.74,0,0,1-1.54,0L25.74,30.2A3.08,3.08,0,0,1,24,27.41ZM30.18,35a4,4,0,0,0,3.58,0l3-1.52.77,3.08-3.76,3.75H30.16L26.4,36.51l.77-3ZM25,38.31l2,2H21.9ZM12.64,42.55H26.28v9.09a1.14,1.14,0,0,0,1.14,1.14h9.09a1.14,1.14,0,0,0,1.14-1.14V42.55H51.29V61.87H50.16a9.12,9.12,0,0,0-9,8H37.65V64.15A1.14,1.14,0,0,0,36.51,63H27.42a1.14,1.14,0,0,0-1.14,1.14v5.68H22.8a9.12,9.12,0,0,0-9-8H12.64ZM10.36,69.83V64.15h3.42a6.82,6.82,0,0,1,6.72,5.68Zm18.19,0V65.29h6.83v4.54Zm25,0H43.43a6.83,6.83,0,0,1,6.73-5.68h3.41Z"/><path class="cls-1" d="M14.91,44.82h2.28V47.1H14.91Z"/><path class="cls-1" d="M19.46,44.82H24V47.1H19.46Z"/><path class="cls-1" d="M14.91,49.37H24v2.27h-9.1Z"/></g></svg>