<svg id="Color_Palette" data-name="Color Palette" xmlns="http://www.w3.org/2000/svg" viewBox="0 0 142.34 40.66"><defs><style>.cls-1{fill:#c5c8c9;}</style></defs><path class="cls-1" d="M30.23,7.41,27,7.17s-2.12-2.1-2.35-2.34a.63.63,0,0,0-.33-.15l-1.71,35,12.27-2.65S30.6,7.93,30.58,7.73A.39.39,0,0,0,30.23,7.41Z"/><path class="cls-1" d="M30.58,7.73a.39.39,0,0,0-.35-.32L27,7.17s-2.12-2.1-2.35-2.34a1,1,0,0,0-.86-.11l-1.19.37c-.71-2-2-3.91-4.15-3.91h-.19A2.66,2.66,0,0,0,16.22,0C11.1,0,8.66,6.4,7.89,9.65L4.31,10.76c-1.11.35-1.15.39-1.29,1.43-.11.8-3,23.27-3,23.27L22.64,39.7l12.27-2.65S30.6,7.93,30.58,7.73ZM18.12,6.26v.22l-4,1.23c.76-2.94,2.19-4.36,3.43-4.9A9.39,9.39,0,0,1,18.12,6.26Zm-2-4.89a1.21,1.21,0,0,1,.66.22c-1.64.78-3.4,2.72-4.14,6.61l-3.13,1C10.34,6.2,12.41,1.37,16.08,1.37ZM17,18.69A6.91,6.91,0,0,0,14,18c-2.38,0-2.5,1.49-2.5,1.87,0,2,5.36,2.84,5.36,7.66,0,3.78-2.4,6.22-5.64,6.22a7.86,7.86,0,0,1-5.88-2.42L6.4,27.87s2,1.76,3.76,1.76a1.52,1.52,0,0,0,1.59-1.54c0-2.68-4.4-2.8-4.4-7.2,0-3.71,2.66-7.3,8-7.3a6.6,6.6,0,0,1,3.1.6ZM19.47,6.07V5.66A9.48,9.48,0,0,0,19,2.56C20.14,2.7,20.9,4,21.38,5.48Z"/><path id="s" class="cls-1" d="M49.21,22.62c-1.22-.66-1.85-1.22-1.85-2,0-1,.87-1.61,2.24-1.61a7.94,7.94,0,0,1,3,.67l1.12-3.43s-1-.8-4-.8c-4.22,0-7.14,2.41-7.14,5.8,0,1.92,1.37,3.39,3.18,4.44,1.47.84,2,1.43,2,2.3s-.74,1.65-2.1,1.65a9.42,9.42,0,0,1-4-1L40.47,32a9.09,9.09,0,0,0,4.76,1.19c4.33,0,7.44-2.13,7.44-6C52.67,25.17,51.1,23.71,49.21,22.62Z"/><path id="h" class="cls-1" d="M66.48,15.42A6.51,6.51,0,0,0,61.38,18l-.07,0,1.85-9.69H58.33L53.65,32.9h4.82l1.61-8.43c.63-3.18,2.27-5.13,3.81-5.13,1.09,0,1.51.73,1.51,1.78a11,11,0,0,1-.21,2.13L63.37,32.9h4.82l1.89-10a18,18,0,0,0,.35-3.15C70.43,17.06,69,15.42,66.48,15.42Z"/><path id="o" class="cls-1" d="M81.34,15.42c-5.81,0-9.65,5.24-9.65,11.08,0,3.74,2.31,6.75,6.64,6.75,5.7,0,9.54-5.11,9.54-11.08C87.87,18.71,85.85,15.42,81.34,15.42ZM79,29.54c-1.64,0-2.34-1.4-2.34-3.14,0-2.76,1.43-7.27,4-7.27,1.72,0,2.27,1.46,2.27,2.9C82.94,25,81.51,29.54,79,29.54Z"/><path id="p" class="cls-1" d="M100.21,15.42a6.6,6.6,0,0,0-5.1,2.87H95l.28-2.59H91.06c-.21,1.75-.6,4.4-1,6.4L86.72,39.75h4.82l1.33-7.13H93a5.61,5.61,0,0,0,2.83.63c5.66,0,9.37-5.8,9.37-11.68C105.18,18.32,103.74,15.42,100.21,15.42ZM95.6,29.61a3.06,3.06,0,0,1-2-.7l.8-4.51c.56-3,2.13-5,3.81-5,1.47,0,1.92,1.36,1.92,2.65C100.14,25.17,98.29,29.61,95.6,29.61Z"/><path id="dot" class="cls-1" d="M112.06,8.5a2.76,2.76,0,0,0-2.76,2.8,2.23,2.23,0,0,0,2.28,2.41h.07a2.73,2.73,0,0,0,2.83-2.8A2.3,2.3,0,0,0,112.06,8.5Z"/><polygon id="i" class="cls-1" points="105.32 32.9 110.14 32.9 113.43 15.8 108.57 15.8 105.32 32.9"/><path id="f" class="cls-1" d="M125.7,15.77h-3.36l.18-.8c.28-1.65,1.25-3.12,2.86-3.12a4.94,4.94,0,0,1,1.54.25l.94-3.78a6.3,6.3,0,0,0-2.62-.42,7.18,7.18,0,0,0-4.72,1.61A9.16,9.16,0,0,0,117.73,15l-.14.8h-2.24l-.7,3.64h2.24L114.34,32.9h4.82l2.55-13.49H125Z"/><path id="y" class="cls-1" d="M137.3,15.8s-3,7.6-4.37,11.75h-.07c-.09-1.33-1.18-11.75-1.18-11.75h-5.07l2.9,15.7a1,1,0,0,1-.11.8,8.22,8.22,0,0,1-2.62,2.91,10.51,10.51,0,0,1-2.73,1.36l1.33,4.09A11,11,0,0,0,130.1,38c2.2-2.06,4.23-5.25,6.33-9.58l5.91-12.66Z"/></svg>