<svg xmlns="http://www.w3.org/2000/svg" viewBox="0 0 25.8 25.8"><defs><style>.cls-1{fill:#fc0f42;}.cls-2{fill:#005080;}</style></defs><g id="Salidas"><path class="cls-1" d="M14.24,7.79H9a.18.18,0,0,0-.1,0l-1.7,1.7a.15.15,0,0,0,0,.1v3.53a.14.14,0,0,0,.14.14h5.23a.18.18,0,0,0,.1,0l1.69-1.7a.12.12,0,0,0,.05-.1V7.92A.15.15,0,0,0,14.24,7.79Z"/><path class="cls-2" d="M23.62,11.81,23,9.19a.41.41,0,0,0,.32-.39V8.38a1.66,1.66,0,0,0-1.67-1.66h-3V5.85A.82.82,0,0,0,17.81,5H2.6a.82.82,0,0,0-.81.82V13a.38.38,0,0,0,.39.39.39.39,0,0,0,.4-.39V5.85s0,0,0,0H17.81a0,0,0,0,1,0,0V13a.4.4,0,0,0,.79,0v-.45h4.68a1.3,1.3,0,0,1,1.23.9H23.3a.39.39,0,0,0-.39.39v.85A1.25,1.25,0,0,0,24.15,16h.45V17.7h-1a2.51,2.51,0,0,0-4.74,0h-.19v-3a.4.4,0,1,0-.79,0v3H9.62a2.51,2.51,0,0,0-4.74,0H2.6a0,0,0,0,1,0,0V16.8H4.29a.39.39,0,0,0,.4-.39.4.4,0,0,0-.4-.4H.49a.39.39,0,0,0-.39.4.38.38,0,0,0,.39.39h1.3v.88a.81.81,0,0,0,.81.81H4.74v0a2.51,2.51,0,0,0,5,0v0h8.92v0a2.51,2.51,0,0,0,5,0v0H25a.39.39,0,0,0,.4-.39V13.87A2.09,2.09,0,0,0,23.62,11.81Zm-5-4.3h3a.87.87,0,0,1,.88.87v0H18.63Zm0,4.28V9.2h3.52l.65,2.59ZM7.25,20.24A1.72,1.72,0,1,1,9,18.52,1.72,1.72,0,0,1,7.25,20.24Zm13.94,0a1.72,1.72,0,1,1,1.72-1.72A1.72,1.72,0,0,1,21.19,20.24Zm3.41-5.07h-.45a.45.45,0,0,1-.45-.45v-.45h.9v.9Z"/><path class="cls-2" d="M25.36,16H19.44a.39.39,0,0,0-.39.4.38.38,0,0,0,.39.39h5.92a.38.38,0,0,0,.39-.39A.39.39,0,0,0,25.36,16Z"/><path class="cls-2" d="M15.22,14.32H10.15a.4.4,0,0,0-.4.4.39.39,0,0,0,.4.39h5.07a.38.38,0,0,0,.39-.39A.39.39,0,0,0,15.22,14.32Z"/><path class="cls-2" d="M14.24,7.79H9a.18.18,0,0,0-.1,0l-1.7,1.7a.15.15,0,0,0,0,.1v3.53a.14.14,0,0,0,.14.14h5.23a.18.18,0,0,0,.1,0l1.69-1.7a.12.12,0,0,0,.05-.1V7.92A.15.15,0,0,0,14.24,7.79Zm-3.53.27H12L10.55,9.52a.15.15,0,0,0,0,.1v1.29l-.2-.14a.15.15,0,0,0-.16,0L9.81,11l-.35-.23-.08,0-.08,0-.2.14V9.68ZM9,8.06h1.29L8.9,9.48H7.61ZM12.35,13H7.41V9.76H8.82v1.41a.17.17,0,0,0,.07.13.16.16,0,0,0,.15,0l.34-.23.35.23a.14.14,0,0,0,.15,0l.35-.23.35.23.07,0h.07a.15.15,0,0,0,.07-.13V9.76h1.56Zm.08-3.53H11l1.42-1.42h1.43ZM14,11.4l-1.41,1.41V9.68L14,8.26Z"/></g></svg>