<svg id="Color_Palette" data-name="Color Palette" xmlns="http://www.w3.org/2000/svg" viewBox="0 0 76 76"><defs><style>.cls-1{fill:#ff1243;fill-rule:evenodd;}.cls-2{fill:#005080;}</style></defs><polygon class="cls-1" points="20.06 20.5 20.06 46.5 2.06 47.5 2.06 75.5 69.06 74.5 70.06 47.5 51.06 46.5 52.06 21.5 20.06 20.5"/><path class="cls-2" d="M69.45,46.47H53.73V41.59c.4,0,.8,0,1.21,0A20.57,20.57,0,1,0,37.56,10.05l-3.8-2.14A1.21,1.21,0,0,0,32,9.39l3.63,9.68a1.21,1.21,0,0,0,1.42.75l9.68-2.42a1.21,1.21,0,0,0,.32-2.22l-3-1.78a13.3,13.3,0,1,1,10.88,21,12.1,12.1,0,0,1-1.21-.06V21.06a1.21,1.21,0,0,0-1.21-1.21H18.65a1.21,1.21,0,0,0-1.21,1.21V46.47H1.71A1.21,1.21,0,0,0,.5,47.68V74.29A1.21,1.21,0,0,0,1.71,75.5H69.45a1.21,1.21,0,0,0,1.21-1.21V47.68a1.21,1.21,0,0,0-1.21-1.21ZM48.89,48.89h7.26v7.26H48.89Zm6-12.1A15.73,15.73,0,1,0,41.31,13.2a1.22,1.22,0,0,0,.44,1.65l1.56.92-5.77,1.44-2.08-5.56,1.94,1.09a1.22,1.22,0,0,0,1.66-.47A18.15,18.15,0,1,1,54.94,39.21c-.41,0-.81,0-1.21,0V36.74c.4,0,.8,0,1.21,0ZM32,22.27h7.26v7.26H32Zm-12.1,0h9.68v8.47A1.21,1.21,0,0,0,30.74,32h9.68a1.21,1.21,0,0,0,1.21-1.21V22.27h9.68v24.2H19.85ZM15,48.89h7.25v7.26H15Zm-12.1,0H12.6v8.46a1.21,1.21,0,0,0,1.21,1.21h9.67a1.21,1.21,0,0,0,1.21-1.21V48.89h9.68V73.08H2.92ZM68.24,73.08H36.79V48.89h9.68v8.46a1.21,1.21,0,0,0,1.21,1.21h9.67a1.21,1.21,0,0,0,1.21-1.21V48.89h9.68Z"/></svg>