<svg xmlns="http://www.w3.org/2000/svg" viewBox="0 0 25.8 25.8"><defs><style>.cls-1{fill:#fc0f42;}.cls-2{fill:#005080;}</style></defs><g id="Salidas"><path class="cls-1" d="M11.54,8l1-1a3.21,3.21,0,0,0,.89-2.24A.4.4,0,0,0,13,4.41h0a3.14,3.14,0,0,0-2.26.94l-.95,1L6.17,5.2a.4.4,0,0,0-.39.1L5,6.08a.4.4,0,0,0-.11.34.37.37,0,0,0,.22.28L8.1,8l-.61.61L6.15,8.3a.42.42,0,0,0-.37.1L5,9.18a.35.35,0,0,0-.11.32.4.4,0,0,0,.18.29L6.94,10.9l1.11,1.86a.38.38,0,0,0,.29.18h0a.41.41,0,0,0,.28-.11l.77-.78a.37.37,0,0,0,.11-.36L9.2,10.35l.61-.6,1.27,3a.37.37,0,0,0,.28.22h.08a.41.41,0,0,0,.26-.09l.82-.73a.37.37,0,0,0,.11-.4Z"/><path class="cls-2" d="M23,9.71A11.45,11.45,0,0,0,1.14,16.55l.74-.23A10.68,10.68,0,0,1,17,3.67a10.68,10.68,0,0,1-1.76,19.65A10.71,10.71,0,0,1,3.12,18.94l-.65.42a11.48,11.48,0,0,0,9.62,5.22A11.45,11.45,0,0,0,23,9.71Z"/><path class="cls-2" d="M9.82,7.11l.23-.74L6.17,5.2a.4.4,0,0,0-.39.1L5,6.08a.4.4,0,0,0-.11.34.37.37,0,0,0,.22.28L8.61,8.26l.32-.71L6,6.22,6.17,6Z"/><path class="cls-2" d="M13.43,4.8A.4.4,0,0,0,13,4.41h0a3.14,3.14,0,0,0-2.26.94L7.49,8.64,6.15,8.3a.42.42,0,0,0-.37.1L5,9.18a.35.35,0,0,0-.11.32.4.4,0,0,0,.18.29L6.94,10.9l1.11,1.86a.38.38,0,0,0,.29.18h0a.41.41,0,0,0,.28-.11l.77-.78a.37.37,0,0,0,.11-.36L9.2,10.35,12.54,7A3.21,3.21,0,0,0,13.43,4.8ZM8.5,10a.37.37,0,0,0-.1.37l.33,1.34-.27.27-.91-1.51a.44.44,0,0,0-.13-.14l-1.51-.9.27-.27,1.33.33a.38.38,0,0,0,.37-.1L11.33,5.9a2.39,2.39,0,0,1,1.29-.68A2.46,2.46,0,0,1,12,6.5Z"/><path class="cls-2" d="M12.63,11.72,11.47,7.79,10.73,8l1.09,3.69-.24.21-1.29-3-.71.31,1.5,3.49a.37.37,0,0,0,.28.22h.08a.41.41,0,0,0,.26-.09l.82-.73A.37.37,0,0,0,12.63,11.72Z"/><path class="cls-2" d="M8,23.07c-2.76,1.31-4.93,1.47-5.95.46-1.75-1.76.16-6.87,4.45-11.89l-.59-.5C1.21,16.64-.6,22,1.52,24.08A3.34,3.34,0,0,0,4,25a10.7,10.7,0,0,0,4.36-1.19Z"/><path class="cls-2" d="M21.14,15.09a.39.39,0,0,0-.34-.21H19.48l-1.05-2.11a.39.39,0,0,0-.35-.21H14.2a.39.39,0,0,0-.39.38v3.11a.39.39,0,0,0,.39.38h1.17V20.7a.38.38,0,0,0,.38.39h1.94A.38.38,0,0,0,18,21l1.55-1.55a.39.39,0,0,0,.11-.27V17.72l1.49-2.23A.38.38,0,0,0,21.14,15.09Zm-2.22,2.29a.43.43,0,0,0-.06.22V19l-1.33,1.32H16.14V16.05a.38.38,0,0,0-.39-.39H14.59V13.33h3.25l1.06,2.11a.37.37,0,0,0,.34.22h.83Z"/><path class="cls-2" d="M21.41,11.78,20,9.26a.39.39,0,0,0-.34-.19H17.3a.39.39,0,0,0-.32.17l-.66,1h-1V8.29H17.3a.39.39,0,0,0,.28-.11L19,6.74H20.8V6H18.86a.36.36,0,0,0-.28.12L17.14,7.51H15a.39.39,0,0,0-.39.39v2.72A.38.38,0,0,0,15,11h1.55a.37.37,0,0,0,.32-.17l.66-1h1.9l1.44,2.52a.38.38,0,0,0,.33.2h1.55v-.78Z"/><path class="cls-2" d="M11.87,15.66H9.71L8.66,14.61a.39.39,0,0,0-.28-.11H6.44a.38.38,0,0,0-.38.38V17.6a.39.39,0,0,0,.38.39H8v3.87a.38.38,0,0,0,.21.35.35.35,0,0,0,.17,0,.4.4,0,0,0,.24-.07L10.17,21a.37.37,0,0,0,.15-.31v-1l1.8-1.43a.39.39,0,0,0,.14-.3V16.05A.38.38,0,0,0,11.87,15.66Zm-.38,2.14-1.8,1.43a.41.41,0,0,0-.14.31v1l-.78.58V17.6a.38.38,0,0,0-.39-.39H6.83V15.27H8.22l1,1.05a.41.41,0,0,0,.28.11h1.94V17.8Z"/><path class="cls-2" d="M4.06,10,2.9,8.09a.39.39,0,0,0-.33-.19H2.18v.78h.17l.89,1.49-1,.95a.39.39,0,0,0-.11.27v1.17H1v.77H2.57A.38.38,0,0,0,3,12.94V11.55L4,10.5A.38.38,0,0,0,4.06,10Z"/><path class="cls-2" d="M12.65,2.08v.48l-1.26.31a.34.34,0,0,0-.12.06l-1,.65L8.17,2.51l-.35.7,2.33,1.16a.33.33,0,0,0,.17,0,.43.43,0,0,0,.22-.06l1.11-.74,1.48-.37a.41.41,0,0,0,.3-.38V2.08Z"/><rect class="cls-1" x="17" y="16.38" width="7.16" height="7.16"/><path class="cls-1" d="M19.91,18.52l.7-.43a.45.45,0,0,1,.45,0l.7.43v-1.9H19.91Z"/><path class="cls-2" d="M24.58,15.77H17.09a.43.43,0,0,0-.43.43v7.48a.43.43,0,0,0,.43.43h7.49a.43.43,0,0,0,.43-.43V16.2A.43.43,0,0,0,24.58,15.77Zm-4.67.85h1.85v1.9l-.7-.43a.45.45,0,0,0-.45,0l-.7.43Zm4.24,6.63H17.52V16.62h1.53v2.67a.43.43,0,0,0,.22.37.41.41,0,0,0,.44,0L20.83,19l1.13.69a.39.39,0,0,0,.23.07.42.42,0,0,0,.21-.06.43.43,0,0,0,.22-.37V16.62h1.53Z"/></g></svg>