<svg xmlns="http://www.w3.org/2000/svg" viewBox="0 0 25.87 25.87"><defs><style>.cls-1{fill:#fc0f42;}.cls-2{fill:#005080;}</style></defs><g id="Salidas"><path class="cls-1" d="M7.93,7.22a5.88,5.88,0,1,1,11.75,0v.23a5.85,5.85,0,0,1-.95,3.2l-4,6.12a1.12,1.12,0,0,1-1.89,0l-4-6.12a5.85,5.85,0,0,1-1-3.2Z"/><path class="cls-2" d="M13.74,11.09a4,4,0,1,0-4-4A4,4,0,0,0,13.74,11.09Zm0-7.25a3.23,3.23,0,1,1-3.22,3.22A3.23,3.23,0,0,1,13.74,3.84Z"/><path class="cls-2" d="M24.06,17.14l-2,2H18.58v-.81h1l1.8-2.7V13.92H19.19L18.11,12.4l1-1.6a6.44,6.44,0,0,0,1-3.52V7.06a6.45,6.45,0,0,0-12.9,0v.22a6.53,6.53,0,0,0,.74,3H6.59L3,8.27H.43v2.92l.81,1.61v2.45l.81,1.21v1.21l1,1.44,1.46.36v.59l1,1.92H7.29V19L4.06,14.2v-.92l.39-.39,5.26,6v2.53l7.64,3.39,1.18-.39,1.95,1.17h2.13v-1.3l-.4-.81v-.71h2.42V21.67l.8-1.61V17.14ZM8.1,7.06a5.65,5.65,0,0,1,11.29,0v.22a5.62,5.62,0,0,1-.92,3.08l-3.82,5.89a1.09,1.09,0,0,1-1.82,0L9,10.36A5.61,5.61,0,0,1,8.1,7.28ZM24.63,19.87l-.81,1.61V22H21.4v1.71l.41.81v.3h-1.1l-2.08-1.24L17.39,24l-6.87-3.06V18.6l-6-6.89L3.26,12.94v1.5l3.22,4.84v1.89H5.93l-.66-1.3v-1L3.51,18.4l-.66-1V16.21L2.05,15V12.61L1.24,11V9.08H2.75l3.63,2H8.52l3.64,5.6a1.89,1.89,0,0,0,3.17,0l2.31-3.56,1.14,1.59H20.6v.69l-1.43,2.14h-1.4V20h4.61l2-2h.24Z"/></g></svg>