<svg id="Color_Palette" data-name="Color Palette" xmlns="http://www.w3.org/2000/svg" viewBox="0 0 24.15 24.15"><defs><style>.cls-1{fill:#fff;}</style></defs><path class="cls-1" d="M12.07,24.15A12.08,12.08,0,1,1,24.15,12.07,12.09,12.09,0,0,1,12.07,24.15Zm0-23.23A11.16,11.16,0,1,0,23.23,12.07,11.16,11.16,0,0,0,12.07.92Z"/><path class="cls-1" d="M5.88,16A7.23,7.23,0,0,0,17,9.55a5.27,5.27,0,0,0,1.26-1.32,4.71,4.71,0,0,1-1.46.4,2.52,2.52,0,0,0,1.12-1.4,5.23,5.23,0,0,1-1.61.62A2.54,2.54,0,0,0,12,10.16,7.16,7.16,0,0,1,6.75,7.51a2.54,2.54,0,0,0,.78,3.39,2.51,2.51,0,0,1-1.15-.32,2.53,2.53,0,0,0,2,2.52,2.61,2.61,0,0,1-1.15.05,2.53,2.53,0,0,0,2.37,1.76A5.07,5.07,0,0,1,5.88,16Z"/></svg>