<svg xmlns="http://www.w3.org/2000/svg" viewBox="0 0 25.8 25.8"><defs><style>.cls-1{fill:#fc0f42;}.cls-2{fill:#005080;}</style></defs><g id="Salidas"><path class="cls-1" d="M8.66,3s1.94,1.13,1.91,4.51,0,14.59,0,14.59h9.34l3.74-3.74V2.49Z"/><path class="cls-2" d="M6.36,2.49c-2.62,0-4.67,1.43-4.67,3.27S3.74,9,6.36,9,11,7.59,11,5.76,9,2.49,6.36,2.49Zm0,5.6c-2,0-3.73-1.07-3.73-2.33S4.34,3.42,6.36,3.42,10.1,4.49,10.1,5.76,8.39,8.09,6.36,8.09Z"/><path class="cls-2" d="M6.36,4.36c-1,0-1.86.61-1.86,1.4s.82,1.4,1.86,1.4,1.87-.62,1.87-1.4S7.41,4.36,6.36,4.36Zm0,1.86c-.56,0-.93-.28-.93-.46s.37-.47.93-.47.94.28.94.47S6.93,6.22,6.36,6.22Z"/><path class="cls-2" d="M10.57,5.29a.47.47,0,0,0-.47.47V21.63C10.1,22.9,8.39,24,6.36,24S2.63,22.9,2.63,21.63V5.76a.47.47,0,0,0-.94,0V21.63c0,1.83,2.05,3.27,4.67,3.27S11,23.46,11,21.63V5.76A.47.47,0,0,0,10.57,5.29Z"/><path class="cls-2" d="M24,17.57a.45.45,0,0,0-.66,0l-3.6,3.59H10.57a.47.47,0,0,0,0,.94H19.9a.44.44,0,0,0,.33-.14L24,18.23A.47.47,0,0,0,24,17.57Z"/><path class="cls-2" d="M23.64,2.49H6.36a.47.47,0,0,0,0,.93H23.17v14H19.9a.47.47,0,0,0-.46.47v3.73a.47.47,0,1,0,.93,0V18.36h3.27a.47.47,0,0,0,.47-.46V3A.47.47,0,0,0,23.64,2.49Z"/></g></svg>