<svg id="Color_Palette" data-name="Color Palette" xmlns="http://www.w3.org/2000/svg" viewBox="0 0 76 76"><defs><style>.cls-1{fill:#005080;}.cls-2{fill:#ff1243;}</style></defs><path class="cls-1" d="M62.19,1.14H13.82A6.92,6.92,0,0,0,6.91,8.05c0,68,0,65.83.07,66.06a1.15,1.15,0,0,0,1.28.72c.17,0-.12.07,5.85-2.2l5.63,2.15a1.16,1.16,0,0,0,.82,0l5.64-2.15,5.64,2.15a1.22,1.22,0,0,0,.82,0l5.63-2.15,5.64,2.15a1.16,1.16,0,0,0,.82,0l5.63-2.15c6.07,2.31,5.8,2.27,6.21,2.21a1.17,1.17,0,0,0,1-.85c.05-.22,0,1.85,0-30.5,2.25,1.35,2.26,1.42,2.69,1.42s.28,0,3.84-2.11l3.24,1.94a1.15,1.15,0,0,0,1.75-1V8.05a6.92,6.92,0,0,0-6.91-6.91ZM50,70.32l-5.63,2.15L38.7,70.32a1.16,1.16,0,0,0-.82,0l-5.63,2.15-5.64-2.15a1.16,1.16,0,0,0-.82,0l-5.64,2.15-5.63-2.15a1.16,1.16,0,0,0-.82,0L9.21,72v-64a4.61,4.61,0,0,1,4.61-4.6H57a6.92,6.92,0,0,0-1.76,4.12V72l-4.49-1.71A1.16,1.16,0,0,0,50,70.32ZM66.8,41.72l-2.1-1.25a1.14,1.14,0,0,0-1.18,0l-3.25,1.94L57.58,40.8V8.05a4.61,4.61,0,0,1,9.22,0Z"/><path class="cls-2" d="M33.4,23.84a2.31,2.31,0,0,1-2.31-2.3,1.15,1.15,0,0,0-2.3,0A4.61,4.61,0,0,0,32.25,26v1.3a1.15,1.15,0,1,0,2.3,0V26a4.61,4.61,0,0,0-1.15-9.07,2.3,2.3,0,1,1,2.3-2.3,1.15,1.15,0,1,0,2.3,0,4.61,4.61,0,0,0-3.45-4.46V8.87a1.15,1.15,0,1,0-2.3,0v1.3a4.61,4.61,0,0,0,1.15,9.07,2.3,2.3,0,1,1,0,4.6Z"/><path class="cls-2" d="M17.65,40.81l0-7.25L23,33.08l27.22.33.34,15.46V65.34a6.5,6.5,0,0,1-3.7,1c-2.35,0-28.57-.67-28.57-.67L18,59.29l4.86,3.61,2.53,2.78,3.36-1.35,4.71-.67.67-3,1.68-2-7.39-8.07,5.37,2.69,1-3-6.72-4.37-5.71-.67Z"/><path class="cls-1" d="M48.94,32.13H19.41a2.57,2.57,0,0,0-2.57,2.57v4.11L9,31a.86.86,0,0,0-1.21,1.21L17.93,42.33l-5.34,5.34L9,44.12a.86.86,0,1,0-1.21,1.21L15,52.47v.77a8.88,8.88,0,0,0,1.89,5.45v5.54a2.58,2.58,0,0,0,2.57,2.58H48.94a2.58,2.58,0,0,0,2.57-2.58V44.66a.86.86,0,1,0-1.71,0V64.23a.87.87,0,0,1-.86.86H31l.11-.1a2.42,2.42,0,0,0,.5-.74,2.48,2.48,0,0,0,1.11.26A2.48,2.48,0,0,0,35,60.93a2.87,2.87,0,0,0,.74-.51,2.47,2.47,0,0,0,0-3.51l-3-3a2.74,2.74,0,0,0,2.41-1.1l0,0a2.79,2.79,0,0,0-.58-3.88l-3.1-2.31a10.53,10.53,0,0,0-6.28-2.09H22.56l-4-4V34.7a.86.86,0,0,1,.86-.85h9V42.6a.85.85,0,0,0,.53.79.88.88,0,0,0,.94-.18l1.86-1.87,1.87,1.87a.86.86,0,0,0,1.21,0l1.87-1.87,1.86,1.87a.9.9,0,0,0,.61.25.78.78,0,0,0,.33-.07A.85.85,0,0,0,40,42.6V33.85h9a.86.86,0,0,1,.86.85v3.09a.86.86,0,1,0,1.71,0V34.7A2.57,2.57,0,0,0,48.94,32.13ZM18.55,64.23V60.5l2.81,2.8h0l1.79,1.79H19.41A.87.87,0,0,1,18.55,64.23Zm6.66-18h0A8.81,8.81,0,0,1,30.47,48l3.1,2.31a1.06,1.06,0,0,1,.22,1.48l0,0a1,1,0,0,1-1.36.25L29.1,50a1,1,0,0,0-1.24,1.54l6.63,6.62a.79.79,0,0,1,.22.54.77.77,0,0,1-.76.77.71.71,0,0,1-.47-.17l-3.33-3.32a.46.46,0,0,0-.07-.07l-.34-.34a.86.86,0,1,0-1.21,1.22l3.66,3.67.12.11,1,1a.79.79,0,0,1,.22.54.75.75,0,0,1-.76.76.79.79,0,0,1-.54-.22l-1-1-.1-.12-3.27-3.26-.07-.06-.34-.34a.86.86,0,0,0-1.21,0,.85.85,0,0,0,0,1.21L30,62.77a.75.75,0,0,1-.06,1,.78.78,0,0,1-1.08,0l-1.08-1.09-.11-.11-2.06-2.07-.07-.06-.34-.34A.86.86,0,0,0,24,61.32l2.54,2.54a.76.76,0,0,1,.16.47.75.75,0,0,1-.76.76.77.77,0,0,1-.54-.22l-4.5-4.5h0l-2.11-2.11a7.14,7.14,0,0,1-2.07-5V52l5.74-5.75Zm-9.63,4.41L13.8,48.89l5.34-5.35,1.78,1.78ZM38.26,40.53l-1-1a.85.85,0,0,0-1.21,0l-1.86,1.86-1.87-1.86a.85.85,0,0,0-.61-.25.82.82,0,0,0-.6.25l-1,1V33.85h8.17Z"/><path class="cls-1" d="M46,56.43H40.53a.86.86,0,0,0,0,1.72H46a.86.86,0,0,0,0-1.72Z"/><path class="cls-1" d="M46,60H42.3a.86.86,0,0,0,0,1.72H46A.86.86,0,0,0,46,60Z"/><path class="cls-1" d="M38.87,60a.91.91,0,0,0-.61.25.88.88,0,0,0-.25.61.85.85,0,0,0,.86.86.88.88,0,0,0,.61-.25.86.86,0,0,0,.25-.61.88.88,0,0,0-.25-.61A.93.93,0,0,0,38.87,60Z"/><path class="cls-1" d="M50.66,40.37a.85.85,0,1,0,.6.25A.86.86,0,0,0,50.66,40.37Z"/></svg>