<svg id="Color_Palette" data-name="Color Palette" xmlns="http://www.w3.org/2000/svg" viewBox="0 0 76 76"><defs><style>.cls-1{fill:#ff1243;fill-rule:evenodd;}.cls-2{fill:#005080;}</style></defs><polygon class="cls-1" points="29.18 41.16 43.89 41.16 67.97 41.16 71.99 47.84 67.97 49.18 67.97 71.92 30.52 71.92 29.18 47.84 25.16 47.84 29.18 41.16"/><g id="Outline"><path class="cls-2" d="M74,47.6l-4.83-7.25a1.2,1.2,0,0,0-1-.54H29.54a1.19,1.19,0,0,0-1,.54L23.7,47.6A1.2,1.2,0,0,0,24,49.27a1.16,1.16,0,0,0,.67.21h3.62V71.23H25.92v2.41H71.83V71.23H69.41V49.48H73a1.21,1.21,0,0,0,1.21-1.21A1.16,1.16,0,0,0,74,47.6ZM30.19,42.23H41.78l-3.22,4.83H27Zm.56,7.25h8.46a1.19,1.19,0,0,0,1-.54L42.83,45V71.23H30.75ZM67,71.23H45.25V45l2.62,3.93a1.19,1.19,0,0,0,1,.54H67ZM49.52,47.06,46.3,42.23H67.56l3.22,4.83Z"/><path class="cls-2" d="M62.16,66.39h2.42v2.42H62.16Z"/><path class="cls-2" d="M57.33,66.39h2.42v2.42H57.33Z"/><path class="cls-2" d="M48.09,29.86l8.45,7.25a1.24,1.24,0,0,0,1.58,0l8.45-7.25a1.22,1.22,0,0,0,.43-.92V25.31a1.21,1.21,0,0,0-1.21-1.2H62.16V7.19H59.75V25.31A1.21,1.21,0,0,0,61,26.52h3.62v1.86L57.33,34.6l-7.25-6.22V26.52h3.63a1.21,1.21,0,0,0,1.2-1.21V7.19H52.5V24.11H48.87a1.2,1.2,0,0,0-1.2,1.2v3.63A1.21,1.21,0,0,0,48.09,29.86Z"/><path class="cls-2" d="M4.17,4.77H42.83V37.4h2.42V3.57A1.21,1.21,0,0,0,44,2.36H3A1.21,1.21,0,0,0,1.75,3.57v64A1.21,1.21,0,0,0,3,68.81H24.64V66.39H4.17Z"/><path class="cls-2" d="M19,6.34,15.75,9.61H9a1.21,1.21,0,0,0-1.2,1.21v7.24A1.21,1.21,0,0,0,9,19.27h7.25a1.21,1.21,0,0,0,1.21-1.21V11.32l3.27-3.27ZM15,16.86H10.21V12h3.13l-1.57,1.57,1.71,1.7L15,13.73Z"/><path class="cls-2" d="M22.29,10.82h2.42v2.41H22.29Z"/><path class="cls-2" d="M27.13,10.82H39.21v2.41H27.13Z"/><path class="cls-2" d="M22.29,15.65H39.21v2.41H22.29Z"/><path class="cls-2" d="M19,20.84l-3.27,3.27H9a1.2,1.2,0,0,0-1.2,1.2v7.25A1.21,1.21,0,0,0,9,33.77h7.25a1.21,1.21,0,0,0,1.21-1.21V25.81l3.27-3.27ZM15,31.36H10.21V26.52h3.13l-1.57,1.56,1.71,1.71L15,28.23Z"/><path class="cls-2" d="M22.29,25.31h2.42v2.42H22.29Z"/><path class="cls-2" d="M27.13,25.31H39.21v2.42H27.13Z"/><path class="cls-2" d="M22.29,30.15H39.21v2.41H22.29Z"/><path class="cls-2" d="M19,35.33,15.75,38.6H9a1.21,1.21,0,0,0-1.2,1.21v7.25A1.21,1.21,0,0,0,9,48.27h7.25a1.21,1.21,0,0,0,1.21-1.21V40.31L20.73,37ZM15,45.85H10.21V41h3.13l-1.57,1.56,1.71,1.71L15,42.73Z"/><path class="cls-2" d="M22.29,39.81h2.42v2.42H22.29Z"/><path class="cls-2" d="M9,53.1a1.21,1.21,0,0,0-1.2,1.21v7.25A1.21,1.21,0,0,0,9,62.77h7.25a1.21,1.21,0,0,0,1.21-1.21V54.81l3.27-3.27L19,49.83,15.75,53.1Zm6,7.25H10.21V55.52h3.13l-1.57,1.56,1.71,1.71L15,57.23Z"/><path class="cls-2" d="M22.29,54.31h2.42v2.42H22.29Z"/><path class="cls-2" d="M22.29,59.14h3.63v2.42H22.29Z"/></g></svg>