<?xml version="1.0" encoding="utf-8"?>
<!-- Generator: Adobe Illustrator 24.1.0, SVG Export Plug-In . SVG Version: 6.00 Build 0)  -->
<svg version="1.1" id="Secciones" xmlns="http://www.w3.org/2000/svg" xmlns:xlink="http://www.w3.org/1999/xlink" x="0px" y="0px"
	 viewBox="0 0 32.7 32.7" style="enable-background:new 0 0 32.7 32.7;" xml:space="preserve">
<style type="text/css">
	.st0{fill:#005080;}
	.st1{fill:#FC0F42;}
</style>
<path class="st0" d="M16.4,1.9c0.5,0,0.9,0,1.4,0.1c-0.5,0-1-0.1-1.5-0.1c-8,0-14.4,6.5-14.4,14.5c0,3.4,1.2,6.7,3.4,9.3
	C0.2,19.5,1,10.4,7.2,5.3C9.8,3.1,13,1.9,16.4,1.9z"/>
<path class="st1" d="M16.4,21.4c-4,0-7.5,2.9-8.1,6.9c4.9,3.3,11.4,3.3,16.3-0.1C23.9,24.3,20.4,21.4,16.4,21.4z"/>
<circle class="st1" cx="16.4" cy="14.3" r="5.2"/>
<path class="st0" d="M28,4.8C27.9,4.8,27.9,4.7,28,4.8L28,4.8C21.4-1.6,11.1-1.6,4.7,4.9C-1.6,11.3-1.6,21.7,4.9,28
	c6.4,6.4,16.8,6.4,23.2-0.1C34.4,21.5,34.4,11.2,28,4.8z M8.3,28.3c0.8-4.5,5-7.6,9.6-6.8c3.4,0.6,6.1,3.2,6.8,6.6
	c-0.2,0.2-0.5,0.4-0.8,0.6c-2.2,1.4-4.8,2.1-7.4,2.1l0,0C13.6,30.8,10.7,30,8.3,28.3z M11.2,14.3L11.2,14.3c0-2.9,2.3-5.2,5.2-5.3
	c2.9,0,5.2,2.3,5.2,5.2c0,2.9-2.3,5.2-5.2,5.2c0,0,0,0,0,0C13.5,19.5,11.2,17.2,11.2,14.3z M21.8,29.9c-0.2,0.1-0.5,0.2-0.7,0.3
	C21.4,30.1,21.6,30,21.8,29.9z M28.8,24.2c0.1-0.2-1,1.1-2.5,2.6c-0.9-3-3.1-5.3-6-6.5c3.3-2.1,4.2-6.6,2.1-9.9
	c-2.1-3.3-6.6-4.2-9.9-2.1s-4.2,6.6-2.1,9.9c0.5,0.8,1.3,1.5,2.1,2.1c-1.1,0.5-2.1,1.1-2.9,1.9c-1.4,1.3-2.4,3-3,4.8
	c-0.2-0.2-0.3-0.3-0.5-0.5c0,0,0,0,0,0C6,26.4,5.8,26.2,5.6,26c0.1,0.2,0.3,0.3,0.5,0.5c-0.1-0.1-0.3-0.3-0.4-0.4l-0.2-0.2
	c0-0.1-0.1-0.1-0.1-0.2C0.2,19.6,0.9,10.5,7,5.3c2.6-2.2,5.9-3.4,9.3-3.4c0.5,0,1,0,1.5,0.1c7.8,0.6,13.6,7.4,13.3,15.1L31,16.3
	C31,19.1,30.2,21.8,28.8,24.2z"/>
</svg>
