<svg id="Color_Palette" data-name="Color Palette" xmlns="http://www.w3.org/2000/svg" viewBox="0 0 168.64 38"><defs><style>.cls-1{fill:#c5c8c9;}</style></defs><path class="cls-1" d="M46.89,18.42A6.1,6.1,0,0,1,52,20.92V1.21a.47.47,0,0,0-.74-.37L27,18.63h.64c2.53,0,3.81,1.62,3.81,3.37a3,3,0,0,1-1.68,2.83.21.21,0,0,0,0,.38,3.29,3.29,0,0,1,1.92,3.07,3.49,3.49,0,0,1-3.85,3.61H20.88a.26.26,0,0,1-.27-.27V23.25L2.48,36.51a.41.41,0,0,0,.24.74H51.58a.39.39,0,0,0,.41-.4V30.13a7.38,7.38,0,0,1-5.13,2,6.85,6.85,0,1,1,0-13.7ZM37.21,31.65a.23.23,0,0,1-.24.24H34.64a.23.23,0,0,1-.23-.24V18.86a.23.23,0,0,1,.23-.23H37a.23.23,0,0,1,.24.23Z"/><path class="cls-1" d="M23.71,23.89H27a1.37,1.37,0,0,0,1.55-1.38A1.4,1.4,0,0,0,27,21.12H23.57a.15.15,0,0,0-.13.14v2.39a.26.26,0,0,0,.27.24Zm0,5.53h3.41a1.48,1.48,0,0,0,1.68-1.51,1.51,1.51,0,0,0-1.68-1.52H23.71a.26.26,0,0,0-.27.27v2.49A.28.28,0,0,0,23.71,29.42Zm26.18-7a3.82,3.82,0,0,0-3-1.52,4.14,4.14,0,0,0-4.18,4.35,4.14,4.14,0,0,0,4.18,4.36,4.56,4.56,0,0,0,2.73-.95.22.22,0,0,0,.07-.17V27.23a.22.22,0,0,0-.2-.2h-3a.27.27,0,0,1-.27-.27V24.87a.26.26,0,0,1,.27-.27h5.56v-3l-1.78,1a.38.38,0,0,1-.38-.13Zm4.22,2.83a6.56,6.56,0,0,1,6.72-6.85,5.61,5.61,0,0,1,5,2.77.19.19,0,0,1-.1.3l-1.52.81a.18.18,0,0,1-.27-.06,3.75,3.75,0,0,0-3.1-1.76,4.47,4.47,0,0,0-4.42,4.79,4.49,4.49,0,0,0,4.42,4.79,3.76,3.76,0,0,0,3.1-1.75.19.19,0,0,1,.27-.07l1.52.78a.23.23,0,0,1,.1.34,5.74,5.74,0,0,1-5,2.8,6.64,6.64,0,0,1-6.72-6.89Zm13,0a6.5,6.5,0,0,1,4.72-6.61c4.83-1.28,9.25,3.24,8.2,8.27a6.34,6.34,0,0,1-6.38,5.23A6.52,6.52,0,0,1,67.14,25.27Zm10.76,0c0-2.73-1.69-4.79-4.25-4.79s-4.25,2.06-4.25,4.79,1.65,4.79,4.25,4.79S77.9,28,77.9,25.27ZM94,31.72V21.63L90,31.79s-.07.06-.1.06H89s-.1,0-.1-.06L84.85,21.63V31.72a.16.16,0,0,1-.17.17h-2a.16.16,0,0,1-.17-.17v-13a.16.16,0,0,1,.17-.17h2.9a.34.34,0,0,1,.31.2l3.54,9.12,3.51-9.12a.3.3,0,0,1,.3-.2h2.9a.16.16,0,0,1,.17.17v13a.16.16,0,0,1-.17.17h-2a.2.2,0,0,1-.14-.17Zm23-.07V18.86a.23.23,0,0,1,.24-.23h8.6a.23.23,0,0,1,.24.23v1.55a.23.23,0,0,1-.24.24h-6.28a.23.23,0,0,0-.23.24v2.93a.23.23,0,0,0,.23.24h6.15a.23.23,0,0,1,.23.23v1.56a.23.23,0,0,1-.23.23h-6.15a.23.23,0,0,0-.23.24v3.2a.23.23,0,0,0,.23.24h6.28A.23.23,0,0,1,126,30v1.55a.24.24,0,0,1-.24.24h-8.6c-.14.1-.24,0-.24-.14Zm19.87.1L134,27a.22.22,0,0,0-.2-.1h-2a.23.23,0,0,0-.23.23v4.49a.23.23,0,0,1-.24.24h-1.82a.23.23,0,0,1-.24-.24V18.86a.23.23,0,0,1,.24-.23h5.6a4,4,0,0,1,4.35,4.15,3.71,3.71,0,0,1-2.83,3.81.25.25,0,0,0-.17.37c.54.88,2.23,3.58,2.87,4.56a.24.24,0,0,1-.2.37H137a.27.27,0,0,1-.24-.14Zm.31-9a2.07,2.07,0,0,0-2.26-2.09h-3a.23.23,0,0,0-.24.24v3.74a.23.23,0,0,0,.24.24h3A2.08,2.08,0,0,0,137.09,22.74Zm18.12,8.91V18.86a.23.23,0,0,1,.23-.23h8.64a.23.23,0,0,1,.24.23v1.59a.23.23,0,0,1-.24.23h-6.31a.23.23,0,0,0-.23.24v3a.23.23,0,0,0,.23.24h6.14a.23.23,0,0,1,.24.23V26a.23.23,0,0,1-.24.23h-6.14a.23.23,0,0,0-.23.24v3.24a.23.23,0,0,0,.23.24h6.31a.23.23,0,0,1,.24.23v1.59a.23.23,0,0,1-.24.23h-8.64a.34.34,0,0,1-.23-.3Zm-14-6.44a6.56,6.56,0,0,1,6.72-6.85,5.61,5.61,0,0,1,5,2.76.21.21,0,0,1-.1.31l-1.52.81a.18.18,0,0,1-.27-.07,3.77,3.77,0,0,0-3.1-1.76,4.47,4.47,0,0,0-4.42,4.8A4.49,4.49,0,0,0,147.89,30a3.77,3.77,0,0,0,3.1-1.76.18.18,0,0,1,.27-.06l1.52.77a.24.24,0,0,1,.1.34,5.72,5.72,0,0,1-5,2.8A6.61,6.61,0,0,1,141.17,25.21Zm-30,6.51V21.63l-4,10.16s-.07.06-.1.06h-.85s-.1,0-.1-.06l-4-10.16V31.72a.16.16,0,0,1-.17.17h-2a.16.16,0,0,1-.17-.17v-13a.16.16,0,0,1,.17-.17h2.9a.31.31,0,0,1,.3.2l3.55,9.12,3.51-9.12a.3.3,0,0,1,.3-.2h2.9a.16.16,0,0,1,.17.17v13a.16.16,0,0,1-.17.17h-2a.16.16,0,0,1-.14-.17Z"/></svg>