<svg id="Color_Palette" data-name="Color Palette" xmlns="http://www.w3.org/2000/svg" viewBox="0 0 92.87 40.65"><defs><style>.cls-1{fill:#c5c8c9;}</style></defs><path class="cls-1" d="M15.86,10.73c-6,0-11,2.54-11,10.21C4.87,27,8.23,30.85,16,30.85c9.17,0,9.76-6,9.76-6H21.33s-1,3.25-5.59,3.25C12,28.06,9.26,25.52,9.26,22h17V19.71c0-3.54-2.24-9-10.37-9Zm-.16,2.86c3.59,0,6,2.2,6,5.5H9.36C9.36,15.59,12.55,13.59,15.7,13.59Z"/><path class="cls-1" d="M26.23,3.3V27c0,1.34-.1,3.23-.1,3.23h4.24s.15-1.35.15-2.59c0,0,2.09,3.27,7.78,3.27,6,0,10.07-4.16,10.07-10.12,0-5.55-3.74-10-10.06-10-5.91,0-7.75,3.2-7.75,3.2V3.3Zm11,10.42c4.07,0,6.66,3,6.66,7.07,0,4.34-3,7.19-6.63,7.19-4.34,0-6.69-3.39-6.69-7.15,0-3.51,2.1-7.11,6.66-7.11Z"/><path class="cls-1" d="M58.89,10.73c-9,0-9.6,4.94-9.6,5.72h4.49s.24-2.88,4.8-2.88c3,0,5.27,1.36,5.27,4v.93H58.58c-7,0-10.68,2-10.68,6.19s3.41,6.3,8,6.3c6.28,0,8.31-3.47,8.31-3.47,0,1.38.1,2.74.1,2.74h4s-.15-1.69-.15-2.76V18.13C68.18,12,63.24,10.73,58.89,10.73Zm5,10.52v1.24c0,1.62-1,5.63-6.87,5.63-3.21,0-4.59-1.6-4.59-3.46,0-3.38,4.64-3.41,11.46-3.41Z"/><path class="cls-1" d="M65.76,11.5h5L78.06,26,85.29,11.5h4.58L76.7,37.35H71.9l3.8-7.2L65.76,11.5Z"/></svg>