<svg id="Color_Palette" data-name="Color Palette" xmlns="http://www.w3.org/2000/svg" viewBox="0 0 142.82 40.65"><defs><style>.cls-1{fill:#c5c8c9;}</style></defs><g id="Page-1"><g id="logo-2"><path id="Shape" class="cls-1" d="M42.68,14.76,40.7,25c-.34,1.77-.55,3.32-.73,4.59H36.76L37.1,27H37a6.63,6.63,0,0,1-5.21,2.92c-2.19,0-3.92-1.15-3.92-4.19a12.36,12.36,0,0,1,.31-2.64l1.59-8.31H33.4l-1.54,8.09a9.89,9.89,0,0,0-.25,2c0,1.21.49,2.1,1.91,2.1,1.66,0,3.58-1.95,4.2-5l1.35-7.21,3.61,0Z"/><path class="cls-1" d="M42.23,29.67l1.9-10.21c.34-1.77.55-3.32.74-4.59H48l-.33,2.59h0a6.27,6.27,0,0,1,5.21-2.92,3.21,3.21,0,0,1,3.5,3,6.32,6.32,0,0,1,5.29-3c2,0,3.61,1.31,3.61,3.95A19.51,19.51,0,0,1,65.05,21l-1.62,8.67H60l1.53-8.27a9.65,9.65,0,0,0,.22-1.86c0-1.28-.53-2.13-1.81-2.13-1.66,0-3.46,2-4,5.17l-1.31,7.08H51.09l1.62-8.38a11.28,11.28,0,0,0,.18-1.73c0-1.09-.34-2.13-1.8-2.13-1.66,0-3.56,2.25-4.11,5.26l-1.29,7H42.23Z"/><path class="cls-1" d="M64.62,35.69l3-15.31c.3-1.77.64-4.08.86-5.56h3.23l-.33,2.48h.06a6.47,6.47,0,0,1,5-2.76c3.27,0,4.74,2.58,4.74,5.47,0,5.19-3.6,10-8.71,10a6.27,6.27,0,0,1-3-.62h-.06L68.2,35.7H64.62ZM70,26.52a3.69,3.69,0,0,0,2.4.75c2.8,0,5-3.65,5-7,0-1.34-.59-2.86-2.38-2.86s-3.78,2-4.43,5.47Z"/><path class="cls-1" d="M81.42,26.49a8.27,8.27,0,0,0,3.58,1c1.44,0,2.3-.84,2.3-1.85s-.49-1.54-2-2.3c-1.71-.91-2.94-2.17-2.94-3.9,0-2.87,2.52-4.9,6-4.9a7.27,7.27,0,0,1,3.49.76L91,17.86a6.17,6.17,0,0,0-2.79-.67c-1.35,0-2.27.7-2.27,1.71s.65,1.44,1.93,2.09c1.65.89,3.1,2.11,3.1,4,0,3.31-2.76,5.14-6.33,5.11A8,8,0,0,1,80.51,29Z"/><path class="cls-1" d="M103.29,28.93A12,12,0,0,1,98,30.12c-4.12,0-6.11-2.54-6.11-6.18,0-4.51,3.3-9.4,8.42-9.4,2.93,0,4.79,1.69,4.79,4.2,0,3.82-4,5.05-9.73,4.93a4.05,4.05,0,0,0,.4,2.11,3.27,3.27,0,0,0,3,1.53,8.78,8.78,0,0,0,4.09-1ZM99.9,17.19c-2.24,0-3.69,2-4.13,3.8,3.67,0,6-.45,6-2.26,0-.94-.77-1.52-1.89-1.52Z"/><polygon class="cls-1" points="104.68 29.68 108.76 8.07 112.3 8.07 108.18 29.68 104.68 29.68"/><polygon class="cls-1" points="110.73 29.68 114.81 8.07 118.34 8.07 114.23 29.68 110.73 29.68"/><path class="cls-1" d="M128.58,28.93a11.9,11.9,0,0,1-5.25,1.19c-4.13,0-6.11-2.54-6.11-6.18,0-4.51,3.3-9.4,8.41-9.4,2.94,0,4.8,1.69,4.8,4.2,0,3.82-4,5.05-9.73,4.93a4.15,4.15,0,0,0,.39,2.11,3.3,3.3,0,0,0,3.06,1.53,8.84,8.84,0,0,0,4.09-1Zm-3.39-11.74c-2.23,0-3.68,2-4.12,3.8,3.66,0,6-.45,6-2.26,0-.94-.76-1.52-1.89-1.52Z"/><path class="cls-1" d="M130,29.67l1.73-9.12c.4-2.09.62-4.37.77-5.68h3.08c-.1,1-.19,2-.34,3.1h.09c1-2,2.62-3.44,4.63-3.44.27,0,.55,0,.79,0L140,18c-.22,0-.45,0-.67,0-2.53,0-4.14,2.55-4.73,5.72l-1.13,6Z"/><path class="cls-1" d="M21.63,10.23a5.37,5.37,0,0,0,.9-.59A6.63,6.63,0,0,0,25,4.49a5.49,5.49,0,0,0-.45-2.23.46.46,0,0,1,0-.44.43.43,0,0,1,.4-.2.43.43,0,0,1,.36.25,6.37,6.37,0,0,1,.54,2.62,7.49,7.49,0,0,1-2.83,5.85,7,7,0,0,1-1,.64Z"/><path id="Combined-Shape" class="cls-1" d="M26.47,14.42a3,3,0,0,1,.47,2.34L23.23,37a2.17,2.17,0,0,1-2.77,2L5.77,36.4c-2.06-.36-2.25-1.66-1.9-3.55L7.51,13a2.5,2.5,0,0,1,1.43-1.89l8.31-5.29a2.58,2.58,0,0,1,1.31-.45c.92,0,1.3.27,2.15,1.39Zm-7.11.27H15.8L13,29.6c-.55,2.83-1.45,3.47-2.61,3.47a4.52,4.52,0,0,1-1-.09L8.88,35.7a8,8,0,0,0,1.94.21,5,5,0,0,0,3.78-1.53c1-1,1.54-2.62,2-5.16Zm-3.13-4a1.76,1.76,0,0,0,1.82,1.89,2.13,2.13,0,0,0,2.24-2.13,1.79,1.79,0,0,0-.52-1.37,1.87,1.87,0,0,0-1.38-.53,2.2,2.2,0,0,0-1.54.62A2,2,0,0,0,16.23,10.66Z"/><path class="cls-1" d="M32.18,2.36a.45.45,0,0,0-.61.13s-2.55,4-5.63,4a12.52,12.52,0,0,1-2-.14A20.3,20.3,0,0,0,21,6.13c-2.82,0-4.29,1.48-4.29,2.94,0,.95.66,2.56,3.13,2.56h.1a2.35,2.35,0,0,0,.23-.9l-.33,0c-2.15,0-2.26-1.4-2.26-1.68,0-1,1.2-2.06,3.41-2.06a20,20,0,0,1,2.79.17,14.08,14.08,0,0,0,2.16.15c3.55,0,6.25-4.19,6.36-4.37a.48.48,0,0,0,.06-.33.36.36,0,0,0-.18-.28Z"/></g></g></svg>