<svg id="Color_Palette" data-name="Color Palette" xmlns="http://www.w3.org/2000/svg" viewBox="0 0 223.78 40.65"><defs><style>.cls-1,.cls-2{fill:#c5c8c9;}.cls-2{fill-rule:evenodd;}</style></defs><path class="cls-1" d="M72.12,3.92l17.06,24L105.8,4.26c.38.45.23.83.23,1.18q0,15.17,0,30.32c0,.73.22,1.48-1.05,1.43-1,0-1.25-.27-1.24-1.26,0-7.58,0-15.16,0-22.75V11.23c-.58.8-.92,1.25-1.24,1.71C98.36,18.87,94.17,24.8,90,30.76c-.68,1-1,1.08-1.71,0-4.19-6-8.44-11.94-12.67-17.89-.33-.47-.68-.92-1.27-1.72V35.68c0,.78.24,1.53-1.13,1.53s-1.14-.73-1.14-1.52Z"/><path class="cls-1" d="M28.93,37c-2.07.64-3.26-.18-4.42-1.63-3.05-3.82-6.29-7.49-9.39-11.27-.68-.82-1-.84-1.58,0-2.9,4.07-5.87,8.09-8.82,12.12-.27.37-.55.74-1.09,1.45V5.66c0-.82-.16-1.49,1.16-1.49S5.9,5,5.9,5.72V30.31c.61-.23.78-.69,1-1C12.57,21.54,18.24,13.83,23.78,6c1.08-1.52,2.17-2.19,4-1.68,0,.57-.49.9-.79,1.32-3.44,4.74-6.87,9.48-10.36,14.18-.72,1-.82,1.56,0,2.54,3.79,4.39,7.49,8.86,11.23,13.31Z"/><path class="cls-1" d="M115.73,20.59c0-5,0-10,0-15,0-.94.07-1.4,1.25-1.39,6.29.07,12.59,0,18.89,0,.82,0,1.24.08,1.24,1.09s-.27,1.25-1.27,1.24c-5.43,0-10.87,0-16.3-.06-1.33,0-1.58.41-1.55,1.62.07,3.38.06,6.77,0,10.15,0,1,.25,1.27,1.25,1.26,4.09-.06,8.18,0,12.27,0,.8,0,1.39-.06,1.4,1.12s-.45,1.29-1.41,1.28c-4,0-8.07,0-12.11,0-1.15,0-1.43.32-1.4,1.43.07,3.28.09,6.56,0,9.84,0,1.3.26,1.73,1.65,1.7,5.32-.08,10.65,0,16,0,.81,0,1.53-.18,1.51,1.16s-.55,1.22-1.44,1.22c-6.19,0-12.38,0-18.57,0-1.16,0-1.41-.31-1.39-1.42C115.77,30.7,115.73,25.64,115.73,20.59Z"/><path class="cls-1" d="M160.56,21.81q0,6.93,0,13.86c0,.82.17,1.52-1.16,1.53s-1.19-.65-1.19-1.49c0-9.13,0-18.26.05-27.4,0-1.54-.47-1.85-1.89-1.81-3.33.1-6.67,0-10,.06-.95,0-1.31-.17-1.29-1.22s.35-1.12,1.21-1.12q13.08,0,26.15,0c.94,0,1.14.29,1.14,1.18s-.26,1.17-1.17,1.15c-3.44,0-6.88,0-10.32,0-1.33,0-1.58.41-1.56,1.62C160.6,12.68,160.56,17.24,160.56,21.81Z"/><path class="cls-1" d="M183.25,20.8q0,7.5,0,15c0,.76.13,1.38-1.09,1.4S181,36.59,181,35.73q0-15.07,0-30.15c0-.76-.13-1.38,1.08-1.4s1.19.61,1.19,1.46C183.24,10.7,183.25,15.75,183.25,20.8Z"/><path class="cls-1" d="M206.94,3.91l-15.51,33c1.91.73,2.77-.1,3.39-1.69.72-1.85,1.69-3.59,2.48-5.41A1.54,1.54,0,0,1,199,28.76c5.11,0,10.22.06,15.33,0a1.51,1.51,0,0,1,1.63,1.13c.76,1.83,1.75,3.58,2.38,5.45s1.59,2.15,3.3,1.64Zm-8,22.56,7.92-16.95,7.57,17Z"/><g id="Group_8" data-name="Group 8"><path class="cls-1" d="M39.51,35.62A16.86,16.86,0,0,1,55.55,6L54.06,7.46a14.95,14.95,0,1,0,7.2,7l1.41-1.41A16.78,16.78,0,0,1,39.51,35.62Zm20.3-24,1.4-1.36c.31.39.57.79.84,1.18l-1.41,1.36A7.38,7.38,0,0,0,59.81,11.64ZM57.88,9.7l1.36-1.4.88.88-1.37,1.36C58.44,10.23,58.14,10,57.88,9.7ZM55.59,8.08,57,6.63a9.57,9.57,0,0,1,1.14.84l-1.36,1.4A6.28,6.28,0,0,0,55.59,8.08Z"/></g><path class="cls-2" d="M57.08,4l1-1.06a.69.69,0,1,1,1,1l-1,1a.7.7,0,0,1-1,0A.64.64,0,0,1,57.08,4Z"/><path class="cls-2" d="M59.32,5.75l1-1a.7.7,0,0,1,1,0,.69.69,0,0,1,0,1l-1,1.06a.65.65,0,0,1-.93,0A.71.71,0,0,1,59.32,5.75Z"/><path class="cls-2" d="M61.3,8l1-1a.68.68,0,1,1,1,1l-1,1a.68.68,0,0,1-1-1Z"/><path class="cls-2" d="M62.93,10.32l1-1a.68.68,0,1,1,1,1l-1,1.06a.69.69,0,0,1-1,0A.73.73,0,0,1,62.93,10.32Z"/><path class="cls-1" d="M42.32,31.45A7.71,7.71,0,0,1,38.9,18.58L49,8.48h0a.68.68,0,0,1,.74-.22.89.89,0,0,1,.58.57.8.8,0,0,1-.22.75L40,19.68a6.15,6.15,0,0,0,2.67,10.45,6.27,6.27,0,0,0,6-1.75l10.1-10.11a.86.86,0,0,1,.53-.22.81.81,0,0,1,.53.22.72.72,0,0,1,0,1.06l-10.1,10.1A7.61,7.61,0,0,1,42.32,31.45Zm4.49-4.26a.79.79,0,0,1,.17-.75L59.54,13.61h0A13.52,13.52,0,0,1,60.29,15L48,27.5a.7.7,0,0,1-.71.17A.55.55,0,0,1,46.81,27.19Zm-.66-3.34a.81.81,0,0,1-.22-.53.63.63,0,0,1,.26-.53L57.65,11.37a13.26,13.26,0,0,1,1,1.14L47.19,23.85a.81.81,0,0,1-.52.22A.65.65,0,0,1,46.15,23.85Zm-1.67-1.94a.81.81,0,0,1-.22-.52.7.7,0,0,1,.22-.53L55.77,9.44l1.18.92L45.53,21.91a.77.77,0,0,1-.52.23A1,1,0,0,1,44.48,21.91Zm-3.87-.83a.69.69,0,0,1,.18-.79l12.43-12a13.86,13.86,0,0,1,1.45.7L41.88,21.35a.72.72,0,0,1-.53.22A.93.93,0,0,1,40.61,21.08Z"/></svg>