<svg id="Color_Palette" data-name="Color Palette" xmlns="http://www.w3.org/2000/svg" viewBox="0 0 118.61 40.65"><defs><style>.cls-1{fill:#c5c8c9;}</style></defs><path class="cls-1" d="M21.65,4.65,13.91,7.47,3.81,29.16a2.65,2.65,0,0,0,1.28,3.52l8.52,4V12.8l8-8.15"/><path class="cls-1" d="M32,1.72a2.66,2.66,0,0,0-3.75,0L16.84,13.12V37.05a2.65,2.65,0,0,0,2.65,2.65H40.75a2.66,2.66,0,0,0,2.65-2.65V13.12ZM30,3.47h.1a1.67,1.67,0,0,1,1.66,1.66,1.64,1.64,0,0,1-1.66,1.68A1.67,1.67,0,0,1,30,3.47ZM37.76,36H22.51V13.12h5.08V30.91H37.76Z"/><path class="cls-1" d="M103.48,12.51a12.08,12.08,0,1,0,12.08,12.07A12.08,12.08,0,0,0,103.48,12.51Zm0,19.32a7.25,7.25,0,0,1-.18-14.49h.18a7.25,7.25,0,1,1,0,14.49ZM46.79,13.08h5.08V36H46.79Zm36.74,0h5.08V36H83.53Zm-8.64,0V26.67L55.42,12.51V36H60.5V22.49L80,36.66V13.08H74.89"/></svg>