<svg id="Color_Palette" data-name="Color Palette" xmlns="http://www.w3.org/2000/svg" viewBox="0 0 176.32 40.65"><defs><style>.cls-1{fill:#c5c8c9;}</style></defs><path class="cls-1" d="M22.4,37a3,3,0,0,1-1.91-3.07c0-6.34,0-12.68,0-19a2.78,2.78,0,0,1,.7-2.06A2.48,2.48,0,0,1,25.1,13c.3.38.46.41.84.08a6.53,6.53,0,0,1,8.53.25,10.34,10.34,0,0,1,0,15.2,7.06,7.06,0,0,1-8,.85c-.77-.43-.76-.43-.77.48a27.39,27.39,0,0,1,0,4A3.78,3.78,0,0,1,23.85,37Zm10.13-16.1a4.33,4.33,0,0,0-.48-2.41,3,3,0,0,0-2.67-1.81,3,3,0,0,0-3,1.51,5.52,5.52,0,0,0-.23,5.06,3,3,0,0,0,3,1.94,3,3,0,0,0,2.94-1.94A4.92,4.92,0,0,0,32.53,20.85Z"/><path class="cls-1" d="M2,19.79a20.69,20.69,0,0,1,.8-3A8.51,8.51,0,0,1,19.12,19a10.18,10.18,0,0,1-1.84,8,8.45,8.45,0,0,1-13.7-.62,9.37,9.37,0,0,1-1.44-3.88A4.92,4.92,0,0,0,2,22Zm5.22,1.05A4.76,4.76,0,0,0,7.9,23.6a3,3,0,0,0,3,1.54,3,3,0,0,0,2.6-1.66,5.52,5.52,0,0,0,.42-4.19,3.21,3.21,0,0,0-3.23-2.67,3.28,3.28,0,0,0-3.25,2.66A4.35,4.35,0,0,0,7.22,20.84Z"/><path class="cls-1" d="M108.19,20.94c0,2,0,4,0,6a2.77,2.77,0,0,1-1.91,2.84,2.49,2.49,0,0,1-2.75-.93c-.2-.27-.31-.49-.71-.18a6.66,6.66,0,0,1-9.28-.75c-3.61-3.79-3.51-10.67.25-14.29a6.88,6.88,0,0,1,6.74-1.78,4.58,4.58,0,0,1,2.17,1.23c.25.25.43.39.75,0a2.63,2.63,0,0,1,3-1,2.77,2.77,0,0,1,1.69,2.78C108.2,16.9,108.19,18.92,108.19,20.94ZM103,21a5.3,5.3,0,0,0-.74-2.92,3.19,3.19,0,0,0-5.6.27,5.41,5.41,0,0,0,.08,5.19,3.22,3.22,0,0,0,5.07.66A4.69,4.69,0,0,0,103,21Z"/><path class="cls-1" d="M49.67,22.67c-1.58,0-2.9,0-4.23,0-.73,0-.85.21-.58.88A2.32,2.32,0,0,0,46,24.78a5.35,5.35,0,0,0,4.13.38,25.89,25.89,0,0,0,2.69-1.06,2.11,2.11,0,0,1,2.79.54,2.42,2.42,0,0,1-.2,3.11,5.44,5.44,0,0,1-2.28,1.47,12.88,12.88,0,0,1-6.66.84,8.73,8.73,0,0,1-7.34-8.25A9.61,9.61,0,0,1,42,14,8.39,8.39,0,0,1,56,17.69a7.23,7.23,0,0,1,.35,3.13,1.79,1.79,0,0,1-1.86,1.73C52.79,22.76,51.1,22.61,49.67,22.67Zm-1.76-3.62h2.67c.42,0,.63-.12.52-.6a3.31,3.31,0,0,0-6.32-.18c-.17.58,0,.8.61.79C46.23,19,47.07,19.05,47.91,19.05Z"/><path class="cls-1" d="M57.69,20.89c0-2.06,0-4.13,0-6.2a2.56,2.56,0,0,1,1.66-2.61,2.84,2.84,0,0,1,3.11.92c.26.32.43.41.73.07a5,5,0,0,1,4.29-1.47,5.92,5.92,0,0,1,5,2.37,5.2,5.2,0,0,1,1,3c0,3.43,0,6.87,0,10.3a2.55,2.55,0,0,1-2.23,2.6,2.41,2.41,0,0,1-2.65-1.76,10.17,10.17,0,0,1-.29-4.35,45.71,45.71,0,0,0,.06-4.68A3.66,3.66,0,0,0,68,17.47a2.63,2.63,0,0,0-4.72.05,6.28,6.28,0,0,0-.47,2.32c-.07,2,.15,4,.16,6a7.28,7.28,0,0,1-.32,2.13A2.43,2.43,0,0,1,60,29.86a2.58,2.58,0,0,1-2.3-2.62C57.68,25.12,57.69,23,57.69,20.89Z"/><path class="cls-1" d="M74.91,20.89a8.84,8.84,0,0,1,3.6-7.72c2.92-2.11,6.15-2.06,9.34-.65a2.62,2.62,0,0,1,1.22,4,1.93,1.93,0,0,1-1.87.85,8.56,8.56,0,0,1-1.82-.48c-3.44-1.16-5.61,1.24-5.31,4.52a4.94,4.94,0,0,0,.3,1.41A3.27,3.27,0,0,0,84.58,25c.73-.17,1.44-.39,2.16-.6a2,2,0,0,1,2.35.81,2.29,2.29,0,0,1,.15,2.58,3.26,3.26,0,0,1-1.49,1.33c-6.21,3.12-12.53-.9-12.84-7.52C74.9,21.37,74.91,21.13,74.91,20.89Z"/><path class="cls-1" d="M125.27,22.4c0-1.56,0-3.13,0-4.69,0-.51-.12-.83-.71-.83a2.84,2.84,0,0,1-.64-.1,1.94,1.94,0,0,1-1.86-2.16c0-1.44.45-2.07,1.79-2.37s1.42-.32,1.41-1.78a9.71,9.71,0,0,1,.18-2.15A2.48,2.48,0,0,1,127.9,6.1a2.52,2.52,0,0,1,2.42,2.26,13.28,13.28,0,0,1,.15,3c0,.54.18.8.75.77a6,6,0,0,1,1.58.12,2,2,0,0,1,1.73,2.22,2.1,2.1,0,0,1-1.79,2.27,7.72,7.72,0,0,1-1.44.14c-.63,0-.83.22-.83.84,0,2.91,0,5.81,0,8.72,0,.24,0,.48,0,.72a2.64,2.64,0,0,1-2.64,2.69,2.7,2.7,0,0,1-2.56-2.72c0-1.58,0-3.17,0-4.75Z"/><path class="cls-1" d="M109.92,20.84c0-2.07,0-4.13,0-6.2a2.55,2.55,0,0,1,1.64-2.55,2.8,2.8,0,0,1,3.12.89c.32.43.52.35.84,0A4.55,4.55,0,0,1,118,11.65a2.71,2.71,0,0,1,3.1,2,2.35,2.35,0,0,1-1.65,2.94c-.72.26-1.44.55-2.18.76a2.89,2.89,0,0,0-2.13,2.7,48.62,48.62,0,0,0-.13,5.4c0,.64,0,1.29,0,1.94a2.54,2.54,0,0,1-5.08,0C109.9,25.16,109.92,23,109.92,20.84Z"/><path class="cls-1" d="M164.4,22.52A12.39,12.39,0,0,1,167,19.15c1-1.1,2.13-2.16,3.06-3.35.15-.19.29-.39.42-.59.73-1.2.49-2.05-.82-2.58a13.68,13.68,0,0,0-4.25-.76c-3.25-.23-6.51,0-9.76-.17A32.6,32.6,0,0,1,145,9.84a11.68,11.68,0,0,1-6.44-6.1c.18-.12.25.06.33.15,2.63,2.79,6,4,9.7,4.5a90.08,90.08,0,0,0,9,.62c3.57.14,7.13,0,10.7.13a22.29,22.29,0,0,1,5.08.57,7.86,7.86,0,0,1,1.36.49,1.35,1.35,0,0,1,.7,1.92,7.06,7.06,0,0,1-1.94,2.49C170.48,17.28,167.43,19.89,164.4,22.52Z"/><path class="cls-1" d="M157.58,27.38a2.8,2.8,0,0,1,2.81-2.62,2.69,2.69,0,1,1-2.81,2.62Z"/><path class="cls-1" d="M145.5,27.39a2.72,2.72,0,0,1,2.7-2.64,2.69,2.69,0,1,1-.11,5.38A2.66,2.66,0,0,1,145.5,27.39Z"/></svg>