<svg id="Color_Palette" data-name="Color Palette" xmlns="http://www.w3.org/2000/svg" viewBox="0 0 238 40.65"><defs><style>.cls-1{fill:#c5c8c9;}.cls-2{fill:#535353;}.cls-3{fill:#989898;}.cls-4{fill:#b1b1b1;}.cls-5{fill:#787878;}.cls-6{fill:none;}.cls-7{fill:#fff;}.cls-8{fill:#bbb;}.cls-9{fill:#696969;}.cls-10{fill:#919191;}.cls-11{fill:#ddd;}.cls-12{fill:#b9b9b9;}.cls-13{fill:#4e4e4e;}.cls-14{fill:#5b5b5b;}</style></defs><g id="Calque_2" data-name="Calque 2"><path class="cls-1" d="M88.38,24.05a3.62,3.62,0,0,1,0-.67,5.6,5.6,0,0,1,1.92-4.52,6.49,6.49,0,0,1,4.26-1.62,4.37,4.37,0,0,1,4.27,2.33Zm14.9-2.75a7.07,7.07,0,0,0-2.58-5.57,9.63,9.63,0,0,0-6.39-2.13,10.32,10.32,0,0,0-4.63,1.08A9.16,9.16,0,0,0,86,18a9.45,9.45,0,0,0-1.48,5.28,9.08,9.08,0,0,0,2.86,7A9.7,9.7,0,0,0,94.24,33a10.7,10.7,0,0,0,7.91-3.46l-2.33-2.58a6.48,6.48,0,0,1-5.21,2.47,6.1,6.1,0,0,1-5-2.26l13.7-5.75Z"/><path class="cls-1" d="M80,14.76a8.21,8.21,0,0,0-2.59,2.9V13.88h-4V32.67h4V24.61a8.14,8.14,0,0,1,1.48-5.12,5.25,5.25,0,0,1,4.41-1.9h.21l0-4A6.25,6.25,0,0,0,80,14.76"/><path class="cls-1" d="M117.45,23.1a10.53,10.53,0,0,0-1.78-1c-.56-.24-1.13-.45-1.72-.64s-1.26-.37-2-.56a9.1,9.1,0,0,1-1.78-.6,1.41,1.41,0,0,1-.92-1.34,1.67,1.67,0,0,1,.89-1.54,4.52,4.52,0,0,1,2.29-.51,8.79,8.79,0,0,1,5,1.52l1.48-2.93a10.92,10.92,0,0,0-6.14-1.91,8.35,8.35,0,0,0-5.28,1.57,5,5,0,0,0-2,4.18c0,2.48,2,4.24,5.86,5.3a3.35,3.35,0,0,1,.42.14c2.5.76,3.75,1.6,3.75,2.54a1.94,1.94,0,0,1-.78,1.58,3.32,3.32,0,0,1-2.12.61,10.62,10.62,0,0,1-6.35-2.47l-1.91,3.07a12.81,12.81,0,0,0,3.9,2.09,13.45,13.45,0,0,0,4.25.74,7.54,7.54,0,0,0,5-1.61,5.27,5.27,0,0,0,2-4.29,4.4,4.4,0,0,0-1.91-3.95"/><path class="cls-1" d="M65.12,20.32q-1.24,1.34-4.71,1.33H55.57V11.76h4.24a9.22,9.22,0,0,1,5,1.06,4,4,0,0,1,1.59,3.62,5.41,5.41,0,0,1-1.26,3.88m2.95-10.18Q65.49,8,59.88,8H51.41V32.67h4.16V25.43H60q5.44,0,8.07-2.09t2.63-6.56c0-3-.86-5.21-2.58-6.64"/><path class="cls-1" d="M128.61,29.52a2.5,2.5,0,0,1-2-.79,3.1,3.1,0,0,1-.7-2.14V17.06h4.94V13.88h-4.94V8h-4V26.49a6.34,6.34,0,0,0,1.78,4.71A5.92,5.92,0,0,0,128.06,33a6.79,6.79,0,0,0,4.61-1.87L131,28.29a3.34,3.34,0,0,1-2.43,1.23"/><path class="cls-1" d="M146.71,27.74a5.25,5.25,0,0,1-4,1.71,5.63,5.63,0,0,1-4.06-1.69,5.91,5.91,0,0,1-1.73-4.4,6.31,6.31,0,0,1,1.7-4.5,5.38,5.38,0,0,1,4.06-1.8,5.16,5.16,0,0,1,4,1.8,6.46,6.46,0,0,1,1.62,4.48,6.14,6.14,0,0,1-1.62,4.4m1.55-10.61a7.16,7.16,0,0,0-6.11-3.53,9,9,0,0,0-6.42,2.61,9.21,9.21,0,0,0-2.72,7,9.58,9.58,0,0,0,2.65,7.06A8.43,8.43,0,0,0,141.87,33a7.78,7.78,0,0,0,3.51-.87,7.36,7.36,0,0,0,2.88-2.49v3.08h4V13.88h-4v3.25Z"/><path class="cls-1" d="M210.84,27.7a6.12,6.12,0,0,1-8.51,0,6,6,0,0,1-1.68-4.43,6.06,6.06,0,0,1,1.68-4.43,6.15,6.15,0,0,1,8.51,0,6.09,6.09,0,0,1,1.67,4.43,6.08,6.08,0,0,1-1.67,4.43m-4.26-14.1a9.58,9.58,0,0,0-7.06,2.81,9.32,9.32,0,0,0-2.83,6.86,9.33,9.33,0,0,0,2.83,6.87,10.27,10.27,0,0,0,14.12,0,9.29,9.29,0,0,0,2.83-6.87,9.28,9.28,0,0,0-2.83-6.86,9.56,9.56,0,0,0-7.06-2.81"/><path class="cls-1" d="M232.32,27.72a5.64,5.64,0,0,1-4.07,1.7,5.21,5.21,0,0,1-3.95-1.72,6.12,6.12,0,0,1-1.62-4.39,6.4,6.4,0,0,1,1.62-4.47,5.17,5.17,0,0,1,4-1.78,5.39,5.39,0,0,1,4.06,1.78,6.27,6.27,0,0,1,1.7,4.49,5.88,5.88,0,0,1-1.73,4.39m3-11.51a9,9,0,0,0-6.47-2.61,7,7,0,0,0-6.1,3.57V13.88h-4V39.52h4V29.84a8.25,8.25,0,0,0,12.58.39A9.65,9.65,0,0,0,238,23.17a9.26,9.26,0,0,0-2.68-7"/><path class="cls-1" d="M187.49,13.6a7.24,7.24,0,0,0-3.69,1,6.22,6.22,0,0,0-2.56,2.72V6.5h-4V32.67h4V22.5a5,5,0,0,1,1.52-4,5.19,5.19,0,0,1,3.56-1.36q4.31,0,4.31,5.19V32.67h4V21.15a7.6,7.6,0,0,0-2-5.61,7,7,0,0,0-5.14-1.94"/><path class="cls-1" d="M172.55,20.8a13.74,13.74,0,0,0-5.72-2.58,17.58,17.58,0,0,1-5-1.71,2.61,2.61,0,0,1-1.16-2.29A2.51,2.51,0,0,1,161.87,12a5.54,5.54,0,0,1,3-.74,11.29,11.29,0,0,1,3.69.64,8.38,8.38,0,0,1,3,1.62l2.23-3.14a12.31,12.31,0,0,0-4-2.19A14.69,14.69,0,0,0,165,7.38a10,10,0,0,0-6.17,1.86,6.19,6.19,0,0,0-2.48,5.28,6,6,0,0,0,2.18,5.08A9.21,9.21,0,0,0,161.06,21a32.61,32.61,0,0,0,4.13,1.2A11.69,11.69,0,0,1,169,23.68a2.56,2.56,0,0,1,1.12,2.22A2.72,2.72,0,0,1,169,28.2a5.27,5.27,0,0,1-3.19.86A11.76,11.76,0,0,1,158,25.82L155.38,29a15,15,0,0,0,10.27,4,9.7,9.7,0,0,0,6.39-2,6.48,6.48,0,0,0,2.44-5.25,6.09,6.09,0,0,0-1.93-4.89"/><path class="cls-1" d="M15.44,30.58l.93-.38c.35-.13.71-.26,1.07-.36s.91-.26,1.37-.36a16.9,16.9,0,0,1,1.87-.29c-.35,1.11-.74,2.22-1.17,3.32,0,.22,0,.43,0,.65a13.53,13.53,0,0,1,5.28,0c0-.22,0-.43,0-.65-.43-1.1-.82-2.21-1.18-3.32a16.71,16.71,0,0,1,1.88.29c.46.1.92.22,1.37.36s.72.23,1.07.36l.93.38a16.7,16.7,0,0,1,5.78,4.27,19.19,19.19,0,1,0-25.06,0A16.7,16.7,0,0,1,15.44,30.58Z"/><path class="cls-2" d="M16.7,34.05a13.88,13.88,0,0,1,2.85-.89c0-.22,0-.43,0-.65.43-1.1.82-2.21,1.17-3.32a16.9,16.9,0,0,0-1.87.29c-.46.1-.92.22-1.37.36s-.72.23-1.07.36l1.4.34Z"/><path class="cls-2" d="M13.41,36.12c0-.35.05-.72.05-1.08a.4.4,0,0,1,.4-.4h.35l1.23-4.06a16.7,16.7,0,0,0-5.78,4.27,19.21,19.21,0,0,0,2.89,2.07A10.85,10.85,0,0,1,13.41,36.12Z"/><path class="cls-2" d="M28.94,30.58l1.23,4.06h.35a.4.4,0,0,1,.4.4c0,.36,0,.73,0,1.08.3.25.58.52.86.8a19.21,19.21,0,0,0,2.89-2.07A16.7,16.7,0,0,0,28.94,30.58Z"/><path class="cls-2" d="M26.61,30.54,28,30.2c-.35-.13-.71-.26-1.07-.36s-.91-.26-1.37-.36a16.71,16.71,0,0,0-1.88-.29c.36,1.11.75,2.22,1.18,3.32,0,.22,0,.43,0,.65a13.6,13.6,0,0,1,2.84.89Z"/><path d="M22.19,34.64h2.7a12.29,12.29,0,0,1-.06-1.48,13.53,13.53,0,0,0-5.28,0,12.29,12.29,0,0,1-.06,1.48Z"/><path d="M12.55,36.92c.22.13.45.25.68.37a11,11,0,0,0,.18-1.17A10.85,10.85,0,0,0,12.55,36.92Z"/><path d="M16.53,34.64h3a12.29,12.29,0,0,0,.06-1.48,13.88,13.88,0,0,0-2.85.89Z"/><path d="M31,36.12a11,11,0,0,0,.18,1.17c.23-.12.46-.24.68-.37C31.55,36.64,31.27,36.37,31,36.12Z"/><path d="M27.85,34.64l-.18-.59a13.6,13.6,0,0,0-2.84-.89,12.29,12.29,0,0,0,.06,1.48Z"/><path class="cls-3" d="M16.53,34.64l.17-.59,1.07-3.51-1.4-.34-.93.38-1.23,4.06h2.32Z"/><path class="cls-3" d="M27.67,34.05l.18.59h2.32l-1.23-4.06L28,30.2l-1.4.34Z"/><path class="cls-4" d="M14.25,35.46l0,0h0Z"/><path class="cls-4" d="M22.19,35.44h-7.9l0,0a12.26,12.26,0,0,1-.29,2.2,19,19,0,0,0,8.23,1.85Z"/><path class="cls-3" d="M30.13,35.44h0l0,0Z"/><path class="cls-3" d="M30.09,35.44h-7.9v4.07a19,19,0,0,0,8.23-1.85,12.26,12.26,0,0,1-.29-2.2Z"/><path class="cls-5" d="M31,36.12c0-.35,0-.72,0-1.08a.4.4,0,0,0-.4-.4H13.86a.4.4,0,0,0-.4.4c0,.36,0,.73-.05,1.08a11,11,0,0,1-.18,1.17c.24.13.48.26.73.37a12.26,12.26,0,0,0,.29-2.2v0H30.13v0a12.26,12.26,0,0,0,.29,2.2c.25-.11.49-.24.73-.37A11,11,0,0,1,31,36.12Z"/><path class="cls-6" d="M28.65,17.41h0a15.58,15.58,0,0,1,.65,2.11c0,.05,0,.1,0,.16a1.77,1.77,0,0,0,0,.2c0-.09,0-.2.06-.34a16.36,16.36,0,0,0-.66-2.13Z"/><path class="cls-6" d="M34.24,21.75h0Z"/><path class="cls-6" d="M34.36,21.65s0,0,0,0S34.35,21.67,34.36,21.65Z"/><path class="cls-6" d="M28.07,16.9a11.46,11.46,0,0,0-1.39-1h0A11.46,11.46,0,0,1,28.07,16.9Z"/><path class="cls-6" d="M32.52,21.5v0Z"/><path class="cls-6" d="M33.33,22.52l0,.05Z"/><path class="cls-6" d="M29.24,19.91a.54.54,0,0,1,0,.15A.54.54,0,0,0,29.24,19.91Z"/><path class="cls-6" d="M27.36,26.91a5.21,5.21,0,0,0-.59,1.39,5.21,5.21,0,0,1,.59-1.39l.28-.47-.28.47Z"/><path class="cls-6" d="M28.65,17.41l.05-.11h0l-.05.1.34.3Z"/><path class="cls-6" d="M24.84,19.92h0Z"/><path class="cls-6" d="M26,15.5l-.06,0Z"/><path class="cls-6" d="M26.09,15.56,26,15.51Z"/><path class="cls-6" d="M26.72,17.1v0Z"/><path class="cls-6" d="M24.78,19.76Z"/><path class="cls-6" d="M34.12,23.53l.07.09Z"/><path class="cls-6" d="M26.72,17.71c0,.2,0,.4,0,.6C26.71,18.11,26.72,17.91,26.72,17.71Z"/><path class="cls-6" d="M24.89,20.1Z"/><path class="cls-6" d="M26.64,15.87l-.42-.24Z"/><path class="cls-6" d="M26.21,15.62l-.11-.06Z"/><path class="cls-6" d="M26.67,15.89Z"/><path class="cls-6" d="M34.76,20.55V20.5h0v.06Z"/><path class="cls-6" d="M31.62,20.43l.05.06h0l-.06-.06Z"/><path class="cls-6" d="M29,17.71q.39.34.75.72Q29.38,18.06,29,17.71Z"/><path class="cls-6" d="M34,19.18l.14,0Z"/><path class="cls-6" d="M33.25,20.13s0,0,0,.07S33.25,20.15,33.25,20.13Z"/><path class="cls-6" d="M34.17,19.21l.09.05Z"/><path class="cls-6" d="M34.46,19.46l0,0Z"/><path class="cls-6" d="M34.74,20.22h0v0Z"/><path class="cls-6" d="M34.74,20.78h0v0Z"/><path class="cls-6" d="M33.49,19.5l0,0Z"/><path class="cls-6" d="M33.85,19.2l.14,0Z"/><path class="cls-6" d="M30.44,19.14l-.35-.37Z"/><path class="cls-6" d="M34,15h0v1.79l-.68,3.13v0h0L34,16.77V15Z"/><path class="cls-6" d="M31.08,19.83l-.18-.21Z"/><path class="cls-6" d="M34.67,19.89l0,.08h0l0-.08Z"/><path class="cls-6" d="M33.22,20.49h0v0Z"/><path class="cls-6" d="M33.72,19.26l.09-.05Z"/><path class="cls-6" d="M33.58,19.38l.1-.09Z"/><path class="cls-6" d="M34.7,21h0l-.06.19L34.7,21Z"/><path class="cls-6" d="M11.31,19.91l.09-.14Z"/><path class="cls-6" d="M34.3,19.29l.1.09Z"/><path class="cls-6" d="M11.85,19.11l0-.06Z"/><path class="cls-6" d="M24.93,20.48Z"/><path class="cls-6" d="M10.48,21.44a2,2,0,0,0-.1.21A2,2,0,0,1,10.48,21.44Z"/><path class="cls-6" d="M10.06,22.42l0,0Z"/><polygon class="cls-6" points="34.47 15.44 34.46 15.43 34.46 15.43 34.47 15.44"/><path class="cls-6" d="M13.85,17h0Z"/><path class="cls-6" d="M13.1,17.65l.11-.11Z"/><path class="cls-6" d="M12.42,18.39l.12-.13Z"/><path class="cls-6" d="M34.67,19.9,34,16.77Z"/><path class="cls-6" d="M22.76,22.27h0Z"/><path class="cls-6" d="M22.94,22.29h0Z"/><path class="cls-6" d="M10.9,20.61l-.13.23Z"/><path class="cls-6" d="M22.24,22.07Z"/><path class="cls-6" d="M22.58,22.22h0Z"/><path class="cls-6" d="M22.41,22.15h0Z"/><path class="cls-6" d="M21.45,21.18Z"/><path class="cls-6" d="M21.37,20.08a.08.08,0,0,0,0,0A.08.08,0,0,1,21.37,20.08Z"/><path class="cls-6" d="M21.55,19.6h0Z"/><path class="cls-6" d="M22.15,19Z"/><path class="cls-6" d="M21.41,19.92v0Z"/><path class="cls-6" d="M21.48,19.76h0Z"/><path class="cls-6" d="M23.48,18.72h0Z"/><path class="cls-6" d="M23.81,18.82Z"/><path class="cls-6" d="M22.46,18.82h0Z"/><path class="cls-6" d="M22.79,18.72h0Z"/><path class="cls-6" d="M24.92,20.28Z"/><path class="cls-6" d="M34.52,21.46l-.06.09Z"/><path class="cls-6" d="M21.33,20.26v0Z"/><path class="cls-6" d="M21.35,20.85Z"/><path class="cls-6" d="M34.61,21.27a.38.38,0,0,1-.06.13A.38.38,0,0,0,34.61,21.27Z"/><path class="cls-2" d="M27.68,31.9l-.18-.21.18.21Z"/><path class="cls-3" d="M28.13,32.34v0a3.23,3.23,0,0,1-.45-.44h0A3.23,3.23,0,0,0,28.13,32.34Z"/><circle class="cls-7" cx="33.98" cy="14.98"/><path class="cls-7" d="M34.76,20.5Z"/><path class="cls-8" d="M35,16.05h0a7.75,7.75,0,0,0-.5-.61h0l-.23-.24-.09-.08L34,15h0v1.78l.68,3.13h0l0,.08.47.53h.5v-.14h0A13.42,13.42,0,0,0,35,16.13h0S35,16.08,35,16.05Z"/><path class="cls-8" d="M34.76,20.5h0Z"/><path class="cls-9" d="M34.74,20.2v0h0a1.64,1.64,0,0,1,0,.22v0h0v0a1.5,1.5,0,0,1,0,.22h0v0a1.57,1.57,0,0,1,0,.23h0l.47-.52L34.7,20h0A1.57,1.57,0,0,1,34.74,20.2Z"/><path d="M34.74,20.8v0a1.5,1.5,0,0,0,0-.22v-.1a1.64,1.64,0,0,0,0-.22v0a1.57,1.57,0,0,0,0-.23l0-.08a1.17,1.17,0,0,0-.18-.39l0,0-.06-.08-.1-.09,0,0-.09-.05h0l-.14,0-.14,0h0l-.09.05,0,0-.1.09-.06.08,0,0a1.13,1.13,0,0,0-.18.4h0a1.42,1.42,0,0,0,0,.22s0,0,0,.07a2.11,2.11,0,0,0,0,.26v0h0c0,.73.35,1.33.77,1.33a.37.37,0,0,0,.21-.06h0l.08-.06s0,0,0,0l.1-.1.06-.09,0-.06a.38.38,0,0,0,.06-.13l0-.05L34.7,21A1.57,1.57,0,0,0,34.74,20.8ZM34,20.32c-.16,0-.29-.22-.29-.49s.13-.5.29-.5.29.22.29.5S34.18,20.32,34,20.32Z"/><ellipse class="cls-7" cx="34.02" cy="19.83" rx="0.29" ry="0.5"/><path class="cls-10" d="M33.31,19.9h0a1.13,1.13,0,0,1,.18-.4l0,0,.06-.08.1-.09,0,0,.09-.05h0l.14,0,.14,0h0l.09.05,0,0,.1.09.06.08,0,0a1.17,1.17,0,0,1,.18.39h0L34,16.77l-.68,3.13Z"/><path d="M24.93,20.47a1.28,1.28,0,0,0,0-.19h0l0-.18h0a.84.84,0,0,0-.05-.17h0l-.06-.16h0c0-.06-.05-.11-.08-.16h0a1.86,1.86,0,0,0-.33-.41,1.76,1.76,0,0,0-.56-.37h0l-.33-.1h0a1.94,1.94,0,0,0-.68,0h0a1.6,1.6,0,0,0-.31.1h0l-.3.15h0a1.71,1.71,0,0,0-.26.21h0a1.86,1.86,0,0,0-.33.41h0a1,1,0,0,0-.07.15h0l-.06.15v0l0,.14a.08.08,0,0,0,0,0l0,.14v0a1.15,1.15,0,0,0,0,.19,2,2,0,0,0,0,.34h0c0,.11.06.22.1.33h0a2.15,2.15,0,0,0,.37.57,2.59,2.59,0,0,0,.42.32h0l.15.08h0l.14.06h0l.14,0h0l.14,0h.23a1.82,1.82,0,0,0,.7-.14,1.34,1.34,0,0,0,.31-.17,1.86,1.86,0,0,0,.49-.48,1.91,1.91,0,0,0,.3-1v0h0Zm-1.8-.21a.68.68,0,1,1,.68-.68A.68.68,0,0,1,23.13,20.26Z"/><circle class="cls-7" cx="23.13" cy="19.58" r="0.68"/><path class="cls-8" d="M21.88,19.19h0l1.25-3.81v-.89h0A10.86,10.86,0,0,0,21,14.25c-.24,0-.49,0-.73,0h-.1a10.82,10.82,0,0,0-3.62.94A11.72,11.72,0,0,0,13.85,17h0c-.22.18-.43.38-.64.58l-.11.11c-.2.2-.38.4-.56.61l-.12.13c-.18.22-.36.43-.53.66l0,.06c-.16.21-.31.44-.45.66l-.09.14c-.12.18-.23.38-.34.57h5.67Z"/><path class="cls-11" d="M26.67,18.76l0-.45c0-.2,0-.4,0-.6V17.1c0-.4,0-.8,0-1.21h0l-.42-.24h0l-.11-.06h0L26,15.51h0l-.06,0c-.26-.14-.53-.26-.8-.38a13.44,13.44,0,0,0-2-.62v.9l1.23,3.81h0a1.86,1.86,0,0,1,.33.41h0s.05.1.08.16h0l.06.16h0a.84.84,0,0,1,.05.17h0l0,.18h0a1.21,1.21,0,0,1,0,.19h1.52c.1-.55.17-1.11.22-1.68Z"/><path class="cls-12" d="M28.65,17.41Z"/><path class="cls-12" d="M25,25.92l1-1,.54-.57a11.7,11.7,0,0,0,2.74-4.3.54.54,0,0,0,0-.15v0a1.77,1.77,0,0,1,0-.2c0-.06,0-.11,0-.16a15.58,15.58,0,0,0-.65-2.11h0l-.15-.12-.43-.39a11.46,11.46,0,0,0-1.39-1h0c0,.41,0,.81,0,1.21v.61c0,.2,0,.4,0,.6l0,.45v0c-.05.57-.12,1.13-.22,1.68l-.18.84a26.37,26.37,0,0,1-1.74,4.27c-.17.38-.32.75-.46,1.14l0,.11.5-.51Z"/><path class="cls-10" d="M21.89,19.18h0a1.71,1.71,0,0,1,.26-.21h0l.3-.15h0a1.6,1.6,0,0,1,.31-.1h0a1.94,1.94,0,0,1,.68,0h0l.33.1h0a1.76,1.76,0,0,1,.56.37h0l-1.23-3.81Z"/><path class="cls-9" d="M21.45,21.18a3.18,3.18,0,0,1-.1-.33h0a2.07,2.07,0,0,1,0-.35,1.15,1.15,0,0,1,0-.19.09.09,0,0,1,0,0,.78.78,0,0,1,0-.14.08.08,0,0,1,0,0l0-.14,0,0a.88.88,0,0,1,0-.15h0a1,1,0,0,1,.07-.15h0a1.86,1.86,0,0,1,.33-.41h0l-5.24,1.29h0l5.19,1.27a2.15,2.15,0,0,1-.37-.57Z"/><path class="cls-11" d="M33.24,20.2s0-.05,0-.07a1.42,1.42,0,0,1,0-.22v0L34,16.76V15a2.8,2.8,0,0,0-1.78-.71,3.06,3.06,0,0,0-2.07,1A8,8,0,0,0,28.7,17.3a.93.93,0,0,1-.05.1l.34.31q.39.34.75.72l.35.34c.12.12.24.24.35.37s.31.32.45.48l.19.21.54.6h0l.06.06h1.54v0A2.11,2.11,0,0,1,33.24,20.2Z"/><path class="cls-11" d="M28.65,17.41Z"/><path class="cls-2" d="M10,22.45l0,0a7.35,7.35,0,0,1,.32-.77,2,2,0,0,1,.1-.21c.09-.2.19-.4.29-.6l.13-.23c0-.05,0-.09.07-.13.11-.19.22-.39.34-.57l.09-.14c.14-.22.29-.45.45-.66l0-.06c.17-.23.35-.44.53-.66l.12-.14c.18-.2.36-.4.56-.6l.11-.11c.21-.2.42-.4.64-.58h0A6.85,6.85,0,0,1,24,13a7,7,0,0,1,2.58,2.8v0l0,.09h0a12.29,12.29,0,0,1,1.39,1l.43.39.14.12h0a.31.31,0,0,1,.05-.1c.44-2.78,1.66-4.78,3.11-4.78,1.08,0,2.05,1.14,2.65,2.88v0h0a6.11,6.11,0,0,1,.5.6h0a.19.19,0,0,0,0,.08h0L35,16a13.46,13.46,0,0,0-25.55,8.5h0c.09-.4.19-.79.31-1.18S9.93,22.75,10,22.45Z"/><path class="cls-7" d="M35.17,20.5,34.7,21h0l-.06.19,0,.05a.38.38,0,0,1-.06.13l0,.06-.06.09-.1.1s0,0,0,0l-.08.06h0a.37.37,0,0,1-.21.06c-.42,0-.77-.6-.77-1.33H31.67l.85,1v0c.27.33.54.66.8,1l0,.05.75,1,.07.09.77,1h0a13.36,13.36,0,0,0,.7-4.17h-.5Z"/><path d="M20.17,14.28h.1l.73,0a10.86,10.86,0,0,1,2.14.22h0v0a13.81,13.81,0,0,1,2,.62c.27.12.54.24.8.38l.06,0h0l.08.05h0l.11.06h0l.42.24h0l0-.09v0A7,7,0,0,0,24,13a6.85,6.85,0,0,0-10.19,4,11.72,11.72,0,0,1,2.7-1.73A10.82,10.82,0,0,1,20.17,14.28Z"/><path d="M30.14,15.23a3.1,3.1,0,0,1,2.07-1A2.8,2.8,0,0,1,34,15h0l.15.13.09.08.23.24h0v0c-.6-1.74-1.57-2.88-2.65-2.88-1.45,0-2.67,2-3.11,4.78h0A8,8,0,0,1,30.14,15.23Z"/><path class="cls-7" d="M17.4,32.9l.37.14a13.52,13.52,0,0,0,9.47-.22l.24-.1.4-.18.34-.16h-.08a5.7,5.7,0,0,1-1.43,0c-2.77-.4-3.38-1.73-3.29-3.12a7.07,7.07,0,0,1-.61-.4,18,18,0,0,1-3.4-3.19,18.12,18.12,0,0,0,4.1,2.22l.15.06c.12-.4.25-.78.37-1.11h0l0-.11c.14-.39.29-.76.46-1.14a26.37,26.37,0,0,0,1.74-4.27l.18-.84H24.93v0a1.91,1.91,0,0,1-.3,1,1.9,1.9,0,0,1-.49.49,1.91,1.91,0,0,1-1,.3H22.9l-.14,0h0l-.14,0h0a.59.59,0,0,1-.14-.06h0l-.15-.08h0a2.59,2.59,0,0,1-.42-.32l-5.19-1.27H11s-.05.08-.07.13-.09.16-.13.24-.2.39-.29.59a2,2,0,0,0-.1.21c-.12.25-.22.51-.32.77l0,0c-.11.3-.21.6-.31.9a12,12,0,0,0-.3,1.18,13.42,13.42,0,0,0,4.89,6.7l.2.14c.39.27.78.52,1.19.75A12.36,12.36,0,0,0,17.4,32.9Z"/><path class="cls-13" d="M26.69,28.72a3.28,3.28,0,0,0,0,.43,4.11,4.11,0,0,0,0,.71c0,.14.06.29.1.42a4.37,4.37,0,0,0,.21.58c.09.18.18.34.27.49l.09.14.15.2.17.21a3.23,3.23,0,0,0,.45.44v0h.08A9.21,9.21,0,0,0,30,31.93c.3-.11.6-.23.9-.37l.27-.13a23.59,23.59,0,0,0,5.67-4.13A16.85,16.85,0,0,1,26.69,28.72Z"/><path class="cls-14" d="M34.12,23.53l-.75-1,0-.05c-.26-.34-.53-.67-.8-1v0l-.85-1-.05-.06-.54-.6-.18-.21-.46-.48-.35-.37-.35-.34q-.36-.37-.75-.72l-.34-.3h0a16.36,16.36,0,0,1,.66,2.13l.09.56c.34,2.52-.47,4.17-1.76,6.34l-.28.47a5.21,5.21,0,0,0-.59,1.39,3.43,3.43,0,0,0-.08.42A16.81,16.81,0,0,0,36.86,27.3s-.75-1.11-1.9-2.65l-.77-1Z"/><path d="M28.13,32.34a3.23,3.23,0,0,1-.45-.44l-.18-.21a2.43,2.43,0,0,0-.14-.2l-.09-.14c-.09-.15-.18-.31-.27-.49a4.37,4.37,0,0,1-.21-.58c0-.13-.07-.28-.1-.43a3.94,3.94,0,0,1,0-.7,3.28,3.28,0,0,1,0-.43,3.1,3.1,0,0,1,.08-.42,5.21,5.21,0,0,1,.59-1.39h0l.28-.47c1.29-2.17,2.1-3.82,1.76-6.34l-.09-.56c0,.13,0,.25-.06.34v0a.54.54,0,0,1,0,.15,11.7,11.7,0,0,1-2.74,4.3l-.54.57-1,1-.42.41-.5.51h0c-.12.33-.25.71-.37,1.1l-.15-.05a18.12,18.12,0,0,1-4.1-2.22,18,18,0,0,0,3.4,3.19c.2.15.41.28.6.4-.08,1.39.53,2.72,3.3,3.12a5.7,5.7,0,0,0,1.43,0v0Z"/></g></svg>