<svg id="Color_Palette" data-name="Color Palette" xmlns="http://www.w3.org/2000/svg" viewBox="0 0 55.72 40.65"><defs><style>.cls-1{fill:#c5c8c9;}</style></defs><path class="cls-1" d="M15.66,19.32a6.05,6.05,0,0,0-.88-.07,1.47,1.47,0,0,0-.94.23.72.72,0,0,0-.28.63.82.82,0,0,0,.09.42.64.64,0,0,0,.19.19,1.43,1.43,0,0,0,.94.19,6.57,6.57,0,0,0,.88-.12h0Z"/><path class="cls-1" d="M35,17.39a1,1,0,0,0-.92.45,2.36,2.36,0,0,0-.31,1.29,2.38,2.38,0,0,0,.31,1.3,1,1,0,0,0,.92.45,1,1,0,0,0,.93-.45,2.38,2.38,0,0,0,.31-1.3,2.36,2.36,0,0,0-.31-1.29A1,1,0,0,0,35,17.39Z"/><path class="cls-1" d="M22,17.37a1,1,0,0,0-.92.47,1.85,1.85,0,0,0-.26.76h2.3a1.61,1.61,0,0,0-.21-.76A1,1,0,0,0,22,17.37Z"/><path class="cls-1" d="M43.71,6.11a11.92,11.92,0,0,0-4.86,1A9.88,9.88,0,0,0,30.25,2a9.77,9.77,0,0,0-7.06,3A10.82,10.82,0,0,0,4.65,15.93,9.42,9.42,0,0,0,9.3,33.47a9.24,9.24,0,0,0,1.91-.2,10,10,0,0,0,18.63.45,8.67,8.67,0,0,0,3.84.88,8.77,8.77,0,0,0,7.66-4.49,12.53,12.53,0,0,0,2.37.23,12.12,12.12,0,0,0,0-24.23ZM11.93,20.17c0,1-.71,1.59-1.85,1.59a3.43,3.43,0,0,1-1.67-.39l-.32-.19a.11.11,0,0,1,0-.13l.23-.63c0-.1.11-.07.15-.05l.19.12a2.66,2.66,0,0,0,1.47.42c.49,0,.8-.26.8-.61v0c0-.39-.47-.53-1-.7l-.12,0C9,19.32,8.21,19,8.21,18.06v0A1.59,1.59,0,0,1,10,16.5h.12a3.24,3.24,0,0,1,1.63.44.11.11,0,0,1,.06.13l-.23.63c0,.1-.15,0-.15,0A3.29,3.29,0,0,0,10,17.36c-.44,0-.72.23-.72.55v0c0,.38.48.54,1,.72l.1,0c.75.24,1.55.57,1.55,1.47Zm4.68,1.27-.23.06c-.1,0-.49.1-.81.16a6.37,6.37,0,0,1-1,.08,3.7,3.7,0,0,1-.85-.09,1.8,1.8,0,0,1-.66-.28,1.23,1.23,0,0,1-.42-.51,1.64,1.64,0,0,1-.15-.73,1.6,1.6,0,0,1,.17-.75,1.49,1.49,0,0,1,.47-.53,1.88,1.88,0,0,1,.67-.31,3,3,0,0,1,.8-.11l.5,0,.54.06v-.14c0-.43-.09-.63-.27-.77a1.37,1.37,0,0,0-.8-.2,3.38,3.38,0,0,0-1.41.32l0,0a.07.07,0,0,1-.1-.05l-.23-.62a.1.1,0,0,1,0-.13,3.25,3.25,0,0,1,1-.36,4.94,4.94,0,0,1,.87-.08,2.18,2.18,0,0,1,1.48.45,1.81,1.81,0,0,1,.51,1.42v3A.09.09,0,0,1,16.61,21.44Zm2.17.1a.09.09,0,0,1-.09.09h-.86a.09.09,0,0,1-.09-.09v-6.9a.09.09,0,0,1,.09-.09h.86a.09.09,0,0,1,.09.09Zm5.35-2.22c0,.08-.1.08-.1.08H20.8a1.5,1.5,0,0,0,.38,1.07,1.48,1.48,0,0,0,1.1.38,3.3,3.3,0,0,0,1.33-.23.09.09,0,0,1,.12.05l.21.59c0,.1,0,.14,0,.16a3.43,3.43,0,0,1-1.63.32,3.15,3.15,0,0,1-1.17-.19,2.13,2.13,0,0,1-.81-.54,2,2,0,0,1-.47-.82,3.37,3.37,0,0,1-.15-1,3.77,3.77,0,0,1,.14-1,2.41,2.41,0,0,1,.44-.84,2.19,2.19,0,0,1,.74-.57,2.56,2.56,0,0,1,1.07-.2,2.36,2.36,0,0,1,.92.18,2,2,0,0,1,.62.47,2,2,0,0,1,.41.76A3.51,3.51,0,0,1,24.13,19.32Zm1,2.05-.31-.19a.11.11,0,0,1,0-.13l.23-.63c0-.1.13-.06.15-.05l.19.12a2.68,2.68,0,0,0,1.47.42c.5,0,.81-.26.81-.61v0c0-.39-.48-.53-1-.7l-.12,0c-.76-.22-1.56-.53-1.56-1.48v0a1.59,1.59,0,0,1,1.77-1.54h.12a3.28,3.28,0,0,1,1.64.44.1.1,0,0,1,.05.13l-.23.63c0,.1-.15,0-.15,0a3.28,3.28,0,0,0-1.45-.37c-.45,0-.73.23-.73.55v0c0,.38.49.54,1.05.72l.1,0c.75.24,1.55.57,1.55,1.47v0c0,1-.71,1.59-1.85,1.59A3.43,3.43,0,0,1,25.14,21.37Zm7.31-4a.12.12,0,0,1-.11.1H31.28l-.73,4.11a5.92,5.92,0,0,1-.28,1.09,2.14,2.14,0,0,1-.42.72,1.64,1.64,0,0,1-.6.42,2.34,2.34,0,0,1-.79.12A1.64,1.64,0,0,1,28,23.9l-.3-.08a.1.1,0,0,1-.05-.13c0-.07.21-.59.24-.66S28,23,28,23l.17.06.26,0a1.12,1.12,0,0,0,.38-.06.57.57,0,0,0,.3-.23,1.8,1.8,0,0,0,.22-.46,5.6,5.6,0,0,0,.2-.79l.72-4h-.71c-.09,0-.12,0-.11-.11l.12-.67a.1.1,0,0,1,.11-.09h.73l0-.22a2.71,2.71,0,0,1,.65-1.47,1.86,1.86,0,0,1,1.37-.49,1.94,1.94,0,0,1,.44,0l.32.07h0a.09.09,0,0,1,.06.11l-.25.68c0,.05,0,.08-.14.05l-.17,0-.26,0a1.25,1.25,0,0,0-.35,0,.77.77,0,0,0-.27.17.92.92,0,0,0-.22.35,5.17,5.17,0,0,0-.18.73h1c.08,0,.11,0,.1.1Zm4.73,2.77a2.43,2.43,0,0,1-.43.83,2.14,2.14,0,0,1-.74.55,2.7,2.7,0,0,1-2,0,2,2,0,0,1-.73-.55,2.29,2.29,0,0,1-.44-.83,3.77,3.77,0,0,1-.14-1,3.7,3.7,0,0,1,.14-1,2.26,2.26,0,0,1,.43-.83,2.3,2.3,0,0,1,.74-.56,2.7,2.7,0,0,1,2,0,2.3,2.3,0,0,1,.74.56,2.26,2.26,0,0,1,.43.83,3.7,3.7,0,0,1,.14,1A3.77,3.77,0,0,1,37.18,20.16Zm3.75-2.7c0,.06-.06.1-.12.09a1.87,1.87,0,0,0-.35,0,1.45,1.45,0,0,0-.44.06.93.93,0,0,0-.4.24,1.25,1.25,0,0,0-.28.47,2.88,2.88,0,0,0-.11.85v2.41a.09.09,0,0,1-.09.09h-.85a.09.09,0,0,1-.1-.09V16.72a.09.09,0,0,1,.09-.1h.83a.09.09,0,0,1,.09.1v.39a1.59,1.59,0,0,1,.55-.4,1.56,1.56,0,0,1,.83-.13,2.64,2.64,0,0,1,.54.09.08.08,0,0,1,.05.11Zm4.28,4a3.92,3.92,0,0,1-1.35.24A2.4,2.4,0,0,1,42,21a2.72,2.72,0,0,1-.64-1.9,3.13,3.13,0,0,1,.16-1,2.33,2.33,0,0,1,.46-.83,2.08,2.08,0,0,1,.77-.55,2.51,2.51,0,0,1,1.06-.21,5.08,5.08,0,0,1,.72,0,3.17,3.17,0,0,1,.63.16s.09,0,.06.11l-.23.65c0,.1-.11.07-.11.07a3.2,3.2,0,0,0-1-.14,1.24,1.24,0,0,0-1.06.46,2.12,2.12,0,0,0-.37,1.26,1.84,1.84,0,0,0,.41,1.3,1.48,1.48,0,0,0,1.1.41,2.89,2.89,0,0,0,.52,0,2,2,0,0,0,.44-.12.09.09,0,0,1,.12.05l.24.65A.1.1,0,0,1,45.21,21.5ZM50,19.32a.09.09,0,0,1-.09.08H46.67A1.54,1.54,0,0,0,47,20.47a1.52,1.52,0,0,0,1.11.38,3.23,3.23,0,0,0,1.32-.23.1.1,0,0,1,.13.05l.21.59c0,.1,0,.14,0,.16a3.36,3.36,0,0,1-1.63.32A3.19,3.19,0,0,1,47,21.55a2.09,2.09,0,0,1-1.28-1.36,3.37,3.37,0,0,1-.15-1,3.42,3.42,0,0,1,.15-1,2.39,2.39,0,0,1,.43-.84,2.14,2.14,0,0,1,.75-.57,2.48,2.48,0,0,1,1.06-.2,2.41,2.41,0,0,1,.93.18,2,2,0,0,1,.61.47,2.14,2.14,0,0,1,.42.76A3.62,3.62,0,0,1,50,19.32Z"/><path class="cls-1" d="M47.87,17.37a1,1,0,0,0-.93.47,2,2,0,0,0-.26.76H49a1.62,1.62,0,0,0-.22-.76A1,1,0,0,0,47.87,17.37Z"/></svg>