<svg id="Color_Palette" data-name="Color Palette" xmlns="http://www.w3.org/2000/svg" viewBox="0 0 138.92 40.65"><defs><style>.cls-1{fill:#c5c8c9;}.cls-2{fill:#fefefe;}</style></defs><path class="cls-1" d="M17.44,40.05c-2.32-1.64-4.86-2.9-7.29-4.35s-5.05-3-7.58-4.4a2.08,2.08,0,0,1-1.14-1.94q0-8.52,0-17a2.07,2.07,0,0,1,1.13-1.94Q9.81,6.19,17,2A2.24,2.24,0,0,1,19.5,2q7.13,4.16,14.27,8.28a2.39,2.39,0,0,1,1.28,2.33c0,5.45,0,10.91,0,16.36a2.51,2.51,0,0,1-1.44,2.46c-4.58,2.62-9.13,5.28-13.68,7.94-.32.18-.7.3-.89.66Z"/><path class="cls-1" d="M135.36,16c-.41.07-.76.08-.72-.52s0-1.13,0-1.85a6.63,6.63,0,0,0-1,1.92c-.09.18-.11.52-.41.44-.13,0-.24-.26-.31-.42a7.28,7.28,0,0,0-1-1.83c0,.57,0,1.15,0,1.72,0,.25.06.55-.35.57s-.37-.3-.37-.55c0-.95,0-1.9,0-2.84,0-.24-.11-.58.3-.62s.69-.07.85.36c.26.66.53,1.32.84,2.08.85-.82.44-2.59,2.12-2.56Z"/><path class="cls-1" d="M85.12,17.31A5.62,5.62,0,0,1,89,15.81c2.14.06,3.33,1.15,3.38,3.29.05,2.31,0,4.62,0,6.93,0,.64-.28.73-.82.74-2.1.08-2.1.09-2.1-2,0-1.52,0-3,0-4.55,0-1.32-.64-1.91-1.88-1.9a2.2,2.2,0,0,0-2.46,2c0,1.78,0,3.56,0,5.34,0,.75-.14,1.06-1,1.05-1.85-.05-1.85,0-1.85-1.87,0-3.94,0-7.88,0-11.82,0-.81.14-1.22,1-1.06A2.22,2.22,0,0,0,84,12c.87-.13,1.19.16,1.13,1.09C85.06,14.43,85.12,15.75,85.12,17.31Z"/><path class="cls-1" d="M54.13,17.48a5.36,5.36,0,0,1,4.48-1.62A2.77,2.77,0,0,1,61.3,18.7c.06,2.46,0,4.93,0,7.39,0,.7-.36.67-.85.68s-.92-.06-.91-.78c0-2,0-4,0-6,0-1.69-.41-2.31-1.64-2.58s-3.27.53-3.7,1.5a2.53,2.53,0,0,0-.11,1c0,2,0,4,0,6,0,.73-.28.87-.94.87s-.82-.19-.82-.83q0-6.54,0-13.07c0-.73.25-.85.91-.86s.88.29.86.94C54.11,14.39,54.13,15.81,54.13,17.48Z"/><path class="cls-1" d="M42.07,24.16a5.51,5.51,0,0,0,3.26,1.43,3.48,3.48,0,0,0,1.78-.29,1.56,1.56,0,0,0,1-1.42,1.32,1.32,0,0,0-1-1.33c-1.22-.41-2.48-.7-3.68-1.15A2.55,2.55,0,0,1,41.67,18a3,3,0,0,1,1.48-1.65A6.11,6.11,0,0,1,49,16.9c.62.48.23.77,0,1.2-.34.62-.56.19-.85,0a4.18,4.18,0,0,0-3.45-.77c-.79.16-1.46.56-1.51,1.45s.64,1.12,1.31,1.31c1.06.31,2.13.56,3.17.93a2.8,2.8,0,0,1,2.1,2.79,3,3,0,0,1-2.06,2.84,6.27,6.27,0,0,1-5.19-.31C41.15,25.64,41.12,25.42,42.07,24.16Z"/><path class="cls-1" d="M110.22,17.36a6,6,0,0,1,2.85-1.49c.36,0,.6,0,.59.41s0,1.21,0,1.81c0,.42-.17.47-.56.45a3.91,3.91,0,0,0-1.22.17c-1.07.32-1.76.84-1.65,2.17.13,1.65,0,3.32,0,5,0,.67-.15.91-.88.91-2,0-2,0-2-1.86,0-2.61,0-5.22,0-7.83,0-.85.21-1.19,1.07-1.05a1.75,1.75,0,0,0,.56,0C109.91,15.91,110.48,16.09,110.22,17.36Z"/><path class="cls-1" d="M66.31,21.4c0,1.51,0,3,0,4.53,0,.77-.32.85-1,.85s-.85-.19-.84-.84c0-3,0-6,0-9.07,0-.76.33-.84,1-.85s.86.2.85.85C66.28,18.38,66.31,19.89,66.31,21.4Z"/><path class="cls-1" d="M129.21,11.94h.8c.26,0,.6,0,.66.28s-.34.46-.63.45c-.56,0-.59.29-.58.72,0,.71,0,1.43,0,2.15,0,.25-.05.45-.37.45s-.36-.21-.36-.45c0-.57,0-1.14,0-1.71s.24-1.36-.86-1.18c-.24,0-.31-.18-.3-.38s.17-.32.38-.32h1.26Z"/><path class="cls-1" d="M65.56,14.61c-.83,0-1.27-.41-1.26-1.12a1.06,1.06,0,0,1,1.13-1.14,1,1,0,0,1,1.14,1.12A1,1,0,0,1,65.56,14.61Z"/><path class="cls-2" d="M5.75,25.29c0-.52,0-1.05,0-1.58C5.76,22.54,6,22.4,7,23l8.25,4.81a2.12,2.12,0,0,1,.2.12c2.85,1.69,3.78,1.61,6.38-.5.67-.54.33-.87-.2-1.19l-7.46-4.36L6.91,17.61a2.83,2.83,0,0,1,0-4.73c3.3-2,6.62-3.85,9.91-5.82a2.5,2.5,0,0,1,2.86,0c3.22,1.93,6.48,3.8,9.74,5.67a2.32,2.32,0,0,1,1.34,2.29c0,.94,0,1.89,0,2.83,0,1.21-.3,1.37-1.35.76-3.08-1.78-6.2-3.51-9.22-5.4a3,3,0,0,0-3.85,0,11.42,11.42,0,0,1-1.19.67c-1.2.69-1.22,1,0,1.65,3,1.75,6,3.48,8.93,5.22,1.8,1.05,3.61,2.09,5.4,3.16a2.82,2.82,0,0,1,0,4.93c-3.31,1.92-6.62,3.84-9.92,5.79a2.15,2.15,0,0,1-2.36.07L6.71,28.68a1.81,1.81,0,0,1-1-1.68C5.75,26.43,5.75,25.86,5.75,25.29Z"/><path class="cls-1" d="M119.77,15.82a5.41,5.41,0,0,0-5.62,5.57,5.68,5.68,0,0,0,11.35,0A5.38,5.38,0,0,0,119.77,15.82Zm0,8.64a2.82,2.82,0,0,1-2.65-3.08,2.82,2.82,0,0,1,2.72-3,2.78,2.78,0,0,1,2.69,3C122.52,23.23,121.39,24.49,119.77,24.46Z"/><path class="cls-1" d="M103.71,17.28a5.62,5.62,0,0,0-6.55-.76A5.78,5.78,0,0,0,94.6,23c1,3.93,5.57,5,9,3.17.34-.18,1.3-.32.63-1.06-.44-.48-.37-1.88-1.79-1-1.7,1.07-4.64.66-5-1.77h7c.44,0,.83,0,.83-.6A6.17,6.17,0,0,0,103.71,17.28Zm-1.83,3.09c-.64,0-1.29,0-1.94,0s-1.29,0-1.94,0-.62-.17-.41-.68A2.37,2.37,0,0,1,100,18.18a2.41,2.41,0,0,1,2.38,1.43C102.61,20.07,102.53,20.41,101.88,20.37Z"/><path class="cls-1" d="M79.57,20.62c-.21-1.94-.92-3.63-2.86-4.43a4.69,4.69,0,0,0-5.41,1.24c0-.91,0-1.49-1.06-1.42s-.67.83-.68,1.3c0,4.21,0,8.41,0,12.62,0,.6.1.89.79.85s1,0,1-.83c-.06-1.44,0-2.89,0-4.54l.62.49a4.51,4.51,0,0,0,7.35-2.14A7.12,7.12,0,0,0,79.57,20.62ZM76,25.07a3.08,3.08,0,0,1-4.7-2.64V20.84c0-2.28.83-3.3,2.85-3.49a3.37,3.37,0,0,1,3.58,2.94A4.44,4.44,0,0,1,76,25.07Z"/></svg>