<svg id="Color_Palette" data-name="Color Palette" xmlns="http://www.w3.org/2000/svg" viewBox="0 0 251.13 40.65"><defs><style>.cls-1{fill:#c5c8c9;}</style></defs><path id="squarespace-logo-horizontal" class="cls-1" d="M90.91,19.66v-.05a9.06,9.06,0,1,0-18.11.05v.05a8.92,8.92,0,0,0,9,9.13,8.83,8.83,0,0,0,5.6-1.9l2.34,2.12,1.36-1.49-2.35-1.95A9.21,9.21,0,0,0,90.91,19.66ZM87.28,24.3l-3.27-3-1.34,1.5L86,25.64A6.66,6.66,0,0,1,81.88,27a7.06,7.06,0,0,1-7-7.32v-.05a7,7,0,0,1,7-7.28,7.06,7.06,0,0,1,7,7.33v.05A7.49,7.49,0,0,1,87.28,24.3Zm20.36-3.19c0,3.87-2.08,5.85-5.35,5.85s-5.43-2.15-5.43-6V10.79h-2V21.11c0,5,3,7.7,7.38,7.7s7.4-2.69,7.4-7.86V10.79h-2Zm120,5.87a7,7,0,0,1-6.87-7.32v-.05a7,7,0,0,1,6.87-7.28,7.73,7.73,0,0,1,5.58,2.44l1.37-1.47a9.23,9.23,0,0,0-6.93-2.82,8.94,8.94,0,0,0-9,9.18v.05a8.85,8.85,0,0,0,8.9,9.13,9.26,9.26,0,0,0,7.1-3.12l-1.32-1.29A7.71,7.71,0,0,1,227.63,27Zm12.55-.27V20.5h9.69V18.67h-9.69V12.61H251V10.79H238.18V28.53h12.95V26.71ZM192,10.79h-6.64V28.53h2V22.27h4.31c3.78,0,7-2,7-5.8v-.06C198.6,12.92,196,10.79,192,10.79Zm4.61,5.75c0,2.33-1.92,3.91-4.86,3.91h-4.39V12.64h4.49c2.86,0,4.76,1.31,4.76,3.85ZM63.73,18.7c-3.91-.84-4.82-1.78-4.82-3.45V15.2c0-1.6,1.47-2.87,3.78-2.87a7.83,7.83,0,0,1,5.12,1.93L69,12.71a9.29,9.29,0,0,0-6.24-2.18c-3.37,0-5.83,2.06-5.83,4.84v.06c0,2.91,1.87,4.23,6,5.12,3.72.78,4.61,1.72,4.61,3.37v0c0,1.75-1.57,3-4,3a8.46,8.46,0,0,1-6.08-2.5L56.2,26a10.38,10.38,0,0,0,7.25,2.84c3.52,0,6.06-2,6.06-5v-.05C69.51,21,67.68,19.56,63.73,18.7Zm90.38,1.8h9.68V18.67h-9.68V12.61h10.83V10.79H152.11V28.53h12.95V26.71H154.11Zm21.34-1.8c-3.9-.84-4.81-1.78-4.81-3.45V15.2c0-1.6,1.47-2.87,3.78-2.87a7.83,7.83,0,0,1,5.12,1.93l1.16-1.55a9.28,9.28,0,0,0-6.23-2.18c-3.38,0-5.83,2.06-5.83,4.84v.06c0,2.91,1.87,4.23,6,5.12,3.73.78,4.62,1.72,4.62,3.37v0c0,1.75-1.58,3-4,3a8.44,8.44,0,0,1-6.08-2.5L167.93,26a10.38,10.38,0,0,0,7.25,2.84c3.52,0,6.06-2,6.06-5v-.05C181.24,21,179.41,19.56,175.45,18.7Zm-55.14-8-8.08,17.87h2l2.1-4.69H126l2.08,4.69h2.16l-8.09-17.87ZM117.17,22l4.06-9,4,9ZM207,10.66,199,28.53h2l2.1-4.69h9.67l2.07,4.69H217l-8.09-17.87ZM203.9,22,208,13l4,9Zm-56.08-5.93v-.05a4.92,4.92,0,0,0-1.37-3.5,7,7,0,0,0-5-1.77h-7.63V28.53h2V21.64h5.07L146,28.53h2.45L143,21.28C145.79,20.78,147.82,19.05,147.82,16.11Zm-12,3.73v-7.2h5.48c2.86,0,4.53,1.31,4.53,3.5v.05c0,2.28-1.9,3.65-4.56,3.65ZM8,21.82a2.11,2.11,0,0,0,3,0L24.43,8.39a4.22,4.22,0,0,1,6,0,2.11,2.11,0,1,0,3-3,8.44,8.44,0,0,0-11.94,0L8,18.83A2.11,2.11,0,0,0,8,21.82Zm20.89-9a2.11,2.11,0,1,0-3-3L12.49,23.31a4.22,4.22,0,0,1-6-6L19.7,4.17a4.22,4.22,0,0,0-6,0L3.54,14.36A8.44,8.44,0,0,0,15.48,26.3Zm1.5,1.5L17,27.79a2.11,2.11,0,1,0,3,3L33.39,17.34a4.22,4.22,0,0,1,6,6L26.19,36.48a4.21,4.21,0,0,0,6,0L42.35,26.3A8.44,8.44,0,1,0,30.41,14.36Zm7.46,4.47a2.12,2.12,0,0,0-3,0L21.45,32.27a4.24,4.24,0,0,1-6,0,2.11,2.11,0,0,0-3,3,8.44,8.44,0,0,0,11.94,0L37.87,21.82A2.12,2.12,0,0,0,37.87,18.83Z"/></svg>