<svg id="Color_Palette" data-name="Color Palette" xmlns="http://www.w3.org/2000/svg" viewBox="0 0 219.91 40.65"><defs><style>.cls-1{fill:#c5c8c9;}</style></defs><path class="cls-1" d="M34.77,38.46A18.28,18.28,0,0,1,22,33.78a.9.9,0,0,0-1.06-.2A14.11,14.11,0,1,1,14.37,6.32,13.69,13.69,0,0,1,21,7.08a.85.85,0,0,0,1-.19A17.94,17.94,0,0,1,35.72,2.25a18.15,18.15,0,0,1,4,35.31A15.62,15.62,0,0,1,34.77,38.46Zm-.65-4.18a18.63,18.63,0,0,0,2-.13,14,14,0,0,0,9.66-21.36A13.55,13.55,0,0,0,32.65,6.43a13.4,13.4,0,0,0-6.91,2.69c-.41.3-.43.54,0,.88a12.2,12.2,0,0,1,1.84,2.09,13.9,13.9,0,0,1,2.6,7.55c0,.55-.17.75-.72.73-.86,0-1.73,0-2.59,0-.63,0-.84-.19-.87-.82a9.9,9.9,0,0,0-12.06-9A10,10,0,0,0,18,30.11c.48-.09.75-.23.39-.77a11.75,11.75,0,0,1-.79-1.54A18.32,18.32,0,0,1,16,21c0-.49.12-.74.66-.73,1,0,1.91,0,2.86,0,.44,0,.65.15.65.61s.06.84.11,1.25A13.9,13.9,0,0,0,34.12,34.28Z"/><path class="cls-1" d="M125.1,28.38a6.91,6.91,0,0,1-3.94,2.34A7.62,7.62,0,0,1,113,27a9,9,0,0,1,2.56-11.88c2.71-1.8,7-1.64,9.26.92a1.16,1.16,0,0,0,.24.16V14.27c0-1.75,0-3.5,0-5.25,0-.65.22-.86.84-.83a22.65,22.65,0,0,0,2.33,0c.59,0,.76.21.75.78,0,4,0,8,0,12,0,2.87,0,5.75,0,8.63,0,.63-.19.88-.83.84-.82,0-1.64,0-2.46,0-.45,0-.65-.16-.63-.62S125.1,29,125.1,28.38Zm-9.28-6a4.71,4.71,0,1,0,9.42,0,4.72,4.72,0,1,0-9.42,0Z"/><path class="cls-1" d="M186.84,16.25a7,7,0,0,1,7.65-2,7.63,7.63,0,0,1,5.32,6.18,8.7,8.7,0,0,1-3.55,9.21,7.36,7.36,0,0,1-9.08-.73,2.06,2.06,0,0,0-.31-.23,4.32,4.32,0,0,0-.08,1.22c0,.38-.17.56-.56.56q-1.39,0-2.79,0c-.4,0-.56-.18-.55-.57s0-1,0-1.53V9.17c0-1,0-1,1-1,.73,0,1.47,0,2.19,0s.78.21.77.77c0,2.2,0,4.39,0,6.58C186.79,15.74,186.82,15.93,186.84,16.25Zm4.5,11a4.69,4.69,0,0,0,4.73-4.85,4.74,4.74,0,1,0-9.47-.06A4.73,4.73,0,0,0,191.34,27.24Z"/><path class="cls-1" d="M86.85,23.55H81.4c-.63,0-.76.16-.57.76a4.61,4.61,0,0,0,7.7,1.75c.84-1,.83-1,2-.41.46.22.91.46,1.38.64s.52.48.24.91a7.69,7.69,0,0,1-5,3.45,8.32,8.32,0,0,1-9.36-4c-2.59-4.9-.28-11.58,5.76-12.66A8,8,0,0,1,93,21.45a11.64,11.64,0,0,1,.06,1.45c0,.51-.26.67-.76.66C90.48,23.54,88.66,23.55,86.85,23.55Zm-2-2.86H88.4c.69,0,.75-.09.55-.73a4,4,0,0,0-4.18-2.81,4.36,4.36,0,0,0-3.91,3c-.13.45,0,.55.44.54Z"/><path class="cls-1" d="M211.15,23.55c-1.82,0-3.63,0-5.45,0-.55,0-.63.19-.53.67a4.53,4.53,0,0,0,3.94,3.27,4.27,4.27,0,0,0,4.18-1.9.64.64,0,0,1,1-.24c.65.34,1.31.66,2,.94.51.21.6.46.28.94a7.62,7.62,0,0,1-6.12,3.6c-3.46.25-6.37-.87-8.14-4-2.61-4.62-.68-11.13,4.89-12.65a8,8,0,0,1,10.21,7.63c0,2.12.26,1.74-1.72,1.77C214.16,23.57,212.65,23.55,211.15,23.55Zm-1.83-2.86h3.32c.89,0,1-.11.62-1a4.08,4.08,0,0,0-4.15-2.58A4.43,4.43,0,0,0,205.28,20c-.2.56,0,.72.52.71C207,20.68,208.15,20.69,209.32,20.69Z"/><path class="cls-1" d="M141.3,28.67a6.13,6.13,0,0,1-3.92,2.12,5.51,5.51,0,0,1-5.12-1.57,4.78,4.78,0,0,1,1.41-7.41A12.36,12.36,0,0,1,138,20.7c.83-.11,1.66-.22,2.5-.31.54-.06.7-.32.64-.84a2.46,2.46,0,0,0-1.82-2.29,3.25,3.25,0,0,0-3.4.9,3.82,3.82,0,0,0-.52.92.5.5,0,0,1-.72.34c-.82-.21-1.63-.44-2.45-.61-.5-.11-.6-.32-.42-.79a6,6,0,0,1,3.28-3.48,8.37,8.37,0,0,1,6.22-.2,5.16,5.16,0,0,1,3.61,4.92c.05,3.52,0,7,0,10.56,0,.51-.21.66-.68.64-.75,0-1.51,0-2.26,0-.55,0-.77-.2-.72-.74C141.32,29.43,141.3,29.12,141.3,28.67Zm-4.14-1c2.53,0,4.13-1.58,4-3.81,0-.39-.12-.56-.56-.49-.93.15-1.88.25-2.82.39a4,4,0,0,0-2.1.73,1.71,1.71,0,0,0-.63,1.89,1.77,1.77,0,0,0,1.56,1.26A2.76,2.76,0,0,0,137.16,27.63Z"/><path class="cls-1" d="M151.84,16.07c2.43-2.27,5.17-2.82,7.7-1.62a5.67,5.67,0,0,1,3.32,5.28c.13,3.36,0,6.73,0,10.1,0,.51-.22.64-.68.63-.84,0-1.68,0-2.52,0-.57,0-.73-.22-.73-.75,0-2.68,0-5.36,0-8a7.07,7.07,0,0,0-.05-1.13,3.17,3.17,0,0,0-2.8-3,3.49,3.49,0,0,0-4,2.28,5.56,5.56,0,0,0-.33,2c0,2.57,0,5.13,0,7.7,0,.86,0,.89-.9.89s-1.51,0-2.26,0-.85-.2-.84-.83c0-3.41,0-6.82,0-10.23,0-1.48,0-3,0-4.45,0-.54.2-.76.74-.75q1.23,0,2.46,0c.6,0,.86.21.81.82C151.82,15.33,151.84,15.64,151.84,16.07Z"/><path class="cls-1" d="M98.85,16a6.48,6.48,0,0,1,3.22-1.93c4.17-.82,7.65,1.1,7.89,6,.16,3.22,0,6.46,0,9.69,0,.54-.21.7-.71.68-.82,0-1.64,0-2.46,0-.59,0-.76-.2-.76-.77,0-2.68,0-5.36,0-8a7,7,0,0,0-.21-1.71,2.92,2.92,0,0,0-2.5-2.35,3.48,3.48,0,0,0-3.65,1.33,5.26,5.26,0,0,0-.87,3.15c0,2.5,0,5,0,7.51,0,.65-.16.93-.85.88s-1.6,0-2.39,0c-.46,0-.7-.13-.7-.63q0-7.48,0-14.95c0-.5.23-.66.69-.66H98.2c.48,0,.69.19.65.67S98.85,15.63,98.85,16Z"/><path class="cls-1" d="M169.54,19.48c0,1.5-.06,3,0,4.51A3.19,3.19,0,0,0,173.86,27,3.37,3.37,0,0,0,176,23.68c0-2.79,0-5.58,0-8.37,0-1.09,0-1.09,1.12-1.09h2.25c.37,0,.61.13.61.53-.06,3.52.28,7.06-.22,10.55a6.25,6.25,0,0,1-6.11,5.53,9.27,9.27,0,0,1-3-.19,6.29,6.29,0,0,1-5-5.72c-.3-3.35-.07-6.72-.13-10.09,0-.41.18-.61.6-.61h2.79c.52,0,.61.31.61.74,0,1.51,0,3,0,4.52Z"/><path class="cls-1" d="M62.22,24c0-1.91,0-3.81,0-5.72,0-.55-.17-.76-.72-.72s-1,0-1.46,0-.59-.14-.59-.54c0-.75,0-1.5,0-2.26,0-.39.21-.55.58-.55.53,0,1.07,0,1.6,0s.59-.17.59-.6c0-1.13,0-2.26,0-3.38,0-.56.21-.74.74-.72.84,0,1.69,0,2.53,0,.48,0,.67.17.67.66,0,1.1,0,2.21,0,3.32,0,.56.2.76.74.72s.93,0,1.4,0,.62.16.62.59c0,.75,0,1.5,0,2.25,0,.36-.17.53-.53.52s-1,0-1.46,0-.76.18-.76.76c0,3.68,0,7.35,0,11,0,1.1,0,1.1-1.08,1.1-.67,0-1.34,0-2,0s-.86-.23-.85-.88C62.25,27.73,62.22,25.87,62.22,24Z"/><path class="cls-1" d="M74.75,22.43c0,2.39,0,4.78,0,7.17,0,.67-.2.91-.88.87a20,20,0,0,0-2.32,0c-.6,0-.82-.19-.81-.8,0-1.79,0-3.58,0-5.38,0-3.05,0-6.1,0-9.16,0-.85,0-.9.9-.91s1.55,0,2.32,0c.57,0,.78.21.78.78C74.74,17.47,74.75,20,74.75,22.43Z"/><path class="cls-1" d="M72.74,12a2.35,2.35,0,0,1-2.4-2.38A2.43,2.43,0,0,1,72.73,7.2a2.49,2.49,0,0,1,2.43,2.42A2.41,2.41,0,0,1,72.74,12Z"/></svg>