<svg id="Color_Palette" data-name="Color Palette" xmlns="http://www.w3.org/2000/svg" viewBox="0 0 157.86 40.65"><defs><style>.cls-1{fill:#c5c8c9;}</style></defs><path class="cls-1" d="M11.72,25.61A8.86,8.86,0,0,1,8.28,20.3C7,15.18,7.54,10.38,11,6.19A13.29,13.29,0,0,1,19.18,1.7C26.09.46,32.13,2.22,37,7.31a18,18,0,0,1,5,11.09c0,.25.08.5.1.75s0,.5,0,.78c-.22-.13-.22-.34-.28-.54C39.75,12.56,35.05,8.58,28.08,7.23a16.1,16.1,0,0,0-10.14.89,12.83,12.83,0,0,0-7.39,10.09,11.62,11.62,0,0,0,1,6.74C11.68,25.14,11.87,25.33,11.72,25.61Z"/><path class="cls-1" d="M48.89,17.52c0-1.64,0-3.27,0-4.9,0-.51.17-.65.62-.7A22.63,22.63,0,0,0,52,11.55c.55-.12.57.1.56.51,0,.78,0,1.56,0,2.34,0,.41.09.57.54.56,1,0,2,0,3,0,.46,0,.69.07.65.6-.06.72.23,1.68-.13,2.11s-1.37.09-2.1.15-1.44-.28-1.8.14-.1,1.14-.1,1.74c0,.91,0,1.81,0,2.72.06,1.61.68,2.16,2.3,2A4.25,4.25,0,0,0,56,24.2c.49-.18.61,0,.66.44a7.31,7.31,0,0,0,.26,1.41c.16.53,0,.74-.52.9a8.47,8.47,0,0,1-4.18.22,3.74,3.74,0,0,1-3.06-3c-.49-2-.21-4.05-.28-6.08C48.88,17.92,48.89,17.72,48.89,17.52Z"/><path class="cls-1" d="M136.9,21.4c0,1.75,0,3.38,0,5,0,.48-.11.63-.62.63-1.43,0-1.43,0-1.43-1.39,0-5.09,0-10.17,0-15.25,0-.61.19-.81.76-.9,1.31-.2,1.3-.22,1.3,1.09V20c.37.06.49-.25.67-.42,1.25-1.31,2.51-2.62,3.74-4a1,1,0,0,1,.84-.39c.62,0,1.25,0,2,0-1.44,1.73-2.95,3.23-4.44,4.74-.41.41-.46.61,0,1a26.39,26.39,0,0,1,5,6.05h-2.33c-.32,0-.38-.29-.51-.49a20.63,20.63,0,0,0-3.93-4.46,8.27,8.27,0,0,0-.66-.51A1.4,1.4,0,0,0,136.9,21.4Z"/><path class="cls-1" d="M58,21.27c0-1.68,0-3.37,0-5.06,0-.35,0-.59.46-.72A13.4,13.4,0,0,1,65.11,15c.61.13.72.37.57.9s-.1,1.52-.5,1.93-1.2-.17-1.84-.16h-.15c-1.8-.11-1.89,0-1.89,1.74,0,2.32,0,4.63,0,7,0,.5-.08.72-.65.68a13.51,13.51,0,0,0-2.11,0c-.53,0-.62-.18-.61-.64C58,24.69,58,23,58,21.27Z"/><path class="cls-1" d="M125,21.25c0-3.09,1.4-5.33,3.8-6.1a7.72,7.72,0,0,1,4.61.12c.31.08.49.2.34.58s-.12.93-.39,1.2-.75-.12-1.15-.18a8.38,8.38,0,0,0-1.66-.12,3.25,3.25,0,0,0-3.08,2.46,6.87,6.87,0,0,0-.09,3.43,3.46,3.46,0,0,0,4,2.8,5.91,5.91,0,0,0,1.86-.32c.41-.15.55-.09.63.38.22,1.42.24,1.41-1.19,1.65a8.92,8.92,0,0,1-2.87.11,5.33,5.33,0,0,1-4.74-5.14C125,21.79,125,21.46,125,21.25Z"/><path class="cls-1" d="M41.66,22a10.58,10.58,0,0,0-6.4-7.68,3.24,3.24,0,0,1-.63-.41,6.39,6.39,0,0,0-2.33-1.2,14.78,14.78,0,0,0-8,.27c-.27.07-.52.26-.86.11a2.63,2.63,0,0,0-3.26.85,8.45,8.45,0,0,1-2.15,1.69,21.18,21.18,0,0,0-2,1.38A8.47,8.47,0,0,0,12.94,21a1.84,1.84,0,0,0,.74,2.31,8.74,8.74,0,0,0,2.47,1.26,24.77,24.77,0,0,0,7,1.33,16.1,16.1,0,0,0,6.13-.58,2,2,0,0,0,1.48-1.22,1.73,1.73,0,0,1,2.4-.71,1.49,1.49,0,0,1,.58,2.08,2,2,0,0,1-2.43.87c-.19-.06-.35-.19-.57-.14-1.31.29-2.64.37-4,.56-.65.1-1.43.28-1.52,1.11s.62,1.1,1.2,1.38A24.54,24.54,0,0,0,30,30.5a2.14,2.14,0,0,0,1.37.05,1.75,1.75,0,0,1,2.19,2A2.06,2.06,0,0,1,31.8,34a1.82,1.82,0,0,1-2-.91c-.1-.22-.09-.48-.37-.62a24.07,24.07,0,0,0-3.84-1.74,1.78,1.78,0,0,0-2.43,2.14,9.63,9.63,0,0,0,.66,2.46,1.3,1.3,0,0,0,.67.75A1.19,1.19,0,0,1,25,37.81a1.82,1.82,0,0,1-2.29.54,1.08,1.08,0,0,1-.4-1.66,1.13,1.13,0,0,0,.22-.77,5.33,5.33,0,0,0-2.33-3.8c-.49-.32-1-.64-1.44-1a2.5,2.5,0,0,1-1.2-2.23c0-.59-.18-.68-.72-.71-4.41-.24-7.59-2.32-9.29-6.42a15.52,15.52,0,0,1-.1-11,3.32,3.32,0,0,0,.37-1.28c-.08,0-.14,0-.17,0a3.25,3.25,0,0,0-.36.47,18.05,18.05,0,0,0-2.33,5c-.27,1-.5,2-.75,3v4.53A17.42,17.42,0,0,1,4.73,25,18.88,18.88,0,0,0,26.21,39.08c7.26-1.17,12.2-5.37,14.88-12.19A8.39,8.39,0,0,0,41.66,22Zm-14.32.15a3,3,0,0,1-3.15.68,1.72,1.72,0,0,1-.54-3.09A2.78,2.78,0,0,1,25.53,19a3.43,3.43,0,0,1,1.23.17A1.7,1.7,0,0,1,27.34,22.1Z"/><path class="cls-1" d="M87.38,9.37a21.83,21.83,0,0,1-2.24.38c-.52.05-.66.24-.65.75,0,1.55,0,3.11,0,4.72L83.73,15a5.11,5.11,0,0,0-6.35,2.82,8.23,8.23,0,0,0-.58,4.07c.27,2.76,1.66,4.55,4.1,5.19a13.63,13.63,0,0,0,6.65-.3c.34-.07.35-.29.35-.56q0-8.19,0-16.38C87.9,9.41,87.78,9.29,87.38,9.37Zm-3.32,15c-2.11.36-3.4-.56-3.74-2.69a5.35,5.35,0,0,1,.18-2.45A2.54,2.54,0,0,1,84.28,18c.24.17.22.37.22.59v2.64c0,.87,0,1.75,0,2.63C84.52,24.21,84.41,24.35,84.06,24.41Z"/><path class="cls-1" d="M93.42,22.16c1,.06,2.11,0,3.17,0h1.82c2.3,0,2.3,0,2.13-2.34a5.09,5.09,0,0,0-4.11-5A5.74,5.74,0,0,0,90,17.73a7.44,7.44,0,0,0-.64,4.84,5.25,5.25,0,0,0,4.07,4.54,10.59,10.59,0,0,0,4.88,0c1.57-.32,1.57-.34,1.3-1.9a7.54,7.54,0,0,1-.12-.81c0-.44-.19-.51-.59-.37a8.29,8.29,0,0,1-3.2.42A3,3,0,0,1,93,22.89C92.72,22.42,92.7,22.12,93.42,22.16Zm-.6-2.6a2.28,2.28,0,0,1,2.15-2,2.1,2.1,0,0,1,2.24,1.78c.08.44,0,.59-.47.56s-1.16,0-1.73,0H93.2C93,19.85,92.81,19.9,92.82,19.56Z"/><path class="cls-1" d="M75.74,22.66h0c0-1.28.08-2.57,0-3.84a4,4,0,0,0-3.56-4,13,13,0,0,0-5.33.29c-.35.09-.42.25-.36.59a17.84,17.84,0,0,1,.29,1.78c0,.43.18.46.57.37a8.24,8.24,0,0,1,3.66-.24,1.67,1.67,0,0,1,1.42,1.54c0,.38,0,.58-.49.5a8.89,8.89,0,0,0-4,.21,3.4,3.4,0,0,0-2.67,3.63A3.36,3.36,0,0,0,68.07,27a17.15,17.15,0,0,0,7.34-.25c.36-.06.34-.3.33-.56Zm-3.36.67c0,1.28,0,1.28-1.31,1.32a5.06,5.06,0,0,1-1.5-.13,1.18,1.18,0,0,1-.94-1.2,1.2,1.2,0,0,1,.81-1.23A5.36,5.36,0,0,1,72.05,22a.34.34,0,0,1,.33.4C72.37,22.68,72.38,23,72.38,23.33Z"/><path class="cls-1" d="M112.16,15.92c0-.21,0-.39-.27-.45a11.73,11.73,0,0,0-6.19-.26c-2.72.83-4.2,3.51-3.74,6.68.38,2.62,1.76,4.23,4.05,4.62a5.79,5.79,0,0,0,4-.64c.13,2.42-.71,3.4-3,3.61a8.92,8.92,0,0,1-3-.27c-1.12-.27-1.09-.27-1.38.83-.15.58,0,.78.59.91a12.67,12.67,0,0,0,4.79.28c2.4-.33,3.79-1.62,4-4C112.33,23.47,112.1,19.69,112.16,15.92Zm-2.72,8.42c-1.35.53-2.71.76-4-.18S104,21.53,104.21,20c.31-2.21,1.68-3.26,3.94-3.18,1.92.06,1.92.06,1.92,1.92v1.81c0,1,0,1.92,0,2.87A.85.85,0,0,1,109.44,24.34Z"/><path class="cls-1" d="M123.68,18.15a4.12,4.12,0,0,0-2.42-2.9,5.36,5.36,0,0,0-6.84,2.49,7.73,7.73,0,0,0-.48,5.51,5,5,0,0,0,4.27,3.94,9.12,9.12,0,0,0,3.75-.11c1.34-.31,1.32-.32,1.13-1.64-.07-.51-.26-.53-.68-.38a7.45,7.45,0,0,1-3.35.31,3.34,3.34,0,0,1-3.1-3.16c0-.43.07-.58.51-.57,1.16,0,2.32,0,3.48,0s2.32,0,3.48,0c.48,0,.6-.14.59-.6A11.46,11.46,0,0,0,123.68,18.15Zm-2.24,1.71h-5.07c-.26,0-.4,0-.36-.38a3.2,3.2,0,0,1,3.58-2.79,2.86,2.86,0,0,1,2.28,2.81C121.86,19.84,121.69,19.86,121.44,19.86Z"/><path class="cls-1" d="M155,19.43A5.51,5.51,0,0,0,144.27,19a8.22,8.22,0,0,0-.26,2.75c.27,4.14,3.82,6.63,7.54,5.29,2.27-.82,3.64-3,3.64-6A6.34,6.34,0,0,0,155,19.43Zm-2.73,4.49a3.09,3.09,0,0,1-5.4,0,5.77,5.77,0,0,1,0-5.57,2.85,2.85,0,0,1,2.72-1.58,3,3,0,0,1,2.72,1.59,5.06,5.06,0,0,1,.62,2.75A5.16,5.16,0,0,1,152.3,23.92Z"/></svg>