<svg id="Color_Palette" data-name="Color Palette" xmlns="http://www.w3.org/2000/svg" viewBox="0 0 80.68 40.65"><defs><style>.cls-1{fill:#c5c8c9;}</style></defs><path class="cls-1" d="M60.53,19.51a4.2,4.2,0,0,0-2.23-.59,3.64,3.64,0,0,0-3.6,2.51,5.73,5.73,0,0,0-.45,2.23,4.71,4.71,0,0,0,1.65,3.79,3.45,3.45,0,0,0,2.33.77,3.84,3.84,0,0,0,3.84-2.4,5.48,5.48,0,0,0,.46-2.22A4.38,4.38,0,0,0,60.53,19.51Z"/><path class="cls-1" d="M32.23,19.66a3.31,3.31,0,0,0-2.44-1,3.84,3.84,0,0,0-2.6.89A3.94,3.94,0,0,0,25.88,22h7.47A4.09,4.09,0,0,0,32.23,19.66Z"/><path class="cls-1" d="M80.31,18.83,72.17,5.17a3.27,3.27,0,0,0-2.9-1.78h-62A3.28,3.28,0,0,0,4,6.67V34a3.28,3.28,0,0,0,3.28,3.28h62a3.28,3.28,0,0,0,2.9-1.77l8.14-13.66A3.24,3.24,0,0,0,80.31,18.83ZM22.66,17.17l-6.27,12.9a.33.33,0,0,1-.59,0L9.48,17.17a.23.23,0,0,1,.2-.32H12.1a.22.22,0,0,1,.2.13l3.79,8.22L19.85,17a.22.22,0,0,1,.2-.13h2.41A.23.23,0,0,1,22.66,17.17Zm13.19,6.6a.21.21,0,0,1-.22.2H25.76a4.63,4.63,0,0,0,1.1,3.15,3.89,3.89,0,0,0,3,1.31,4.76,4.76,0,0,0,3.88-2.36.21.21,0,0,1,.3-.09l1.63.95a.23.23,0,0,1,.08.31,6.94,6.94,0,0,1-6.19,3.43,5.88,5.88,0,0,1-4.71-2.11A8.23,8.23,0,0,1,23.14,23a7,7,0,0,1,.52-2.56A5.91,5.91,0,0,1,26.93,17a6.8,6.8,0,0,1,2.67-.52c2.8,0,4.69,1.18,5.65,3.53a7.23,7.23,0,0,1,.62,3.16ZM49.57,30a.22.22,0,0,1-.22.22H47.24A.22.22,0,0,1,47,30V22.15a4,4,0,0,0-.61-2.49,2.74,2.74,0,0,0-2.33-.91q-3.3,0-3.3,4.16V30a.22.22,0,0,1-.22.22H38.45a.22.22,0,0,1-.22-.22V17.07a.22.22,0,0,1,.22-.22h2.11a.22.22,0,0,1,.22.22v1.68a4.68,4.68,0,0,1,4.13-2.26c3.1,0,4.66,1.9,4.66,5.71Zm15.82,0a.22.22,0,0,1-.22.22H63.05a.22.22,0,0,1-.22-.22V28a5.27,5.27,0,0,1-4.56,2.63,5.83,5.83,0,0,1-4.92-2.35,7.55,7.55,0,0,1-1.56-4.65A8.41,8.41,0,0,1,52.56,20a6,6,0,0,1,2.5-2.72,6.12,6.12,0,0,1,3.09-.81,5.34,5.34,0,0,1,2.7.76,4.73,4.73,0,0,1,2,1.94V10.13a.23.23,0,0,1,.23-.21h2.12a.21.21,0,0,1,.22.21Zm8.19-8a1.64,1.64,0,1,1,1.64-1.64A1.63,1.63,0,0,1,73.58,22Z"/></svg>