<svg id="Color_Palette" data-name="Color Palette" xmlns="http://www.w3.org/2000/svg" viewBox="0 0 96.23 40.65"><defs><style>.cls-1{fill:#c5c8c9;}</style></defs><path class="cls-1" d="M38.33,3.41H8.79A3,3,0,0,0,6.1,7.87l3,5.6H3.7a2,2,0,0,0-2,2,2,2,0,0,0,.23.92l9.5,18a2,2,0,0,0,2.67.82,2,2,0,0,0,.82-.82l2.58-4.86,3.24,6.13a3,3,0,0,0,5.37,0L41,7.76a3,3,0,0,0-2.62-4.35ZM25.06,15.32l-6.38,12a1.31,1.31,0,0,1-1.77.54,1.25,1.25,0,0,1-.55-.54L10,15.37a1.3,1.3,0,0,1,.54-1.77,1.32,1.32,0,0,1,.61-.16H23.94a1.28,1.28,0,0,1,1.12,1.88Zm44.7,1H66.53V27.41a.38.38,0,0,1-.38.39h-2.5a.38.38,0,0,1-.38-.39V16.34H60a.37.37,0,0,1-.38-.35h0V14a.36.36,0,0,1,.37-.36h9.75a.38.38,0,0,1,.4.36v2a.39.39,0,0,1-.4.36ZM80.13,27.72a25.84,25.84,0,0,1-3.84.24c-2.45,0-4.62-.62-4.62-4.09V17.55c0-3.46,2.19-4.07,4.64-4.07a23.8,23.8,0,0,1,3.82.25c.27,0,.38.13.38.38v1.77a.38.38,0,0,1-.38.38h-4c-.89,0-1.22.31-1.22,1.3v1.73H80a.38.38,0,0,1,.38.38v1.81a.38.38,0,0,1-.38.38H74.9v2c0,1,.33,1.3,1.22,1.3h4a.38.38,0,0,1,.38.38v1.77c0,.24-.11.36-.38.4Zm14.36.07h-3a.5.5,0,0,1-.49-.28l-2.63-4.17L86,27.41c-.14.23-.27.39-.48.39H82.68a.26.26,0,0,1-.29-.25.74.74,0,0,1,0-.14l4.12-6.87L82.39,14a.28.28,0,0,1,0-.12.27.27,0,0,1,.29-.24H85.7c.21,0,.36.19.47.36l2.44,3.84L91,14a.63.63,0,0,1,.48-.36h2.81a.28.28,0,0,1,.29.24.56.56,0,0,1,0,.12l-4.15,6.56,4.33,6.83a.46.46,0,0,1,0,.2C94.73,27.72,94.64,27.79,94.49,27.79ZM55.08,13.69a.3.3,0,0,0-.29.24L52,24.15c0,.21-.09.29-.26.29s-.23-.08-.27-.29L48.73,13.93a.28.28,0,0,0-.28-.24H45.73a.29.29,0,0,0-.29.3v.06s3.38,11.72,3.41,11.84A2.86,2.86,0,0,0,51.79,28a3,3,0,0,0,2.93-2.06c.05-.15,3.35-11.84,3.35-11.84a.29.29,0,0,0-.22-.35H55.08Z"/><path class="cls-1" d="M38.33,3.41H8.79A3,3,0,0,0,6.1,7.87l3,5.6H3.7a2,2,0,0,0-2,2,2,2,0,0,0,.23.92l9.5,18a2,2,0,0,0,2.67.82,2,2,0,0,0,.82-.82l2.58-4.86,3.24,6.13a3,3,0,0,0,5.37,0L41,7.76a3,3,0,0,0-2.62-4.35ZM25.06,15.32l-6.38,12a1.31,1.31,0,0,1-1.77.54,1.25,1.25,0,0,1-.55-.54L10,15.37a1.3,1.3,0,0,1,.54-1.77,1.32,1.32,0,0,1,.61-.16H23.94a1.28,1.28,0,0,1,1.12,1.88Z"/></svg>