<svg id="Color_Palette" data-name="Color Palette" xmlns="http://www.w3.org/2000/svg" viewBox="0 0 84.54 40.65"><defs><style>.cls-1{fill:#c5c8c9;fill-rule:evenodd;}</style></defs><path class="cls-1" d="M47.74,6.44c-1.52.8-2.06,2.13-2.06,5.79a5.73,5.73,0,0,1,1.88-1.15,7.32,7.32,0,0,0,1.93-1C50.77,9.11,51,7.92,51,5.9a7.93,7.93,0,0,0-3.21.54Z"/><path class="cls-1" d="M38.85,7.31a5.83,5.83,0,0,0-1.59,2.8L33.19,25.76,29.83,12.92A11.15,11.15,0,0,0,28,8.74c-1.17-1.43-3.58-1.52-3.84-1.52s-2.69.09-3.88,1.54A11.09,11.09,0,0,0,18.38,13L15,25.78,11,10.11A5.51,5.51,0,0,0,9.4,7.31a7,7,0,0,0-5-1.39l7.74,29.36A9.12,9.12,0,0,0,16,34.8c1.67-.84,2.5-1.51,3.52-5.53.91-3.55,3.44-14,3.68-14.76.11-.37.26-1.26.91-1.26s.8.87.91,1.26c.24.73,2.76,11.21,3.69,14.76,1,4,1.82,4.64,3.51,5.53a9.12,9.12,0,0,0,3.84.48L43.81,5.94a7,7,0,0,0-5,1.37ZM51,10.71a5,5,0,0,1-1.59,1.39c-.71.39-1.39.67-2.12,1a2.25,2.25,0,0,0-1.56,2.25V35.28a6.85,6.85,0,0,0,3.23-.39c1.64-.85,2-1.65,2-5.31V10.71Zm19.34,10L80.11,6S76,5.29,73.91,7.18a23.33,23.33,0,0,0-2.8,3.34l-3.6,5.25c-.19.26-.39.56-.76.56a.91.91,0,0,1-.76-.56l-3.64-5.23a21.31,21.31,0,0,0-2.8-3.34c-2-1.89-6.2-1.17-6.2-1.17L63.2,20.64l-9.85,14.6s4.34.56,6.38-1.33a19.07,19.07,0,0,0,2.6-3.16l3.6-5.23c.19-.26.39-.56.76-.56a.91.91,0,0,1,.76.56l3.6,5.23a24.25,24.25,0,0,0,2.64,3.16c2,1.89,6.31,1.33,6.31,1.33L70.29,20.67Z"/></svg>