<svg id="Color_Palette" data-name="Color Palette" xmlns="http://www.w3.org/2000/svg" viewBox="0 0 193.58 40.65"><defs><style>.cls-1,.cls-2{fill:#c5c8c9;}.cls-1{fill-rule:evenodd;}</style></defs><path class="cls-1" d="M38.84,11.83c-1-.19-1.9.35-2.78,1.66a8.55,8.55,0,0,0-1.42,3.19,9,9,0,0,0-.19,2,6.91,6.91,0,0,0,.48,2.44c.4,1,.94,1.6,1.58,1.74A2.57,2.57,0,0,0,38.68,22a7,7,0,0,0,2-4,9.57,9.57,0,0,0,.19-2,6.82,6.82,0,0,0-.48-2.44C40,12.52,39.49,12,38.84,11.83Z"/><path class="cls-1" d="M55.65,11.83c-1-.19-1.9.35-2.79,1.66a8.71,8.71,0,0,0-1.42,3.19,9.66,9.66,0,0,0-.18,2,6.91,6.91,0,0,0,.48,2.44c.4,1,.94,1.6,1.58,1.74A2.58,2.58,0,0,0,55.49,22a7.12,7.12,0,0,0,2-4,11.18,11.18,0,0,0,.19-2,6.63,6.63,0,0,0-.49-2.44C56.83,12.52,56.3,12,55.65,11.83Z"/><path class="cls-1" d="M59.46.81H6.09A6.09,6.09,0,0,0,0,6.92V27.29a6.11,6.11,0,0,0,6.11,6.12H31.39L43,39.84l-2.63-6.43H59.46a6.11,6.11,0,0,0,6.11-6.12V6.92A6.1,6.1,0,0,0,59.46.81ZM26.83,27.64a3.11,3.11,0,0,1-.32,1.77,1.74,1.74,0,0,1-1.42,1,2.73,2.73,0,0,1-2.12-1Q19.24,25.57,17.05,18q-2.61,5.15-3.86,7.72c-1.58,3-2.92,4.58-4,4.66-.72,0-1.34-.56-1.87-1.85Q5.22,23.24,2.84,8.15a2.41,2.41,0,0,1,.43-1.79A2.15,2.15,0,0,1,5,5.53,2,2,0,0,1,7.29,7.46Q8.53,15.86,10,21.69l5.87-11.18a2.53,2.53,0,0,1,2-1.6c1.18-.09,1.9.67,2.2,2.25a50.24,50.24,0,0,0,2.55,9.17q1-10.21,3.53-14.75A2.07,2.07,0,0,1,27.93,4.4a2.36,2.36,0,0,1,1.69.54,2.08,2.08,0,0,1,.83,1.53,2.31,2.31,0,0,1-.26,1.28c-1.05,1.93-1.91,5.18-2.6,9.68A49.39,49.39,0,0,0,26.83,27.64Zm16.46-4.21q-2.4,4-6.3,4a6.87,6.87,0,0,1-1.44-.17,6.16,6.16,0,0,1-4.29-3.1A10.39,10.39,0,0,1,30,18.88a14.25,14.25,0,0,1,2.09-7.56c1.64-2.68,3.73-4,6.3-4a6.84,6.84,0,0,1,1.45.16,6.22,6.22,0,0,1,4.29,3.11,10.1,10.1,0,0,1,1.29,5.28A14.29,14.29,0,0,1,43.29,23.43Zm16.81,0c-1.61,2.69-3.7,4-6.3,4a7,7,0,0,1-1.45-.17,6.16,6.16,0,0,1-4.28-3.1,10.39,10.39,0,0,1-1.29-5.31,14.25,14.25,0,0,1,2.09-7.56c1.64-2.68,3.73-4,6.3-4a6.84,6.84,0,0,1,1.45.16,6.18,6.18,0,0,1,4.29,3.11,10.2,10.2,0,0,1,1.28,5.28A14.28,14.28,0,0,1,60.1,23.43Z"/><path class="cls-2" d="M72.35,10.33a9.09,9.09,0,0,0-2.68,6.75,9.74,9.74,0,0,0,2.66,7.11,9.32,9.32,0,0,0,6.94,2.7,9.94,9.94,0,0,0,2.79-.43V22.12a8.93,8.93,0,0,1-2.44.4,4.4,4.4,0,0,1-3.41-1.42,5.64,5.64,0,0,1-1.28-3.88,5.6,5.6,0,0,1,1.26-3.76A4,4,0,0,1,79.38,12a10,10,0,0,1,2.68.4V8.05a11.29,11.29,0,0,0-2.92-.35A9.13,9.13,0,0,0,72.35,10.33ZM91,7.67a7.19,7.19,0,0,0-5.79,2.47c-1.4,1.63-2.07,3.94-2.07,6.89,0,3.19.7,5.63,2.07,7.32a7.29,7.29,0,0,0,6,2.54A7.13,7.13,0,0,0,97,24.35a11.07,11.07,0,0,0,2.07-7.13q0-4.59-2.09-7.08A7.59,7.59,0,0,0,91,7.67Zm2.12,13.94A2.4,2.4,0,0,1,91,22.74a2.17,2.17,0,0,1-2-1.13c-.46-.75-.67-2.25-.67-4.53,0-3.51.89-5.25,2.68-5.25s2.84,1.77,2.84,5.33A9.36,9.36,0,0,1,93.08,21.61ZM112.35,8.18l-1,4.1c-.24,1.05-.48,2.12-.69,3.22l-.54,2.84q-.77-4.26-2.09-10.16h-6.22L99.51,26.44h4.66l1.26-12.58,3.19,12.58H112l3-12.55,1.32,12.55h4.88L118.73,8.18Zm22.33,0-1,4.1c-.25,1.05-.49,2.12-.7,3.22l-.54,2.84q-.76-4.26-2.09-10.16h-6.22l-2.33,18.26h4.66l1.26-12.58L131,26.44h3.33l3-12.55,1.31,12.55h4.88L141,8.18Zm15.17,11.05h4.37V15.45h-4.37V12.1h5V8.21h-10V26.46h10V22.58h-5.07Zm19-2.9a4.86,4.86,0,0,0,.77-2.57,4.81,4.81,0,0,0-2-4.08,9.1,9.1,0,0,0-5.49-1.5h-5.74V26.44h4.93V18.13h.08l4,8.31h5.2l-3.94-8.23A4.89,4.89,0,0,0,168.81,16.33ZM161.25,16V11.69a4.58,4.58,0,0,1,2.52.59,2.1,2.1,0,0,1,.75,1.83C164.52,15.37,163.42,16,161.25,16Zm11.23-5.71a9,9,0,0,0-2.68,6.75,9.73,9.73,0,0,0,2.65,7.11,9.34,9.34,0,0,0,7,2.7,9.88,9.88,0,0,0,2.78-.43V22.12a8.93,8.93,0,0,1-2.44.4,4.38,4.38,0,0,1-3.4-1.42,5.59,5.59,0,0,1-1.29-3.88,5.6,5.6,0,0,1,1.26-3.76A4,4,0,0,1,179.5,12a9.9,9.9,0,0,1,2.68.4V8.05a11.19,11.19,0,0,0-2.92-.35A9.14,9.14,0,0,0,172.48,10.33Zm16,12.19V19.2h4.37V15.42h-4.37V12.07h5.07V8.18h-10V26.44h10V22.55h-5.1Z"/></svg>