<svg id="Color_Palette" data-name="Color Palette" xmlns="http://www.w3.org/2000/svg" xmlns:xlink="http://www.w3.org/1999/xlink" viewBox="0 0 108.77 40.65"><defs><style>.cls-1{fill:#9f9f9f;}.cls-2{fill:#e6e6e6;}.cls-3{fill:url(#Degradado_sin_nombre_9);}.cls-4{fill:#fff;}.cls-5{fill:#7a7a7a;}.cls-6{fill:#bcbcbc;}.cls-7{fill:url(#Degradado_sin_nombre_8);}.cls-8{fill:#9b9b9b;}.cls-9{fill:#b9b9b9;}.cls-10{fill:url(#Degradado_sin_nombre_7);}.cls-11{fill:#2f2f2f;}.cls-12{fill:#787878;}.cls-13{fill:url(#Degradado_sin_nombre_6);}</style><linearGradient id="Degradado_sin_nombre_9" x1="-467.4" y1="-1130.58" x2="-467.4" y2="-1130.78" gradientTransform="matrix(111, 0, 0, -118.9, 51974.5, -134411.92)" gradientUnits="userSpaceOnUse"><stop offset="0.01" stop-color="#d7d7d7"/><stop offset="1" stop-color="#bdbdbd"/></linearGradient><linearGradient id="Degradado_sin_nombre_8" x1="-466.81" y1="-1130.39" x2="-466.62" y2="-1130.54" gradientTransform="matrix(122.2, 0, 0, -121.6, 57100.1, -137438.48)" gradientUnits="userSpaceOnUse"><stop offset="0.01" stop-color="#707070"/><stop offset="1" stop-color="#505050"/></linearGradient><linearGradient id="Degradado_sin_nombre_7" x1="-466.27" y1="-1128.99" x2="-466.27" y2="-1129.14" gradientTransform="matrix(140.4, 0, 0, -142.7, 65507, -161089.47)" gradientUnits="userSpaceOnUse"><stop offset="0" stop-color="#747474"/><stop offset="1" stop-color="#5f5f5f"/></linearGradient><linearGradient id="Degradado_sin_nombre_6" x1="-465.12" y1="-1130.38" x2="-465.1" y2="-1130.56" gradientTransform="matrix(124, 0, 0, -121.6, 57687, -137438.67)" gradientUnits="userSpaceOnUse"><stop offset="0" stop-color="#5d5d5d"/><stop offset="1" stop-color="#535353"/></linearGradient></defs><path class="cls-1" d="M108.77,9.58V35.37l-3.57,3.48V13.61l3.57-4Z"/><path class="cls-2" d="M85.38,9.6l-3.69,4,.19.26,23.17-.09.22-.17,3.5-4-23.39,0Z"/><rect class="cls-3" x="81.69" y="13.61" width="23.58" height="25.26"/><path class="cls-4" d="M101.68,22.7a9.34,9.34,0,0,0-2.09-3.14,8.64,8.64,0,0,0-3-2,9.53,9.53,0,0,0-7.07,0,8.77,8.77,0,0,0-3,2,9.4,9.4,0,0,0-2.06,3.14,11,11,0,0,0,0,7.67,9.38,9.38,0,0,0,2.07,3.19,8.65,8.65,0,0,0,2.91,2,9.49,9.49,0,0,0,3.59.68,9,9,0,0,0,6.45-2.66,9.56,9.56,0,0,0,2.09-3.17,10.91,10.91,0,0,0,0-7.69ZM96.81,31a5,5,0,0,1-7.41,0A6.74,6.74,0,0,1,88,26.53,7,7,0,0,1,89.4,22a4.52,4.52,0,0,1,3.71-1.64A4.57,4.57,0,0,1,96.81,22a7.07,7.07,0,0,1,1.36,4.57A6.79,6.79,0,0,1,96.81,31Z"/><path class="cls-5" d="M79.37,7.47V7.6l3,23.18-1.77,4.88-.23-.17-3.1-22.22.06-.3L79.28,7.6l.09-.13Z"/><path class="cls-6" d="M56.15,10.7,79.37,7.47l-2,5.57-.28.3L55.43,16.52l.1-4,.62-1.85Z"/><path class="cls-7" d="M77.42,13l3.2,22.62L57.74,38.87,54.66,17,56,16,77.42,13Z"/><path class="cls-4" d="M73.53,17.37a2.68,2.68,0,0,0-.72-1.59,1.71,1.71,0,0,0-1.15-.43,1.5,1.5,0,0,0-.36,0,1.76,1.76,0,0,0-1.32.8,2.13,2.13,0,0,0-.3,1.19,5.48,5.48,0,0,0,0,.55l.83,5.89-6.58,1-.83-5.89a2.68,2.68,0,0,0-.72-1.57,1.6,1.6,0,0,0-1.13-.45,1.72,1.72,0,0,0-.32,0,1.94,1.94,0,0,0-1.38.81,2.13,2.13,0,0,0-.3,1.19,4.4,4.4,0,0,0,.05.58l2.25,15.31a2.5,2.5,0,0,0,.76,1.6,1.73,1.73,0,0,0,1.17.4,2.36,2.36,0,0,0,.38,0A1.73,1.73,0,0,0,65.18,36a2.2,2.2,0,0,0,.27-1.15,5.48,5.48,0,0,0,0-.55l-.91-6,6.58-1L72,33.28a2.43,2.43,0,0,0,.74,1.58,1.73,1.73,0,0,0,1.15.42,2.36,2.36,0,0,0,.36,0,1.79,1.79,0,0,0,1.32-.81,2.23,2.23,0,0,0,.29-1.17,5.48,5.48,0,0,0,0-.55L73.53,17.37Z"/><path class="cls-8" d="M34.42,1.57,26.15,21.2l1.13,8.62.06,0L36.63,8.92l-.05-.45-2-6.63-.17-.27Z"/><path class="cls-9" d="M34.42,1.57l2.14,7.2,0,.15L57,18.07l.07,0-1.75-6.88L34.42,1.57Z"/><path class="cls-10" d="M36.56,8.77,57.11,18l-9.29,21L27.28,29.82l9.28-21Z"/><path class="cls-4" d="M50.88,19.73A8.94,8.94,0,0,0,49,16.67a9,9,0,0,0-6.39-2.74h-.07a8.53,8.53,0,0,0-3.5.79h0a9.41,9.41,0,0,0-3.15,2.21,11.06,11.06,0,0,0-2.16,3.39,11.41,11.41,0,0,0-.92,3.91v.45a9.64,9.64,0,0,0,.6,3.38,8.45,8.45,0,0,0,4.84,5h0a8.54,8.54,0,0,0,3.44.73h0a8.88,8.88,0,0,0,3.49-.75h0a9.41,9.41,0,0,0,3.16-2.23,10.78,10.78,0,0,0,2.19-3.38,11.65,11.65,0,0,0,.92-3.91v-.38a9.11,9.11,0,0,0-.6-3.44Zm-4.1,6.12a7.24,7.24,0,0,1-3.06,3.76,4.43,4.43,0,0,1-2.08.55,5.09,5.09,0,0,1-1.93-.42,4.4,4.4,0,0,1-2.72-3,5.49,5.49,0,0,1-.19-1.47,8.73,8.73,0,0,1,.76-3.35,7.57,7.57,0,0,1,3.08-3.85,4.21,4.21,0,0,1,2.08-.55,5.11,5.11,0,0,1,2,.43,4.42,4.42,0,0,1,2.7,3,5.64,5.64,0,0,1,.19,1.45,8.9,8.9,0,0,1-.79,3.46Z"/><path class="cls-11" d="M24.52,4.9l3.35,22.48-1.53,7.9L26.13,35,22.86,13.29v-.42L24.3,5.28l.22-.38Z"/><path class="cls-12" d="M0,16.52,1.59,8.58,24.52,4.9,23,13v.53L.28,16.73,0,16.52Z"/><path class="cls-13" d="M23,13l3.37,22.28L3.65,38.83,0,16.52,23,13Z"/><path class="cls-4" d="M20.52,31.73a1.52,1.52,0,0,0-.72-.46,3.21,3.21,0,0,0-1.1-.15,9.11,9.11,0,0,0-1.39.12l-6,1a5.94,5.94,0,0,1,.7-1.8,25,25,0,0,1,2-3h0c.3-.4.53-.7.7-.91s.28-.34.49-.62a14.9,14.9,0,0,0,2.55-4.41,9.13,9.13,0,0,0,.34-2,4.88,4.88,0,0,0,0-.53,7.3,7.3,0,0,0-.13-1.4,3.21,3.21,0,0,0-.31-1,1.51,1.51,0,0,0-.54-.62,2,2,0,0,0-1-.21,9.39,9.39,0,0,0-1.34.12L7.84,17.07A3.5,3.5,0,0,0,6,17.84a1.46,1.46,0,0,0-.47,1.1,2.42,2.42,0,0,0,0,.37,1.57,1.57,0,0,0,.9,1.23,2.72,2.72,0,0,0,1.06.19,4.55,4.55,0,0,0,.93-.09l5.78-1c0,.11,0,.22,0,.3A3,3,0,0,1,14,21a7.7,7.7,0,0,1-1.29,2c-.19.24-.49.62-.9,1.11A27.25,27.25,0,0,0,8.5,29h0a10.48,10.48,0,0,0-1,2.74,7.36,7.36,0,0,0-.17,1.51,5.47,5.47,0,0,0,.08,1,5,5,0,0,0,.34,1.15,1.53,1.53,0,0,0,.6.65,2.11,2.11,0,0,0,1,.17,14.89,14.89,0,0,0,2.36-.25L18,34.86A5.26,5.26,0,0,0,20.35,34a1.47,1.47,0,0,0,.55-1.17,2.33,2.33,0,0,0,0-.38,1.43,1.43,0,0,0-.34-.75Z"/></svg>