<?xml version="1.0" encoding="UTF-8" standalone="no"?>
<!-- Created with Inkscape (http://www.inkscape.org/) -->

<svg
   xmlns:dc="http://purl.org/dc/elements/1.1/"
   xmlns:cc="http://creativecommons.org/ns#"
   xmlns:rdf="http://www.w3.org/1999/02/22-rdf-syntax-ns#"
   xmlns:svg="http://www.w3.org/2000/svg"
   xmlns="http://www.w3.org/2000/svg"
   xmlns:sodipodi="http://sodipodi.sourceforge.net/DTD/sodipodi-0.dtd"
   xmlns:inkscape="http://www.inkscape.org/namespaces/inkscape"
   width="38mm"
   height="19mm"
   viewBox="0 0 38 19"
   version="1.1"
   id="svg8"
   inkscape:version="0.92.5 (2060ec1f9f, 2020-04-08)"
   sodipodi:docname="paloma-quiken.svg">
  <defs
     id="defs2">
    <style
       id="style3713">.cls-1{fill:#ff1243;}.cls-2{fill:#005080;}</style>
  </defs>
  <sodipodi:namedview
     id="base"
     pagecolor="#ffffff"
     bordercolor="#666666"
     borderopacity="1.0"
     inkscape:pageopacity="0.0"
     inkscape:pageshadow="2"
     inkscape:zoom="0.98994949"
     inkscape:cx="224.38995"
     inkscape:cy="230.34158"
     inkscape:document-units="mm"
     inkscape:current-layer="g3879"
     showgrid="false"
     inkscape:window-width="1257"
     inkscape:window-height="691"
     inkscape:window-x="2216"
     inkscape:window-y="84"
     inkscape:window-maximized="0"
     objecttolerance="20" />
  <metadata
     id="metadata5">
    <rdf:RDF>
      <cc:Work
         rdf:about="">
        <dc:format>image/svg+xml</dc:format>
        <dc:type
           rdf:resource="http://purl.org/dc/dcmitype/StillImage" />
        <dc:title></dc:title>
      </cc:Work>
    </rdf:RDF>
  </metadata>
  <g
     inkscape:label="Layer 1"
     inkscape:groupmode="layer"
     id="layer1"
     transform="translate(0,-278)">
    <g
       id="g3879"
       transform="matrix(0.26458333,0,0,0.26458333,56.864483,69.280749)">
      <path
         id="path3717"
         d="m -115.93357,840.91052 h -1 c -7.5,-0.22 -13,-0.91 -17.73,-2.22 l 0.34,-1.23 c 4.66,1.29 10,2 17.42,2.18 13.52,0.41 20.930007,-7.67 25.360007,-12.49 l 0.54,-0.54 a 24.6,24.6 0 0 1 4.61,-2.4 9.36,9.36 0 0 1 7.16,1.26 c 0.56,-3.47 -2.69,-5.09 -2.84,-5.16 l -0.38,-0.18 v -0.43 a 8.05,8.05 0 0 0 -6.7,-8.23 c -7.05,-1.57 -11.099997,5.95 -11.139997,6 l -0.18,0.34 h -11.06001 v -1.24 h 10.3 c 0.95001,-1.57 5.290007,-7.91 12.350007,-6.34 a 9.37,9.37 0 0 1 7.69,9.14 6.15,6.15 0 0 1 2.96,7.33 l -0.28,0.89 -0.72,-0.57 c 0,0 -3.2,-2.53 -6.85,-1.57 a 27.38,27.38 0 0 0 -4.2,2.21 l -0.33,0.36 c -4.45,4.84 -11.860007,12.89 -25.320007,12.89 z"
         class="cls-1"
         inkscape:connector-curvature="0"
         style="fill:#255187;fill-opacity:1" />
      <rect
         id="rect3719"
         height="1.27"
         width="27.43"
         y="816.5705"
         x="-141.35356"
         class="cls-1"
         style="fill:#255187;fill-opacity:1" />
      <path
         id="path3721"
         d="m -171.33357,833.15052 a 5.3,5.3 0 0 1 -2.67,-4.07 h -5.42 c -0.29,0 -7.3,0.11 -10.42,-2.94 a 4.72,4.72 0 0 1 -1.39,-2.83 c -1.81,0.05 -6.91,0 -9.53,-2.46 a 4.9,4.9 0 0 1 -1.61999,-3.76 v -0.65 h 0.65 l 5.93999,0.11 h 51.26 v 1.26 h -51.31 c 0,0 -3.05,0 -5.27999,-0.09 a 3.6,3.6 0 0 0 1.16999,2.18 c 2.72,2.57 9.15,2.12 9.21,2.12 h 0.68 v 0.69 a 3.46,3.46 0 0 0 1.11,2.59 c 2.73,2.67 9.45,2.56 9.51,2.57 h 6.68 v 0.63 a 4,4 0 0 0 2.1,3.63 z"
         class="cls-1"
         inkscape:connector-curvature="0"
         style="fill:#255187;fill-opacity:1" />
      <path
         id="path3723"
         d="m -174.52357,852.20052 -0.13,-0.71 a 6.7,6.7 0 0 1 1.12,-4.47 l -6.7,3.05 -0.14,-0.81 a 7.78,7.78 0 0 1 2.22,-6.24 l -8.28,3.47 -0.25,-0.59 a 7.77,7.77 0 0 1 0.22,-5.72 c 1.08,-2.35 3.38,-4.13 6.84,-5.28 9.39,-3.14 37.88,-12.18 38.17,-12.27 l 0.38,1.21 c -0.29,0.09 -28.75,9.18 -38.16,12.26 -3.11,1 -5.16,2.59 -6.08,4.6 a 6.35,6.35 0 0 0 -0.38,4.1 l 12.36,-5.13 0.51,1.17 c -5.33,2.44 -6.22,5.77 -6.33,7.33 l 8.74,-4 a 13.89,13.89 0 0 1 2.18,-1 l 0.49,1.17 -2.11,1 c -3,1.75 -3.55,4 -3.6,5.2 22.41,-7.52 57.64,-19.92 59.22,-22.09 l 1,0.73 c -2.28,3.25 -54.64,20.84 -60.6,22.84 z"
         class="cls-1"
         inkscape:connector-curvature="0"
         style="fill:#255187;fill-opacity:1" />
      <path
         id="path3725"
         d="m -110.81357,834.02052 v -1.27 c 5.62,-0.15 15.390007,-3.55 24.310007,-8.47 l 0.61,1.11 c -9.11,4.99 -19.110007,8.46 -24.920007,8.63 z"
         class="cls-1"
         inkscape:connector-curvature="0"
         style="fill:#255187;fill-opacity:1" />
      <path
         id="path3727"
         d="m -117.32357,834.65052 a 41.26,41.26 0 0 1 -6.47,-0.49 l 0.23,-1.25 a 41,41 0 0 0 9.75,0.31 l 0.11,1.27 c -1.27,0.11 -2.53,0.16 -3.62,0.16 z"
         class="cls-1"
         inkscape:connector-curvature="0"
         style="fill:#255187;fill-opacity:1" />
      <path
         id="path3729"
         d="m -89.293563,821.22052 c -4.54,0 -11.509997,-3.31 -11.810007,-3.45 l 0.55001,-1.14 c 0.07,0 6.999997,3.32 11.259997,3.32 a 17.65,17.65 0 0 0 4.75,-0.63 5.11,5.11 0 0 1 2.95,-0.19 l -0.38,1.21 a 4.13,4.13 0 0 0 -2.26,0.21 19.14,19.14 0 0 1 -5.06,0.67 z"
         class="cls-1"
         inkscape:connector-curvature="0"
         style="fill:#255187;fill-opacity:1" />
      <path
         id="path3731"
         d="m -83.023563,816.02052 a 8.3,8.3 0 0 0 -3.51,-1.45 9.1,9.1 0 0 0 -3.83,0.29 h -0.2 a 6.74,6.74 0 0 1 -5.29,-3.14 l 1.05,-0.7 a 5.58,5.58 0 0 0 4.15,2.57 10.71,10.71 0 0 1 4.3,-0.31 9.25,9.25 0 0 1 4.12,1.74 z"
         class="cls-1"
         inkscape:connector-curvature="0"
         style="fill:#255187;fill-opacity:1" />
      <polygon
         id="polygon3733"
         points="106.93,18.76 105.66,18.76 105.66,5.27 79.25,5.27 79.25,18.76 77.98,18.76 77.98,4 106.93,4 "
         class="cls-1"
         style="fill:#255187;fill-opacity:1"
         transform="translate(-220.23356,798.02052)" />
      <path
         id="path3735"
         d="m -84.813563,817.96052 a 0.85,0.85 0 0 1 -0.85,0.84 0.85,0.85 0 0 1 0,-1.69 0.85,0.85 0 0 1 0.85,0.85 z"
         class="cls-1"
         inkscape:connector-curvature="0"
         style="fill:#255187;fill-opacity:1" />
      <path
         id="path3737"
         d="m -86.123563,820.58052 a 2.86,2.86 0 1 1 2.89,-2.85 2.86,2.86 0 0 1 -2.89,2.85 z m 0,-4.44 a 1.59,1.59 0 1 0 1.59,1.59 1.59,1.59 0 0 0 -1.59,-1.59 z"
         class="cls-1"
         inkscape:connector-curvature="0"
         style="fill:#255187;fill-opacity:1" />
      <path
         id="path3739"
         d="m -125.39357,817.73052 h -4.77 v -15.56 h 4.77 z m -3.5,-1.27 h 2.23 v -13 h -2.23 z"
         class="cls-1"
         inkscape:connector-curvature="0"
         style="fill:#255187;fill-opacity:1" />
      <polygon
         id="polygon3741"
         points="90.3,13.84 78.51,13.84 78.51,9.08 90.58,9.08 90.58,10.35 79.78,10.35 79.78,12.57 90.3,12.57 "
         class="cls-1"
         style="fill:#255187;fill-opacity:1"
         transform="translate(-220.23356,798.02052)" />
      <rect
         id="rect3743"
         transform="rotate(-89.83)"
         height="1.27"
         width="12.11"
         y="-139.96503"
         x="-823.83521"
         class="cls-1"
         style="fill:#255187;fill-opacity:1" />
      <polygon
         id="polygon3745"
         points="75.16,5.75 77.95,4.05 78.62,5.13 76.43,6.47 76.41,26.25 75.14,26.25 "
         class="cls-1"
         style="fill:#255187;fill-opacity:1"
         transform="translate(-220.23356,798.02052)" />
      <rect
         id="rect3747"
         transform="rotate(-89.83)"
         height="1.27"
         width="24.200001"
         y="-112.03065"
         x="-840.49426"
         class="cls-1"
         style="fill:#255187;fill-opacity:1" />
      <polygon
         id="polygon3749"
         points="108.49,6.48 106.11,5.14 106.74,4.04 109.76,5.74 109.76,41.4 108.49,41.4 "
         class="cls-1"
         style="fill:#255187;fill-opacity:1"
         transform="translate(-220.23356,798.02052)" />
      <rect
         id="rect3751"
         height="1.27"
         width="6.98"
         y="827.47052"
         x="-199.66356"
         class="cls-1"
         style="fill:#255187;fill-opacity:1" />
      <rect
         id="rect3753"
         height="1.27"
         width="6.98"
         y="816.60052"
         x="-212.38356"
         class="cls-1"
         style="fill:#255187;fill-opacity:1" />
      <rect
         id="rect3755"
         height="1.27"
         width="24.99"
         y="822.0105"
         x="-190.03355"
         class="cls-1"
         style="fill:#255187;fill-opacity:1" />
      <rect
         id="rect3757"
         height="1.27"
         width="23.040001"
         y="827.81049"
         x="-180.54356"
         class="cls-1"
         style="fill:#255187;fill-opacity:1" />
      <rect
         id="rect3759"
         transform="rotate(-19.85)"
         height="1.27"
         width="35.330002"
         y="735.95526"
         x="-444.9035"
         class="cls-1"
         style="fill:#255187;fill-opacity:1" />
      <rect
         id="rect3761"
         transform="rotate(-19.85)"
         height="1.27"
         width="36.75"
         y="731.00085"
         x="-448.55429"
         class="cls-1"
         style="fill:#255187;fill-opacity:1" />
      <polygon
         id="polygon3763"
         points="105.64,13.84 93.65,13.84 93.65,9.08 105.64,9.08 105.64,10.35 94.92,10.35 94.92,12.57 105.64,12.57 "
         class="cls-1"
         style="fill:#255187;fill-opacity:1"
         transform="translate(-220.23356,798.02052)" />
    </g>
  </g>
</svg>
