<svg id="Color_Palette" data-name="Color Palette" xmlns="http://www.w3.org/2000/svg" viewBox="0 0 182.49 150.63"><defs><style>.cls-1{fill:#fff;}.cls-2{fill:#ff1243;}</style></defs><path class="cls-1" d="M173.29,21.17a1.13,1.13,0,1,1-1.13-1.12A1.13,1.13,0,0,1,173.29,21.17Z"/><path class="cls-1" d="M171.55,24.67a3.8,3.8,0,1,1,3.79-3.8A3.8,3.8,0,0,1,171.55,24.67Zm0-5.91a2.11,2.11,0,1,0,2.1,2.11A2.11,2.11,0,0,0,171.55,18.76Z"/><rect class="cls-1" x="20.69" y="33.81" width="9.28" height="1.68"/><rect class="cls-1" x="3.79" y="19.37" width="9.28" height="1.69"/><path class="cls-2" d="M33.45,142.42h.88l-1.4,7.37h2.24l-.15.77h-3.1Z"/><path class="cls-2" d="M39.79,148.1l-1,2.46h-.87l3.37-8.14h1l.26,8.14h-.84l-.08-2.46Zm1.84-.69-.05-2.1c0-.58,0-1.27,0-1.88h-.05c-.2.63-.45,1.34-.66,1.88l-.84,2.1Z"/><path class="cls-2" d="M45.82,149.54a2,2,0,0,0,1.08.3,1.45,1.45,0,0,0,1.49-1.57,2.22,2.22,0,0,0-.85-1.63,2.87,2.87,0,0,1-1-2,2.21,2.21,0,0,1,2.31-2.27,2,2,0,0,1,1.07.27l-.27.75a1.65,1.65,0,0,0-.89-.22,1.31,1.31,0,0,0-1.33,1.38,2.15,2.15,0,0,0,.86,1.54,2.83,2.83,0,0,1,1,2,2.33,2.33,0,0,1-2.43,2.53,2.39,2.39,0,0,1-1.29-.32Z"/><path class="cls-2" d="M54.58,143.23H53.11l.15-.81h3.81l-.16.81H55.45l-1.39,7.33h-.87Z"/><path class="cls-2" d="M68,150.56l.65-4.63c.1-.69.22-1.35.36-2.19H69c-.29.85-.6,1.64-.89,2.29l-2,4.48h-.58l-.29-4.57c0-.69-.06-1.36,0-2.2h0c-.19.85-.31,1.5-.46,2.2l-1.08,4.62h-.8l2-8.14h1l.29,4.71c0,.63.06,1.22.05,1.88h0c.22-.66.47-1.26.73-1.89l2-4.7h1l-1.08,8.14Z"/><path class="cls-2" d="M74.94,142.42l-1.55,8.14h-.87l1.55-8.14Z"/><path class="cls-2" d="M78.81,142.42h.88l-1.4,7.37h2.23l-.14.77h-3.1Z"/><path class="cls-2" d="M87.19,146.68h-2l-.6,3.11h2.3l-.16.77H83.58l1.54-8.14h3l-.16.78H85.85l-.53,2.73h2Z"/><path class="cls-2" d="M95.89,142.51a6.82,6.82,0,0,1,1.22-.12,2.17,2.17,0,0,1,1.83.8,3.15,3.15,0,0,1,.53,2,6.82,6.82,0,0,1-1.63,4.6,3.18,3.18,0,0,1-2.26.82,5.17,5.17,0,0,1-1.2-.12Zm-.53,7.28a2.81,2.81,0,0,0,.46.05,2.1,2.1,0,0,0,1.72-1,6.78,6.78,0,0,0,1-3.74c0-1.25-.46-2-1.47-2a2.46,2.46,0,0,0-.46,0Z"/><path class="cls-2" d="M105.67,146.68h-2l-.59,3.11h2.29l-.16.77h-3.15l1.55-8.14h3l-.15.78h-2.13l-.53,2.73h2Z"/><path class="cls-2" d="M110.2,142.42h.88l-1.4,7.37h2.23l-.14.77h-3.1Z"/><path class="cls-2" d="M117.38,142.42l-1.54,8.14H115l1.54-8.14Z"/><path class="cls-2" d="M121,150.56l-.29-8.14h.94l.09,5a17.41,17.41,0,0,1-.06,2h0a19.78,19.78,0,0,1,.67-1.95l2-5h.94l-3.4,8.14Z"/><path class="cls-2" d="M130.76,146.68h-2l-.59,3.11h2.29l-.16.77h-3.15l1.55-8.14h3l-.15.78h-2.13l-.53,2.73h2Z"/><path class="cls-2" d="M135.28,142.51a7.61,7.61,0,0,1,1.28-.12,2,2,0,0,1,1.47.51,1.75,1.75,0,0,1,.44,1.25,2.58,2.58,0,0,1-1.68,2.49v0c.49.19.73.76.74,1.82a18.13,18.13,0,0,0,.12,2.06h-.86a14.19,14.19,0,0,1-.1-2c0-1.14-.29-1.57-1-1.57h-.38l-.67,3.58h-.86Zm.14,3.77h.42a1.89,1.89,0,0,0,1.73-2.06,1,1,0,0,0-1.06-1.12,2.05,2.05,0,0,0-.51.05Z"/><path class="cls-2" d="M141.87,150.56l.66-3.44-.88-4.7h.93l.39,2.4c.08.64.13,1.14.17,1.47h0c.22-.46.42-.92.7-1.46l1.32-2.41h.94l-2.73,4.69-.64,3.45Z"/><rect class="cls-2" x="12.88" y="144.57" width="11.8" height="1.3"/><rect class="cls-2" y="148.86" width="24.68" height="1.3"/><path class="cls-2" d="M65.05,121.43l4.54-23.87h1.09s3-.11,4.3,1a3.74,3.74,0,0,1,.94,2.69l-3.84,20.21ZM74,94.58a3.24,3.24,0,0,1-3.37-3.41,4,4,0,0,1,4.06-4,3.32,3.32,0,0,1,3.51,3.47,3.89,3.89,0,0,1-4.15,4Z"/><path class="cls-2" d="M31.34,131.1h0l6.1-32.66A33.29,33.29,0,0,0,28.61,97c-11,0-16.25,8.29-16.25,15.91,0,5.42,3,9,7.37,9a8.9,8.9,0,0,0,7.37-4h.1l-2.87,13.08h-.06S26,138,32.53,136.88c-1.31-1.72-1.26-3.12-1.27-5.12Zm-8.68-14.79c-1.76,0-3-1.47-3-4.25,0-4.49,3-9.67,7.27-9.67a6.78,6.78,0,0,1,2.74.49l-1.22,6.45C27.64,113.67,25.1,116.31,22.66,116.31Z"/><path class="cls-2" d="M153.14,103.57c0-4.15-2.25-6.54-6.15-6.54a10.15,10.15,0,0,0-8.35,4.49h-.12c-.51-.69-3.83-4.87-8.46-2.28a5.19,5.19,0,0,1,2.1,2.65c-.16.93-.36,2-.64,3.44l-3,16.11h7l1.95-10.59c1-5.27,3.66-8.15,6-8.15,1.8,0,2.39,1.17,2.39,2.88a15.13,15.13,0,0,1-.25,2.63l-2.49,13.23h0c-.25,1.85-.43,3.2-1.88,4.67,6.27,1.92,8.91-4.68,8.91-4.68v-.08l2.62-13.77A28.46,28.46,0,0,0,153.14,103.57Z"/><path class="cls-2" d="M127,104.2c0-4.44-3.47-7.17-8.3-7.17-6.67,0-11.32,4.5-13.1,9.9l-5.83,0s-.17,3.83,5,4.45c0,.17,0,.34,0,.5,0,6.2,3.52,10.06,10.35,10.06A20.67,20.67,0,0,0,124,120l-.49-5.08a15,15,0,0,1-6.69,1.51,5.65,5.65,0,0,1-4.59-1.8,4.72,4.72,0,0,1-.73-2.45C121.07,112.45,127,110.25,127,104.2Zm-9.18-2c1.61,0,2.59.83,2.59,2v0c0,2.2-2.74,2.93-8.21,2.88C112.67,104.88,114.53,102.15,117.8,102.15Z"/><path class="cls-2" d="M106,97.56H97.3l-6.11,7.27c-.68.84-1.41,1.76-2.14,2.69H89l.21-1.33,3.7-19.42h-7L79.74,119.3a2.43,2.43,0,0,1-1.6-.15,13.19,13.19,0,0,1-1.92-.92L75,122.93a12.35,12.35,0,0,0,3.55,1.95c3.94,1.54,6.51.05,7.59-2.71a24.15,24.15,0,0,0,1.24-4.62l.64-4,2.38-2.29,4.2,10.2h7.86l-6.64-14Z"/><path class="cls-2" d="M65.29,93.19l-9.09,0s-.2-4,5.72-4"/><polygon class="cls-2" points="66.09 89.24 65.33 93.16 58.3 93.16 61.45 89.25 66.09 89.24"/><path class="cls-2" d="M64.66,97.56h-7l-2.1,11.08c-.88,4.74-3.37,7.62-5.76,7.62-1.76,0-2.39-1.22-2.39-2.74a19.63,19.63,0,0,1,.34-3.17l2.44-12.79h-7l-2.54,13.33a22,22,0,0,0-.49,4.39c0,4.54,2.29,6.69,6.15,6.69,2.88,0,5.76-1.32,8.2-4.44l.1,0-.35,3A4.78,4.78,0,0,1,52,122.8c4.19,2.94,7.79-.86,8.25-1.37h0v0h0c.34-2.14.73-4.7,1.31-7.7Z"/><path class="cls-2" d="M51.5,93.24l-9.08,0s-.2-4,5.72-4"/><polygon class="cls-2" points="52.31 89.29 51.55 93.22 44.52 93.22 47.67 89.3 52.31 89.29"/><path class="cls-1" d="M131.94,51.67c-.43,0-.88,0-1.32,0-10-.29-17.23-1.2-23.55-2.95l.45-1.62c6.19,1.71,13.33,2.6,23.15,2.89,18,.54,27.8-10.19,33.69-16.59l.72-.73c4.74-2.79,6-3.15,6.12-3.18a12.43,12.43,0,0,1,9.51,1.68c.74-4.61-3.57-6.75-3.77-6.85l-.5-.24,0-.57a10.72,10.72,0,0,0-8.9-10.93c-9.38-2.08-14.76,7.9-14.82,8l-.23.45H137.79V19.33h13.73c1.26-2.08,7-10.51,16.41-8.42a12.44,12.44,0,0,1,10.22,12.14c1.47.89,5.71,4.05,3.9,9.74L181.67,34l-1-.78s-4.25-3.36-9.09-2.09A35.07,35.07,0,0,0,166,34.05l-.44.47C159.66,41,149.82,51.67,131.94,51.67Z"/><rect class="cls-1" x="98.16" y="19.33" width="36.44" height="1.68"/><path class="cls-1" d="M58.33,41.36A7,7,0,0,1,54.79,36H47.57c-.37,0-9.7.15-13.84-3.9a6.24,6.24,0,0,1-1.91-3.76c-2.4.07-9.18,0-12.67-3.27A6.57,6.57,0,0,1,17,20v-.87l.87,0c2.95.08,7.9.15,7.9.15H93.94V21H25.76s-4.05-.05-7-.12a4.76,4.76,0,0,0,1.55,2.89c3.65,3.39,12.16,2.79,12.24,2.79l.91-.07v.91a4.63,4.63,0,0,0,1.46,3.44c3.63,3.55,12.57,3.41,12.65,3.41h8.87v.84a5.34,5.34,0,0,0,2.79,4.82Z"/><path class="cls-1" d="M54.09,66.67l-.17-1a8.87,8.87,0,0,1,1.49-6l-8.9,4.09-.19-1.07c0-.24-.67-4.22,3-8.25l-11,4.56-.32-.78a10.2,10.2,0,0,1,.29-7.6c1.43-3.12,4.49-5.48,9.08-7C59.82,39.51,97.65,27.5,98,27.38L98.54,29c-.38.12-38.2,12.13-50.7,16.3-4.13,1.37-6.85,3.43-8.08,6.11a8.54,8.54,0,0,0-.5,5.44L55.68,50l.68,1.55c-7.08,3.24-8.27,7.67-8.41,9.74L59.56,56a18.43,18.43,0,0,1,2.91-1.33l.64,1.55L60.3,57.5c-4,2.33-4.7,5.37-4.77,6.92,29.76-10,76.56-26.42,78.61-29.3l1.38,1C132.5,40.4,62.93,63.72,55,66.37Z"/><path class="cls-1" d="M138.75,42.49l-.05-1.68c7.47-.2,20.45-4.73,32.3-11.26l.81,1.48C159.75,37.68,146.46,42.29,138.75,42.49Z"/><path class="cls-1" d="M130.09,43.35a54.18,54.18,0,0,1-8.59-.65l.29-1.66a55.1,55.1,0,0,0,13,.42l.15,1.68C133.22,43.29,131.59,43.35,130.09,43.35Z"/><path class="cls-1" d="M167.33,25.51c-6,0-15.29-4.39-15.69-4.58l.73-1.52c.09,0,9.32,4.41,15,4.41a23.62,23.62,0,0,0,6.32-.84,6.78,6.78,0,0,1,3.91-.24l-.5,1.61a5.44,5.44,0,0,0-3,.27A25.52,25.52,0,0,1,167.33,25.51Z"/><path class="cls-1" d="M175.66,18.58A10.7,10.7,0,0,0,171,16.65a12.65,12.65,0,0,0-5.1.38l-.27,0a9,9,0,0,1-7-4.17L160,12a7.37,7.37,0,0,0,5.51,3.41,14.31,14.31,0,0,1,5.71-.4,12.37,12.37,0,0,1,5.47,2.28Z"/><polygon class="cls-1" points="135.43 19.61 133.74 19.61 133.74 1.69 98.66 1.69 98.66 19.61 96.97 19.61 96.97 0 135.43 0 135.43 19.61"/><path class="cls-1" d="M119.37,20.87H113V.2h6.33Zm-4.64-1.69h3V1.88h-3Z"/><polygon class="cls-1" points="113.33 13.07 97.68 13.07 97.68 6.75 113.71 6.75 113.71 8.43 99.36 8.43 99.36 11.38 113.33 11.38 113.33 13.07"/><rect class="cls-1" x="89.58" y="19.54" width="16.09" height="1.69" transform="translate(76.96 117.95) rotate(-89.83)"/><polygon class="cls-1" points="94.88 29.57 93.2 29.56 93.22 2.33 96.94 0.06 97.81 1.5 94.91 3.28 94.88 29.57"/><rect class="cls-1" x="118.63" y="33.75" width="32.16" height="1.69" transform="translate(99.71 169.2) rotate(-89.83)"/><polygon class="cls-1" points="139.19 49.7 137.5 49.7 137.5 3.3 134.35 1.52 135.18 0.05 139.19 2.31 139.19 49.7"/><rect class="cls-1" x="33.48" y="26.56" width="33.2" height="1.69"/><rect class="cls-1" x="46.1" y="34.27" width="30.61" height="1.69"/><rect class="cls-1" x="60.89" y="46.82" width="46.94" height="1.69" transform="translate(-11.17 31.48) rotate(-19.85)"/><rect class="cls-1" x="54.04" y="41.96" width="48.83" height="1.69" transform="translate(-9.87 29.18) rotate(-19.85)"/><polygon class="cls-1" points="133.72 13.07 117.78 13.07 117.78 6.75 133.72 6.75 133.72 8.43 119.47 8.43 119.47 11.38 133.72 11.38 133.72 13.07"/></svg>